SplineFontDB: 3.2
FontName: MandoAF-Regular
FullName: Mando AF Regular
FamilyName: Mando AF
Weight: Regular
Copyright: CC0 - public domain
Version: 002
ItalicAngle: 0
UnderlinePosition: -100
UnderlineWidth: 50
Ascent: 800
Descent: 200
InvalidEm: 0
sfntRevision: 0x00010000
LayerCount: 2
Layer: 0 0 "Back" 1
Layer: 1 0 "Fore" 0
XUID: [1021 764 -1482030943 10478]
StyleMap: 0x0000
FSType: 0
OS2Version: 4
OS2_WeightWidthSlopeOnly: 0
OS2_UseTypoMetrics: 1
CreationTime: 1587621776
ModificationTime: 1606857014
PfmFamily: 17
TTFWeight: 400
TTFWidth: 5
LineGap: 90
VLineGap: 0
Panose: 2 0 5 3 0 0 0 0 0 0
OS2TypoAscent: 800
OS2TypoAOffset: 0
OS2TypoDescent: -200
OS2TypoDOffset: 0
OS2TypoLinegap: 90
OS2WinAscent: 802
OS2WinAOffset: 0
OS2WinDescent: 220
OS2WinDOffset: 0
HheadAscent: 802
HheadAOffset: 0
HheadDescent: -220
HheadDOffset: 0
OS2SubXSize: 650
OS2SubYSize: 699
OS2SubXOff: 0
OS2SubYOff: 140
OS2SupXSize: 650
OS2SupYSize: 699
OS2SupXOff: 0
OS2SupYOff: 479
OS2StrikeYSize: 49
OS2StrikeYPos: 258
OS2CapHeight: 796
OS2XHeight: 796
OS2Vendor: 'PfEd'
OS2CodePages: 00000001.00000000
OS2UnicodeRanges: 00000001.00000000.00000000.00000000
Lookup: 258 0 0 "'kern' Horizontal Kerning in Latin lookup 0" { "'kern' Horizontal Kerning in Latin lookup 0 subtable"  } ['kern' ('DFLT' <'dflt' > 'latn' <'dflt' > ) ]
MarkAttachClasses: 1
DEI: 91125
KernClass2: 37 38 "'kern' Horizontal Kerning in Latin lookup 0 subtable"
 6 exclam
 20 quotedbl quotesingle
 10 numbersign
 10 dollar W w
 9 ampersand
 5 comma
 6 hyphen
 6 period
 33 zero three seven nine E J N e j n
 11 one O P o p
 3 two
 4 four
 12 five six M m
 5 eight
 5 colon
 9 semicolon
 8 question
 6 at T t
 3 A a
 3 B b
 3 C c
 3 D d
 3 F f
 3 G g
 3 H h
 3 I i
 7 K Q k q
 3 L l
 3 R r
 3 S s
 3 U u
 3 V v
 3 X x
 3 Y y
 3 Z z
 10 underscore
 6 exclam
 20 quotedbl quotesingle
 14 numbersign S s
 6 dollar
 13 ampersand B b
 5 comma
 6 hyphen
 6 period
 4 zero
 9 one seven
 8 two nine
 5 three
 24 four six C H J Y c h j y
 4 five
 5 eight

StartChar: .notdef
Encoding: 65536 -1 0
Width: 504
Flags: MW
HStem: 322.725 76.21 562.725 76.21 802.725 76.21
CounterMasks: 1 e0
LayerCount: 2
Fore
SplineSet
378.088867188 878.934570312 m 1
 388.844726562 872.337890625 408.485351562 860.127929688 421.737304688 851.799804688 c 0
 442.798828125 838.555664062 446.541992188 834.627929688 451.504882812 820.547851562 c 0
 454.625976562 811.692382812 455.7421875 803.22265625 453.630859375 802.723632812 c 0
 406.358398438 791.524414062 208.075195312 731.313476562 148.583007812 710.216796875 c 0
 98.091796875 690.892578125 55.7099609375 676.233398438 50.5556640625 676.233398438 c 0
 50.255859375 676.233398438 50.08203125 676.283203125 50.0400390625 676.384765625 c 0
 49.2685546875 678.217773438 59.3271484375 697.454101562 96.1484375 758.549804688 c 1
 154.544921875 802.921875 242.274414062 848.711914062 378.088867188 878.934570312 c 1
378.087890625 398.93359375 m 1
 388.84375 392.336914062 408.484375 380.126953125 421.736328125 371.798828125 c 0
 442.797851562 358.5546875 446.541015625 354.626953125 451.50390625 340.546875 c 0
 454.625 331.69140625 455.741210938 323.221679688 453.629882812 322.72265625 c 0
 406.357421875 311.5234375 208.07421875 251.3125 148.58203125 230.215820312 c 0
 98.0908203125 210.891601562 55.708984375 196.232421875 50.5546875 196.232421875 c 0
 50.2548828125 196.232421875 50.0810546875 196.282226562 50.0390625 196.383789062 c 0
 49.267578125 198.216796875 59.326171875 217.453125 96.1474609375 278.548828125 c 1
 154.543945312 322.920898438 242.2734375 368.7109375 378.087890625 398.93359375 c 1
378.086914062 638.932617188 m 1
 388.842773438 632.3359375 408.483398438 620.125976562 421.735351562 611.797851562 c 0
 442.796875 598.553710938 446.540039062 594.625976562 451.502929688 580.545898438 c 0
 454.624023438 571.690429688 455.740234375 563.220703125 453.62890625 562.721679688 c 0
 406.356445312 551.522460938 208.073242188 491.311523438 148.581054688 470.21484375 c 0
 98.08984375 450.890625 55.7080078125 436.231445312 50.5537109375 436.231445312 c 0
 50.25390625 436.231445312 50.080078125 436.28125 50.0380859375 436.3828125 c 0
 49.2666015625 438.215820312 59.3251953125 457.452148438 96.146484375 518.547851562 c 1
 154.54296875 562.919921875 242.272460938 608.709960938 378.086914062 638.932617188 c 1
EndSplineSet
EndChar

StartChar: exclam
Encoding: 33 33 2
Width: 235
GlyphClass: 2
Flags: MW
VStem: 53.2373 132.251
LayerCount: 2
Fore
SplineSet
75.9345703125 168.755859375 m 2
 65.0751953125 146.74609375 55.2470703125 130.8359375 53.2373046875 132.021484375 c 0
 51.044921875 133.30078125 50 230.471679688 50 433.366210938 c 0
 50 453.880859375 50.0107421875 475.4765625 50.0322265625 498.163085938 c 0
 50.314453125 785.776367188 51.2568359375 861.008789062 54.615234375 861.008789062 c 0
 56.849609375 861.008789062 66.94921875 857.173828125 93.33984375 848.533203125 c 1
 99.654296875 753.146484375 l 2
 103.116210938 700.680664062 106.595703125 655.818359375 107.38671875 653.456054688 c 0
 108.16796875 651.092773438 111.509765625 649.16015625 114.817382812 649.168945312 c 0
 118.125 649.168945312 133.975585938 657.055664062 150.041015625 666.685546875 c 0
 166.106445312 676.31640625 180.796875 684.426757812 182.6875 684.71875 c 0
 184.577148438 685.001953125 185.83984375 682.922851562 185.48828125 680.087890625 c 0
 185.135742188 677.252929688 164.645507812 569.778320312 95.0751953125 207.579101562 c 1
 75.9345703125 168.755859375 l 2
EndSplineSet
EndChar

StartChar: quotedbl
Encoding: 34 34 3
Width: 374
GlyphClass: 2
Flags: MW
HStem: 773.114 290.484
VStem: 49.9999 274.78
LayerCount: 2
Fore
SplineSet
109.495117188 1020.17285156 m 0
 137.08984375 1043.96191406 160.8359375 1063.50292969 162.263671875 1063.59863281 c 0
 163.690429688 1063.69335938 164.82421875 1062.60351562 164.780273438 1061.17578125 c 0
 164.737304688 1059.74902344 147.600585938 994.740234375 126.692382812 916.711914062 c 0
 105.79296875 838.684570312 87.9208984375 774.065429688 86.9775390625 773.114257812 c 0
 86.0439453125 772.162109375 84.546875 772.162109375 83.6474609375 773.114257812 c 0
 82.7568359375 774.065429688 74.201171875 817.6640625 64.642578125 870 c 0
 54.02734375 928.098632812 50 950.944335938 50 961.336914062 c 0
 50 967.11328125 51.244140625 969.041992188 53.29296875 971.038085938 c 0
 56.60546875 974.2734375 81.900390625 996.383789062 109.495117188 1020.17285156 c 0
269.495117188 1020.17285156 m 0
 297.08984375 1043.96191406 320.8359375 1063.50292969 322.263671875 1063.59863281 c 0
 323.690429688 1063.69335938 324.82421875 1062.60351562 324.780273438 1061.17578125 c 0
 324.737304688 1059.74902344 307.600585938 994.740234375 286.692382812 916.711914062 c 0
 265.79296875 838.684570312 247.920898438 774.065429688 246.977539062 773.114257812 c 0
 246.043945312 772.162109375 244.546875 772.162109375 243.647460938 773.114257812 c 0
 242.756835938 774.065429688 234.201171875 817.6640625 224.642578125 870 c 0
 214.02734375 928.098632812 210 950.944335938 210 961.336914062 c 0
 210 967.11328125 211.244140625 969.041992188 213.29296875 971.038085938 c 0
 216.60546875 974.2734375 241.900390625 996.383789062 269.495117188 1020.17285156 c 0
EndSplineSet
EndChar

StartChar: numbersign
Encoding: 35 35 4
Width: 591
GlyphClass: 2
Flags: MW
VStem: 159.463 108.895 168.592 78.7324 172.993 63.0615 323.596 108.895 344.63 84.6475 355.9 63.0612
LayerCount: 2
Fore
SplineSet
213.010742188 960.25390625 m 2x80
 242.456054688 979.00390625 267.84375 994.453125 269.427734375 994.5859375 c 0
 270.2734375 994.661132812 270.703125 986.266601562 270.703125 972.90234375 c 0
 270.703125 961.221679688 270.375 945.745117188 269.709960938 928.810546875 c 0
 268.836914062 906.590820312 268.358398438 891.719726562 268.358398438 882.026367188 c 0
 268.358398438 869.622070312 269.141601562 865.694335938 270.880859375 865.694335938 c 0
 271.249023438 865.694335938 271.659179688 865.870117188 272.114257812 866.178710938 c 0
 274.869140625 868.044921875 307.219726562 891.487304688 344.015625 918.264648438 c 0
 380.8203125 945.04296875 411.383789062 965.703125 411.955078125 964.171875 c 0
 412.010742188 964.021484375 411.94140625 963.676757812 411.94140625 963.109375 c 1
 413.596679688 964.060546875 414.729492188 964.584960938 415.194335938 964.584960938 c 0
 417.39453125 964.584960938 418.803710938 941.830078125 418.961914062 903.845703125 c 0x84
 419.09375 870.438476562 421.07421875 717.666015625 423.36328125 564.356445312 c 0
 425.643554688 411.037109375 428.310546875 324.911132812 429.278320312 324.065429688 c 0x08
 430.247070312 323.229492188 451.637695312 316.08984375 476.813476562 308.211914062 c 0
 520.431640625 294.567382812 523.045898438 293.211914062 541.955078125 265.1484375 c 1
 530.510742188 260.32421875 l 2
 524.216796875 257.666015625 498.609375 247.762695312 428.1171875 221.133789062 c 1
 432.4921875 73.2470703125 l 1
 378.944335938 39.162109375 l 2
 349.499023438 20.412109375 324.111328125 4.9638671875 322.52734375 4.8310546875 c 0
 321.681640625 4.755859375 321.251953125 13.150390625 321.251953125 26.5146484375 c 0
 321.251953125 38.1953125 321.580078125 53.671875 322.245117188 70.6064453125 c 0
 323.118164062 92.826171875 323.596679688 107.697265625 323.596679688 117.390625 c 0
 323.596679688 129.794921875 322.813476562 133.72265625 321.07421875 133.72265625 c 0
 320.706054688 133.72265625 320.295898438 133.546875 319.840820312 133.23828125 c 0
 317.0859375 131.372070312 284.735351562 107.9296875 247.939453125 81.15234375 c 0
 211.134765625 54.3740234375 180.571289062 33.7138671875 180 35.2451171875 c 0
 179.944335938 35.3955078125 180.013671875 35.740234375 180.013671875 36.306640625 c 1
 178.358398438 35.35546875 177.225585938 34.8310546875 176.760742188 34.8310546875 c 0
 174.560546875 34.8310546875 173.151367188 57.5859375 172.993164062 95.5703125 c 0x30
 172.861328125 128.977539062 170.880859375 281.75 168.591796875 435.059570312 c 0x40
 166.311523438 588.37890625 163.64453125 674.504882812 162.676757812 675.350585938 c 0
 161.708007812 676.186523438 140.317382812 683.326171875 115.141601562 691.204101562 c 0
 71.5234375 704.848632812 68.9091796875 706.204101562 50 734.267578125 c 1
 61.4443359375 739.091796875 l 2
 67.73828125 741.75 93.345703125 751.653320312 163.837890625 778.282226562 c 1
 159.462890625 926.168945312 l 1
 213.010742188 960.25390625 l 2x80
355.899414062 834.065429688 m 1
 328.829101562 802.930664062 l 2
 296.83984375 766.134765625 268.609375 733.65234375 266.091796875 730.747070312 c 0
 262.650390625 726.768554688 258.01953125 684.577148438 247.32421875 438.000976562 c 0x44
 242.690429688 331.228515625 238.58203125 233.180664062 236.0546875 165.352539062 c 1
 263.125 196.487304688 l 2
 295.114257812 233.283203125 323.344726562 265.765625 325.862304688 268.670898438 c 0
 329.303710938 272.649414062 333.934570312 314.840820312 344.629882812 561.416992188 c 0x28
 349.263671875 668.189453125 353.372070312 766.237304688 355.899414062 834.065429688 c 1
EndSplineSet
EndChar

StartChar: dollar
Encoding: 36 36 5
Width: 529
GlyphClass: 2
Flags: MW
HStem: 0.21138 71.3904
VStem: 242.972 85.2227<607.999 607.999> 249.155 66.0938 365.854 113.974
LayerCount: 2
Fore
SplineSet
159.612304688 954.263671875 m 2x90
 170.471679688 976.2734375 180.299804688 992.18359375 182.309570312 990.998046875 c 0
 184.501953125 989.71875 185.546875 892.547851562 185.546875 689.653320312 c 0
 185.546875 669.138671875 185.536132812 647.54296875 185.514648438 624.856445312 c 0
 185.232421875 337.243164062 184.290039062 262.010742188 180.931640625 262.010742188 c 0
 178.697265625 262.010742188 168.59765625 265.845703125 142.20703125 274.486328125 c 1
 135.892578125 369.873046875 l 2
 132.430664062 422.338867188 128.951171875 467.201171875 128.16015625 469.563476562 c 0
 127.37890625 471.926757812 124.037109375 473.859375 120.729492188 473.850585938 c 0
 117.421875 473.850585938 101.571289062 465.963867188 85.505859375 456.333984375 c 0
 69.4404296875 446.703125 54.75 438.592773438 52.859375 438.30078125 c 0
 50.9697265625 438.017578125 49.70703125 440.096679688 50.05859375 442.931640625 c 0
 50.4111328125 445.766601562 70.9013671875 553.241210938 140.471679688 915.440429688 c 1
 159.612304688 954.263671875 l 2x90
256.975585938 995.053710938 m 0
 257.874023438 996.548828125 260.623046875 996.548828125 263.087890625 995.053710938 c 0
 265.54296875 993.559570312 278.265625 984.333984375 291.352539062 974.546875 c 0
 314.493164062 957.243164062 315.151367188 956.30859375 315.249023438 940.739257812 c 0xb0
 315.302734375 931.931640625 318.229492188 853.461914062 328.194335938 607.999023438 c 1
 467.393554688 273.479492188 l 1
 473.265625 191.62890625 l 2
 476.516601562 146.30859375 479.828125 106.48828125 479.828125 102.002929688 c 0
 479.828125 96.138671875 466.155273438 83.7841796875 421.770507812 49.38671875 c 0
 389.475585938 24.3603515625 361.450195312 2.447265625 359.493164062 0.6943359375 c 0
 359.12890625 0.3681640625 357.37109375 0.2099609375 354.350585938 0.2099609375 c 0
 339.735351562 0.2099609375 295.560546875 3.908203125 236.708984375 10.1611328125 c 0
 171.138671875 17.1181640625 114.2890625 23.4970703125 110.374023438 24.3427734375 c 0
 106.760742188 25.11328125 104.98828125 25.546875 104.98828125 33.9033203125 c 0
 104.98828125 41.9443359375 106.62890625 57.3212890625 109.848632812 87.3935546875 c 0
 113.478515625 121.237304688 117.08203125 149.32421875 117.856445312 149.813476562 c 0
 118.638671875 150.303710938 128.478515625 145.28515625 139.733398438 138.657226562 c 0
 160.053710938 126.700195312 160.240234375 126.43359375 166.877929688 100.401367188 c 0
 170.551757812 85.98828125 174.555664062 73.1240234375 175.774414062 71.8154296875 c 0
 175.909179688 71.6708984375 176.5546875 71.6005859375 177.666015625 71.6005859375 c 0
 186.590820312 71.6005859375 225.543945312 76.107421875 271.068359375 82.4921875 c 0
 322.259765625 89.671875 364.911132812 96.34375 365.854492188 97.3232421875 c 0
 366.7890625 98.3017578125 370.631835938 139.137695312 381.201171875 277.038085938 c 1
 242.971679688 607.999023438 l 1xd0
 249.155273438 800.169921875 l 2xb0
 252.553710938 905.86328125 256.068359375 993.559570312 256.975585938 995.053710938 c 0
EndSplineSet
EndChar

StartChar: ampersand
Encoding: 38 38 6
Width: 591
GlyphClass: 2
Flags: MW
HStem: 798.912 82.0693
VStem: 148.378 89.2363 150.551 74.7829 320.158 111.004 329.7 82.8965 334.807 59.9447
LayerCount: 2
Fore
SplineSet
374.13671875 846.587890625 m 2x90
 403.819335938 865.393554688 430.512695312 880.981445312 433.461914062 880.981445312 c 0
 436.622070312 880.981445312 461.834960938 872.5 489.744140625 862.0546875 c 0
 517.825195312 851.53515625 541.223632812 841.596679688 541.743164062 839.9765625 c 0
 542.252929688 838.357421875 536.708007812 831.340820312 529.418945312 824.38671875 c 0
 516.831054688 812.388671875 513.978515625 811.4296875 473.899414062 805.627929688 c 0
 450.66015625 802.274414062 431.42578125 799.24609375 431.162109375 798.912109375 c 0x90
 430.897460938 798.568359375 422.543945312 567.362304688 412.596679688 334 c 0x88
 402.73046875 102.52734375 394.751953125 54.14453125 394.751953125 45.8154296875 c 0
 394.751953125 32.0009765625 394.102539062 30.8623046875 368.423828125 11.2880859375 c 0
 353.811523438 0.1533203125 340.263671875 -8.9580078125 338.327148438 -8.9580078125 c 0
 336.206054688 -8.9580078125 334.806640625 6.0068359375 334.806640625 28.89453125 c 0x84
 334.806640625 49.712890625 332.508789062 72.0283203125 329.700195312 261.81640625 c 0x88
 326.892578125 451.60546875 323.600585938 684.123046875 320.158203125 812.379882812 c 1
 374.13671875 846.587890625 l 2x90
198.991210938 953.114257812 m 1
 253.595703125 986.782226562 l 1
 305.306640625 967.581054688 l 2
 333.745117188 957.028320312 358.595703125 947.001953125 360.525390625 945.317382812 c 0
 362.75390625 943.37890625 359.306640625 937.440429688 351.095703125 929.098632812 c 0
 338.657226562 916.458007812 336.560546875 915.703125 296.709960938 909.694335938 c 0
 273.911132812 906.247070312 254.47265625 902.563476562 253.5078125 901.493164062 c 0
 252.54296875 900.431640625 249.885742188 857.458007812 247.595703125 806.001953125 c 0
 245.315429688 754.545898438 243.315429688 707.703125 243.157226562 701.9140625 c 2
 239.47265625 601.9140625 l 1
 237.61328125 565.94921875 l 2xc0
 236.586914062 546.16796875 231.060546875 419.063476562 225.333007812 283.493164062 c 0
 219.604492188 147.922851562 214.911132812 34.6328125 214.911132812 31.73828125 c 0
 214.911132812 28.84375 202.280273438 17.001953125 186.841796875 5.4228515625 c 0
 171.673828125 -5.953125 161.834960938 -11.9384765625 158.392578125 -11.9384765625 c 0
 157.717773438 -11.9384765625 157.2890625 -11.708984375 157.11328125 -11.2451171875 c 0
 156.209960938 -8.8330078125 131.736328125 88.2724609375 102.727539062 204.544921875 c 0
 73.7275390625 320.81640625 49.9990234375 416.737304688 49.9990234375 417.702148438 c 0
 49.9990234375 418.666992188 51.578125 419.45703125 53.5078125 419.45703125 c 0
 55.4375 419.45703125 77.54296875 402.877929688 102.630859375 382.615234375 c 0
 127.71875 362.3515625 149.078125 346.166992188 150.095703125 346.649414062 c 0
 150.404296875 346.793945312 150.55078125 356.619140625 150.55078125 373.853515625 c 0xa0
 150.55078125 413.991210938 149.758789062 494.314453125 148.377929688 586.123046875 c 0xc0
 146.412109375 717.350585938 144.7109375 846.03515625 144.38671875 919.456054688 c 1
 198.991210938 953.114257812 l 1
EndSplineSet
EndChar

StartChar: quotesingle
Encoding: 39 39 7
Width: 214
GlyphClass: 2
Flags: MW
HStem: 773.114 290.484
VStem: 49.9999 114.78
LayerCount: 2
Fore
SplineSet
109.495117188 1020.17285156 m 0
 137.08984375 1043.96191406 160.8359375 1063.50292969 162.263671875 1063.59863281 c 0
 163.690429688 1063.69335938 164.82421875 1062.60351562 164.780273438 1061.17578125 c 0
 164.737304688 1059.74902344 147.600585938 994.740234375 126.692382812 916.711914062 c 0
 105.79296875 838.684570312 87.9208984375 774.065429688 86.9775390625 773.114257812 c 0
 86.0439453125 772.162109375 84.546875 772.162109375 83.6474609375 773.114257812 c 0
 82.7568359375 774.065429688 74.201171875 817.6640625 64.642578125 870 c 0
 54.02734375 928.098632812 50 950.944335938 50 961.336914062 c 0
 50 967.11328125 51.244140625 969.041992188 53.29296875 971.038085938 c 0
 56.60546875 974.2734375 81.900390625 996.383789062 109.495117188 1020.17285156 c 0
EndSplineSet
EndChar

StartChar: comma
Encoding: 44 44 8
Width: 263
GlyphClass: 2
Flags: MW
HStem: 0.391602 261.061
VStem: 52.3555 161.419
LayerCount: 2
Fore
SplineSet
208.774414062 193.366210938 m 0
 211.486328125 156.76171875 213.774414062 123.57421875 213.774414062 118.60546875 c 0
 213.774414062 110.793945312 209.020507812 107.094726562 134.301757812 55.4619140625 c 0
 90.5361328125 25.2138671875 53.6572265625 0.4345703125 52.35546875 0.3916015625 c 0
 51.0458984375 0.3544921875 49.9873046875 1.4130859375 50 2.7470703125 c 0
 50.005859375 4.0859375 83.0615234375 62.416015625 123.45703125 132.368164062 c 0
 163.846679688 202.327148438 197.697265625 260.412109375 198.67578125 261.452148438 c 0
 199.654296875 262.4921875 201.2265625 262.4609375 202.168945312 261.385742188 c 0
 203.110351562 260.30859375 206.083984375 229.69921875 208.774414062 193.366210938 c 0
EndSplineSet
EndChar

StartChar: hyphen
Encoding: 45 45 9
Width: 504
GlyphClass: 2
Flags: MW
HStem: 562.725 76.21
LayerCount: 2
Fore
SplineSet
378.088867188 638.934570312 m 1
 388.844726562 632.337890625 408.485351562 620.127929688 421.737304688 611.799804688 c 0
 442.798828125 598.555664062 446.541992188 594.627929688 451.504882812 580.547851562 c 0
 454.625976562 571.692382812 455.7421875 563.22265625 453.630859375 562.723632812 c 0
 406.358398438 551.524414062 208.075195312 491.313476562 148.583007812 470.216796875 c 0
 98.091796875 450.892578125 55.7099609375 436.233398438 50.5556640625 436.233398438 c 0
 50.255859375 436.233398438 50.08203125 436.283203125 50.0400390625 436.384765625 c 0
 49.2685546875 438.217773438 59.3271484375 457.454101562 96.1484375 518.549804688 c 1
 154.544921875 562.921875 242.274414062 608.711914062 378.088867188 638.934570312 c 1
EndSplineSet
EndChar

StartChar: period
Encoding: 46 46 10
Width: 263
GlyphClass: 2
Flags: MW
HStem: 2.25977 258.639
VStem: 50.0001 163.773
LayerCount: 2
Fore
SplineSet
54.9990234375 192.87890625 m 0
 57.6904296875 229.212890625 60.6630859375 259.821289062 61.60546875 260.8984375 c 0
 62.546875 261.974609375 64.1201171875 262.004882812 65.0986328125 260.96484375 c 0
 66.076171875 259.92578125 99.927734375 201.83984375 140.317382812 131.880859375 c 0
 180.712890625 61.9296875 213.767578125 3.599609375 213.7734375 2.259765625 c 0
 213.787109375 0.92578125 212.728515625 -0.1328125 211.418945312 -0.0947265625 c 0
 210.116210938 -0.052734375 173.23828125 24.7265625 129.471679688 54.974609375 c 0
 54.75390625 106.607421875 50 110.306640625 50 118.118164062 c 0
 50 123.08984375 52.287109375 156.270507812 54.9990234375 192.87890625 c 0
EndSplineSet
EndChar

StartChar: zero
Encoding: 48 48 11
Width: 490
GlyphClass: 2
Flags: MW
VStem: 90.7861 60.7627 219.571 109.848
LayerCount: 2
Fore
SplineSet
107.680664062 321.012695312 m 2
 79.6982421875 303.223632812 55.048828125 288.530273438 52.8916015625 288.372070312 c 0
 50.2158203125 288.170898438 49.4267578125 296.670898438 50.400390625 315.276367188 c 0
 55.8154296875 419.065429688 83.234375 782.483398438 90.7861328125 937.732421875 c 1
 117.040039062 957.030273438 l 2
 131.479492188 967.64453125 144.356445312 976.329101562 145.663085938 976.329101562 c 0
 146.970703125 976.329101562 148.830078125 945.407226562 151.548828125 838.907226562 c 0
 153.387695312 641.026367188 158.56640625 575.357421875 158.56640625 353.36328125 c 1
 107.680664062 321.012695312 l 2
275.655273438 958.473632812 m 1
 331.716796875 992.104492188 l 1
 385.19921875 971.18359375 l 2
 414.611328125 959.68359375 439.471679688 949.622070312 440.436523438 948.833007812 c 0
 441.401367188 948.051757812 435.875 941.078125 428.155273438 933.341796875 c 0
 414.26953125 919.4296875 413.681640625 919.227539062 372.014648438 913.797851562 c 0
 348.857421875 910.780273438 329.690429688 908.086914062 329.418945312 907.806640625 c 0
 329.155273438 907.525390625 317.690429688 718.61328125 303.9453125 488 c 0
 290.208007812 257.385742188 278.190429688 60.412109375 277.243164062 50.2802734375 c 0
 275.532226562 31.9912109375 275.331054688 31.71875 249.208007812 12.560546875 c 0
 234.734375 1.947265625 222.102539062 -6.7373046875 221.137695312 -6.7373046875 c 0
 220.263671875 -6.7373046875 219.5703125 165.127929688 219.5703125 733.649414062 c 0
 219.5703125 792.975585938 219.578125 856.62109375 219.59375 924.841796875 c 1
 275.655273438 958.473632812 l 1
EndSplineSet
EndChar

StartChar: one
Encoding: 49 49 12
Width: 601
GlyphClass: 2
Flags: MW
VStem: 161.964 108.541 332.348 57.791
LayerCount: 2
Fore
SplineSet
497.375976562 16.2451171875 m 2
 446.682617188 -4.03515625 l 1
 432.463867188 4.1484375 l 2
 424.638671875 8.6484375 398.928710938 23.7626953125 332.419921875 63.1572265625 c 1
 332.349609375 528.947265625 l 2
 332.348632812 536.06640625 332.34765625 543.150390625 332.34765625 550.194335938 c 0
 332.34765625 796.619140625 333.086914062 994.736328125 334.025390625 994.736328125 c 0
 334.990234375 994.736328125 347.62109375 986.051757812 362.094726562 975.438476562 c 0
 388.217773438 956.280273438 388.419921875 955.999023438 390.138671875 937.71875 c 0
 391.0859375 927.586914062 403.112304688 730.61328125 416.849609375 499.999023438 c 0
 430.5859375 269.385742188 442.051757812 80.4736328125 442.314453125 80.1923828125 c 0
 442.577148438 79.912109375 461.744140625 77.21875 527.0078125 68.71875 c 1
 541.04296875 54.1396484375 l 2
 548.76171875 46.1220703125 553.499023438 38.876953125 551.569335938 38.04296875 c 0
 549.638671875 37.2099609375 525.252929688 27.39453125 497.375976562 16.2451171875 c 2
214.419921875 29.525390625 m 1
 158.358398438 -4.10546875 l 1
 104.875976562 16.8154296875 l 2
 75.4638671875 28.3154296875 50.603515625 38.376953125 49.638671875 39.166015625 c 0
 48.673828125 39.947265625 54.2001953125 46.859375 61.919921875 54.525390625 c 0
 75.7001953125 68.2099609375 76.7265625 68.5693359375 118.981445312 74.578125 c 0
 155.360351562 79.7587890625 161.963867188 81.6474609375 161.963867188 86.8544921875 c 0
 161.963867188 90.666015625 172.961914062 277.59375 186.419921875 502.630859375 c 0
 199.90234375 727.938476562 211.744140625 922.1484375 214.551757812 956.139648438 c 1
 240.8671875 975.438476562 l 2
 255.340820312 986.051757812 267.97265625 994.736328125 268.9375 994.736328125 c 0
 269.811523438 994.736328125 270.504882812 822.87109375 270.504882812 254.349609375 c 0
 270.504882812 195.0234375 270.497070312 131.377929688 270.481445312 63.1572265625 c 1
 214.419921875 29.525390625 l 1
EndSplineSet
EndChar

StartChar: two
Encoding: 50 50 13
Width: 370
GlyphClass: 2
Flags: MW
VStem: 49.9998 105.618 57.4053 84.6572 68.584 59.0508 211.455 108.166 214.314 91.8945 217.174 62.0615
LayerCount: 2
Fore
SplineSet
262.340820312 942.684570312 m 2x10
 290.323242188 960.473632812 314.97265625 975.166992188 317.129882812 975.325195312 c 0
 319.805664062 975.526367188 320.594726562 967.026367188 319.62109375 948.420898438 c 0x10
 318.840820312 933.46484375 312.805664062 810.17578125 306.208984375 650 c 2x08
 286.077148438 320.526367188 l 2
 284.65625 300.263671875 282.541992188 263.947265625 279.235351562 195.96484375 c 1
 252.981445312 176.666992188 l 2
 238.541992188 166.052734375 225.665039062 157.368164062 224.358398438 157.368164062 c 0
 223.05078125 157.368164062 221.19140625 188.290039062 218.47265625 294.790039062 c 2
 217.173828125 434.561523438 l 1x04
 214.314453125 490.3515625 l 1x08
 212.744140625 609.03515625 211.455078125 736.587890625 211.455078125 910.333984375 c 1
 262.340820312 942.684570312 l 2x10
68.583984375 993.708984375 m 0x20
 68.689453125 994.08203125 68.98046875 994.290039062 69.513671875 994.290039062 c 0
 72.9755859375 994.290039062 86.6767578125 985.47265625 126.623046875 955.318359375 c 1
 127.634765625 899.3828125 l 2x20
 128.198242188 868.609375 134.686523438 675.162109375 142.0625 469.490234375 c 0x40
 149.4375 263.819335938 155.534179688 92.3955078125 155.618164062 88.55078125 c 0
 155.743164062 82.3447265625 160.376953125 80.87890625 196.98828125 75.51171875 c 0
 235.23046875 69.9111328125 239.1953125 68.58984375 251.704101562 57.232421875 c 0
 259.122070312 50.5087890625 265.146484375 43.4267578125 265.091796875 41.5029296875 c 0
 265.0390625 39.5791015625 240.755859375 29.3193359375 157.26171875 -0.595703125 c 1
 106.88671875 30.453125 l 2
 79.1806640625 47.533203125 54.4794921875 63.232421875 52.00390625 65.33984375 c 0
 50.7021484375 66.4462890625 49.9990234375 78.615234375 49.9990234375 110.772460938 c 0x80
 49.9990234375 168.530273438 52.2666015625 290.771484375 57.4052734375 529.211914062 c 0x40
 62.859375 782.23046875 67.8916015625 991.2578125 68.583984375 993.708984375 c 0x20
EndSplineSet
EndChar

StartChar: three
Encoding: 51 51 14
Width: 602
GlyphClass: 2
Flags: MW
VStem: 211.861 57.7909 331.495 108.541
LayerCount: 2
Fore
SplineSet
104.624023438 974.385742188 m 2
 155.317382812 994.666015625 l 1
 169.536132812 986.482421875 l 2
 177.361328125 981.982421875 203.071289062 966.868164062 269.580078125 927.473632812 c 1
 269.650390625 461.68359375 l 2
 269.651367188 454.564453125 269.65234375 447.48046875 269.65234375 440.436523438 c 0
 269.65234375 194.01171875 268.913085938 -4.10546875 267.974609375 -4.10546875 c 0
 267.009765625 -4.10546875 254.37890625 4.5791015625 239.905273438 15.1923828125 c 0
 213.782226562 34.3505859375 213.580078125 34.6318359375 211.861328125 52.912109375 c 0
 210.9140625 63.0439453125 198.887695312 260.017578125 185.150390625 490.631835938 c 0
 171.4140625 721.245117188 159.948242188 910.157226562 159.685546875 910.438476562 c 0
 159.422851562 910.71875 140.255859375 913.412109375 74.9921875 921.912109375 c 1
 60.95703125 936.491210938 l 2
 53.23828125 944.508789062 48.5009765625 951.75390625 50.4306640625 952.587890625 c 0
 52.361328125 953.420898438 76.7470703125 963.236328125 104.624023438 974.385742188 c 2
387.580078125 961.10546875 m 1
 443.642578125 994.735351562 l 1
 497.125 973.814453125 l 2
 526.537109375 962.314453125 551.397460938 952.252929688 552.362304688 951.463867188 c 0
 553.327148438 950.682617188 547.80078125 943.770507812 540.081054688 936.104492188 c 0
 526.30078125 922.419921875 525.274414062 922.060546875 483.01953125 916.051757812 c 0
 446.640625 910.87109375 440.037109375 908.983398438 440.037109375 903.776367188 c 0
 440.037109375 899.96484375 429.038085938 713.037109375 415.580078125 488 c 0
 402.09765625 262.692382812 390.255859375 68.482421875 387.448242188 34.4912109375 c 1
 361.1328125 15.1923828125 l 2
 346.659179688 4.5791015625 334.02734375 -4.10546875 333.0625 -4.10546875 c 0
 332.188476562 -4.10546875 331.495117188 167.759765625 331.495117188 736.28125 c 0
 331.495117188 795.607421875 331.502929688 859.252929688 331.518554688 927.473632812 c 1
 387.580078125 961.10546875 l 1
EndSplineSet
EndChar

StartChar: four
Encoding: 52 52 15
Width: 370
GlyphClass: 2
Flags: MW
VStem: 49.9998 105.618 57.4053 84.6572 68.584 58.0391 211.455 108.166 214.314 91.8945 217.174 62.0615
LayerCount: 2
Fore
SplineSet
262.340820312 51.0126953125 m 2x10
 211.455078125 83.36328125 l 1x10
 211.455078125 257.109375 212.744140625 384.662109375 214.314453125 503.345703125 c 1x08
 217.173828125 559.135742188 l 1
 218.47265625 698.907226562 l 2
 221.19140625 805.407226562 223.05078125 836.329101562 224.358398438 836.329101562 c 0
 225.665039062 836.329101562 238.541992188 827.64453125 252.981445312 817.030273438 c 2
 279.235351562 797.732421875 l 1x04
 282.541992188 729.75 284.65625 693.43359375 286.077148438 673.170898438 c 2
 306.208984375 343.697265625 l 2x08
 312.805664062 183.521484375 318.840820312 60.232421875 319.62109375 45.2763671875 c 0
 320.594726562 26.6708984375 319.805664062 18.1708984375 317.129882812 18.3720703125 c 0
 314.97265625 18.5302734375 290.323242188 33.2236328125 262.340820312 51.0126953125 c 2x10
68.583984375 -0.01171875 m 0x20
 67.8916015625 2.439453125 62.8583984375 211.46484375 57.404296875 464.483398438 c 0x40
 52.265625 702.923828125 49.998046875 825.165039062 49.998046875 882.922851562 c 0x80
 49.998046875 915.080078125 50.701171875 927.249023438 52.0029296875 928.35546875 c 0
 54.478515625 930.462890625 79.1796875 946.162109375 106.885742188 963.2421875 c 2
 157.260742188 994.291015625 l 1
 240.754882812 964.375976562 265.038085938 954.116210938 265.090820312 952.192382812 c 0
 265.145507812 950.268554688 259.12109375 943.186523438 251.703125 936.462890625 c 0
 239.194335938 925.10546875 235.229492188 923.784179688 196.987304688 918.18359375 c 0
 160.375976562 912.81640625 155.7421875 911.350585938 155.6171875 905.14453125 c 0
 155.533203125 901.299804688 149.436523438 729.875976562 142.061523438 524.205078125 c 0x40
 134.685546875 318.533203125 128.197265625 125.0859375 127.633789062 94.3125 c 2
 126.622070312 38.376953125 l 1
 86.67578125 8.22265625 72.974609375 -0.5947265625 69.5126953125 -0.5947265625 c 0
 68.9794921875 -0.5947265625 68.689453125 -0.384765625 68.583984375 -0.01171875 c 0x20
EndSplineSet
EndChar

StartChar: five
Encoding: 53 53 16
Width: 576
GlyphClass: 2
Flags: MW
HStem: -0.254883 80.538
VStem: 177.017 83.916 194.482 59.5186 308.024 89.2115 322.104 57.6924
LayerCount: 2
Fore
SplineSet
103.573242188 976.763671875 m 0xc0
 131.458007812 987.358398438 155.879882812 995.688476562 157.846679688 995.278320312 c 0
 159.822265625 994.858398438 185.442382812 979.569335938 268.169921875 928.083984375 c 1
 267.977539062 908.853515625 l 2
 267.873046875 898.276367188 264.69921875 704.745117188 260.931640625 478.783203125 c 0xc0
 257.15625 252.821289062 254.043945312 67.55078125 254 67.0693359375 c 0
 253.95703125 66.5888671875 232.680664062 51.248046875 206.71875 32.978515625 c 0
 180.756835938 14.7099609375 158.3359375 -0.2470703125 156.893554688 -0.2548828125 c 0
 155.451171875 -0.2724609375 132.243164062 7.734375 105.3203125 17.5244140625 c 0
 78.3974609375 27.3232421875 54.5595703125 36.37890625 52.357421875 37.6552734375 c 0
 51.8515625 37.9462890625 51.5546875 38.3955078125 51.5546875 39.1025390625 c 0
 51.5546875 42.0712890625 56.80078125 49.5771484375 73.8525390625 68.9228515625 c 1
 115.810546875 74.9716796875 l 2
 136.439453125 77.94921875 160.315429688 80.283203125 185.47265625 80.283203125 c 0
 188.458984375 80.283203125 191.462890625 80.25 194.482421875 80.181640625 c 1xa0
 194.420898438 96.7900390625 l 2
 194.385742188 105.924804688 186.553710938 292.76953125 177.016601562 512 c 0
 167.48046875 731.23046875 158.458984375 911.553710938 156.973632812 912.708007812 c 0
 155.487304688 913.870117188 136.177734375 917.3671875 114.0625 920.469726562 c 0
 75.2421875 925.93359375 73.3984375 926.580078125 60.75 939.342773438 c 0
 53.5380859375 946.615234375 48.8173828125 953.669921875 50.259765625 955.033203125 c 0
 51.693359375 956.387695312 75.6884765625 966.169921875 103.573242188 976.763671875 c 0xc0
361.83203125 963.6171875 m 0
 389.979492188 981.239257812 413.797851562 995.802734375 414.759765625 995.986328125 c 0
 415.721679688 996.161132812 440.896484375 987.384765625 470.704101562 976.475585938 c 0
 500.51171875 965.56640625 525.686523438 956.064453125 526.647460938 955.356445312 c 0
 527.609375 954.6484375 522.102539062 947.76953125 514.41015625 940.059570312 c 0
 500.73046875 926.361328125 499.549804688 925.93359375 460.21484375 920.435546875 c 0
 438.098632812 917.349609375 418.78125 913.870117188 417.294921875 912.708007812 c 0
 415.799804688 911.553710938 406.779296875 731.23046875 397.233398438 512 c 0x90
 387.697265625 292.76953125 379.873046875 105.924804688 379.794921875 80.181640625 c 1
 396.403320312 80.767578125 l 2
 396.913085938 80.78515625 397.478515625 80.7939453125 398.096679688 80.7939453125 c 0
 408.556640625 80.7939453125 434.020507812 78.26171875 456.717773438 74.9111328125 c 0
 500.336914062 68.4775390625 500.450195312 68.43359375 526.516601562 39.9716796875 c 1
 473.255859375 19.849609375 l 2
 443.97265625 8.7744140625 418.82421875 -0.2724609375 417.381835938 -0.2548828125 c 0
 415.939453125 -0.2470703125 393.912109375 14.5693359375 322.102539062 65.583984375 c 1x88
 319.454101562 143.686523438 l 2
 318.002929688 186.641601562 314.436523438 380.706054688 311.534179688 574.936523438 c 0
 309.349609375 721.59375 308.022460938 848.565429688 308.022460938 902.380859375 c 0x90
 308.022460938 919.837890625 308.162109375 929.596679688 308.458007812 929.83203125 c 0
 309.673828125 930.793945312 333.685546875 945.995117188 361.83203125 963.6171875 c 0
EndSplineSet
EndChar

StartChar: six
Encoding: 54 54 17
Width: 321
GlyphClass: 2
Flags: MW
HStem: -0.254883 80.4365
VStem: 59.8428 82.0195 64.9297 59.4932
LayerCount: 2
Fore
SplineSet
103.8203125 961.860351562 m 2xc0
 133.41796875 980.444335938 158.426757812 995.802734375 159.387695312 996.002929688 c 0
 160.349609375 996.204101562 184.737304688 987.611328125 213.583984375 976.912109375 c 0
 242.4296875 966.221679688 267.211914062 956.361328125 268.645507812 955.015625 c 0
 270.087890625 953.661132812 265.3671875 946.615234375 258.155273438 939.342773438 c 0
 245.506835938 926.580078125 243.662109375 925.93359375 204.842773438 920.469726562 c 0
 182.727539062 917.3671875 163.409179688 913.870117188 161.922851562 912.708007812 c 0
 160.428710938 911.553710938 151.407226562 731.23046875 141.862304688 512 c 0xc0
 132.325195312 292.76953125 124.501953125 105.924804688 124.422851562 80.181640625 c 1
 141.03125 80.767578125 l 2
 141.541015625 80.78515625 142.106445312 80.7939453125 142.724609375 80.7939453125 c 0
 153.184570312 80.7939453125 178.6484375 78.26171875 201.345703125 74.9111328125 c 0
 244.96484375 68.4775390625 245.079101562 68.43359375 271.145507812 39.9716796875 c 1
 217.884765625 19.849609375 l 2
 188.6015625 8.7744140625 163.453125 -0.2724609375 162.010742188 -0.2548828125 c 0
 160.568359375 -0.2470703125 138.146484375 14.7099609375 112.185546875 32.978515625 c 0
 86.2236328125 51.248046875 64.9560546875 66.5888671875 64.9296875 67.0693359375 c 0xa0
 64.904296875 67.55078125 62.61328125 204.044921875 59.8427734375 370.391601562 c 0
 57.0712890625 536.737304688 53.7236328125 730.26953125 50 928.083984375 c 1
 103.8203125 961.860351562 l 2xc0
EndSplineSet
EndChar

StartChar: seven
Encoding: 55 55 18
Width: 602
GlyphClass: 2
Flags: MW
VStem: 161.115 108.729<82.4912 86.0801> 331.423 55.3154 331.633 108.456
LayerCount: 2
Fore
SplineSet
387.694335938 962.052734375 m 1xa0
 443.755859375 995.68359375 l 1
 497.23828125 974.762695312 l 2
 526.650390625 963.262695312 551.510742188 953.201171875 552.475585938 952.412109375 c 0
 553.440429688 951.630859375 547.9140625 944.71875 540.194335938 937.052734375 c 0
 526.4140625 923.368164062 525.387695312 923.008789062 483.1328125 917 c 0
 444.501953125 911.5 440.106445312 910.157226562 440.088867188 903.859375 c 0xa0
 440.080078125 900 428.282226562 712.89453125 413.870117188 488.0703125 c 0
 399.458007812 263.245117188 387.255859375 79.1572265625 386.73828125 78.9912109375 c 0
 386.229492188 78.82421875 373.571289062 69.7451171875 331.422851562 38.947265625 c 1xc0
 331.6328125 928.420898438 l 1
 387.694335938 962.052734375 l 1xa0
241.01953125 920.359375 m 2
 255.905273438 931.359375 268.484375 940.438476562 268.966796875 940.53515625 c 0
 269.44921875 940.622070312 269.84375 743.333007812 269.84375 63.5087890625 c 1
 157.5625 -3.158203125 l 1
 105.80859375 16.595703125 l 2
 77.34375 27.4560546875 52.4755859375 37.71875 50.544921875 39.4033203125 c 0
 50.1982421875 39.7060546875 50 40.11328125 50 40.6708984375 c 0
 50 43.681640625 55.7744140625 51.0791015625 75.1064453125 70.1220703125 c 1
 118.115234375 74.7099609375 l 2
 151.985351562 78.3251953125 161.115234375 80.41796875 161.115234375 84.564453125 c 0
 161.115234375 87.595703125 172.111328125 262.802734375 185.5625 474.03515625 c 0
 199.01953125 685.350585938 210.905273438 867.71875 213.94921875 900.350585938 c 1
 241.01953125 920.359375 l 2
EndSplineSet
EndChar

StartChar: eight
Encoding: 56 56 19
Width: 321
GlyphClass: 2
Flags: MW
VStem: 50 109.123<48.333 62.3682> 61.0527 82.333
LayerCount: 2
Fore
SplineSet
70.412109375 926.385742188 m 0x40
 71.98046875 961.133789062 73.84375 977.624023438 76.21875 977.624023438 c 0
 78.1240234375 977.624023438 90.27734375 967.688476562 101.333007812 959.4296875 c 0
 112.912109375 950.771484375 123.552734375 942.762695312 124.982421875 941.623046875 c 0
 126.412109375 940.491210938 134.693359375 748.508789062 143.385742188 515 c 0x40
 152.087890625 281.491210938 159.184570312 84.123046875 159.123046875 62.3681640625 c 1
 203.25390625 55.3505859375 l 2
 245.736328125 48.5966796875 247.868164062 47.841796875 260.32421875 35.236328125 c 0
 267.438476562 28.03515625 272.473632812 21.359375 271.508789062 20.4033203125 c 0
 270.543945312 19.447265625 246.46484375 9.9384765625 218 -0.7109375 c 0
 189.53515625 -11.3681640625 164.666992188 -20.087890625 162.736328125 -20.087890625 c 0
 160.806640625 -20.087890625 134.649414062 -4.693359375 50 48.3330078125 c 1x80
 52.052734375 100.96484375 l 2
 53.1845703125 129.912109375 57.236328125 315.438476562 61.052734375 513.245117188 c 0
 64.8681640625 711.052734375 69.0791015625 896.96484375 70.412109375 926.385742188 c 0x40
EndSplineSet
EndChar

StartChar: nine
Encoding: 57 57 20
Width: 482
GlyphClass: 2
Flags: MW
HStem: 1.01367 82.168<158.741 163.304> 919.694 75.6659
VStem: 50 108.741<69.1963 83.1816> 61.0137 82.0635 214.23 109.65 226.644 82.4033
LayerCount: 2
Fore
SplineSet
70.3408203125 944.178710938 m 0xd0
 71.9033203125 978.805664062 73.759765625 995.237304688 76.126953125 995.237304688 c 0
 78.025390625 995.237304688 90.1357421875 985.336914062 101.154296875 977.106445312 c 0
 112.692382812 968.479492188 123.303710938 960.498046875 124.737304688 959.362304688 c 0
 126.170898438 958.234375 134.422851562 766.922851562 143.077148438 534.23046875 c 0xd0
 151.721679688 301.538085938 158.793945312 104.860351562 158.741210938 83.181640625 c 1
 202.71875 76.1884765625 l 2
 245.052734375 69.4580078125 247.176757812 68.7060546875 259.588867188 56.1455078125 c 0
 266.678710938 48.96875 271.6953125 42.31640625 270.734375 41.36328125 c 0
 269.772460938 40.4111328125 245.778320312 30.935546875 217.412109375 20.3232421875 c 0
 189.046875 9.703125 164.265625 1.013671875 162.342773438 1.013671875 c 0
 160.419921875 1.013671875 134.353515625 16.35546875 50 69.1962890625 c 1xe0
 52.0458984375 121.643554688 l 2
 53.1728515625 150.489257812 57.2119140625 335.3671875 61.013671875 532.482421875 c 0
 64.81640625 729.59765625 69.01171875 914.860351562 70.3408203125 944.178710938 c 0xd0
269.299804688 962.369140625 m 2
 299.522460938 981.454101562 324.817382812 995.360351562 329.220703125 995.360351562 c 0
 332.260742188 995.360351562 356.2421875 985.62109375 382.061523438 976.163085938 c 0
 408.0234375 966.65234375 430.444335938 957.736328125 431.877929688 956.346679688 c 0
 433.3203125 954.947265625 428.111328125 947.517578125 420.295898438 939.825195312 c 0
 406.502929688 926.241210938 404.928710938 925.6640625 365.235351562 919.694335938 c 0
 342.760742188 916.311523438 324.151367188 913.1640625 323.879882812 912.701171875 c 0xc8
 323.600585938 912.23828125 316.930664062 703.26953125 309.045898438 485 c 0
 301.161132812 266.73046875 293.521484375 250.201171875 289.404296875 188.3828125 c 1
 263.180664062 168.094726562 l 2
 248.7578125 156.940429688 236.51953125 148.138671875 235.995117188 148.540039062 c 0
 235.461914062 148.942382812 231.2578125 148.63671875 226.642578125 367.8671875 c 0xc4
 222.036132812 587.09765625 217.350585938 825.970703125 214.229492188 927.587890625 c 1xc8
 269.299804688 962.369140625 l 2
EndSplineSet
EndChar

StartChar: colon
Encoding: 58 58 21
Width: 263
GlyphClass: 2
Flags: MW
VStem: 47.3555 171.419
LayerCount: 2
Fore
SplineSet
213.774414062 731.366210938 m 0
 216.486328125 694.76171875 218.774414062 661.57421875 218.774414062 656.60546875 c 0
 218.774414062 648.793945312 214.020507812 645.094726562 139.301757812 593.461914062 c 0
 95.5361328125 563.213867188 58.6572265625 538.434570312 57.35546875 538.391601562 c 0
 56.0458984375 538.354492188 54.9873046875 539.413085938 55 540.747070312 c 0
 55.005859375 542.0859375 88.0615234375 600.416015625 128.45703125 670.368164062 c 0
 168.846679688 740.327148438 202.697265625 798.412109375 203.67578125 799.452148438 c 0
 204.654296875 800.4921875 206.2265625 800.4609375 207.168945312 799.385742188 c 0
 208.110351562 798.30859375 211.083984375 767.69921875 213.774414062 731.366210938 c 0
203.774414062 471.365234375 m 0
 206.486328125 434.760742188 208.774414062 401.573242188 208.774414062 396.604492188 c 0
 208.774414062 388.79296875 204.020507812 385.09375 129.301757812 333.4609375 c 0
 85.5361328125 303.212890625 48.6572265625 278.43359375 47.35546875 278.390625 c 0
 46.0458984375 278.353515625 44.9873046875 279.412109375 45 280.74609375 c 0
 45.005859375 282.084960938 78.0615234375 340.415039062 118.45703125 410.3671875 c 0
 158.846679688 480.326171875 192.697265625 538.411132812 193.67578125 539.451171875 c 0
 194.654296875 540.491210938 196.2265625 540.459960938 197.168945312 539.384765625 c 0
 198.110351562 538.307617188 201.083984375 507.698242188 203.774414062 471.365234375 c 0
EndSplineSet
EndChar

StartChar: semicolon
Encoding: 59 59 22
Width: 263
GlyphClass: 2
Flags: MW
VStem: 42.3555 181.419
LayerCount: 2
Fore
SplineSet
198.774414062 211.366210938 m 0
 201.486328125 174.76171875 203.774414062 141.57421875 203.774414062 136.60546875 c 0
 203.774414062 128.793945312 199.020507812 125.094726562 124.301757812 73.4619140625 c 0
 80.5361328125 43.2138671875 43.6572265625 18.4345703125 42.35546875 18.3916015625 c 0
 41.0458984375 18.3544921875 39.9873046875 19.4130859375 40 20.7470703125 c 0
 40.005859375 22.0859375 73.0615234375 80.416015625 113.45703125 150.368164062 c 0
 153.846679688 220.327148438 187.697265625 278.412109375 188.67578125 279.452148438 c 0
 189.654296875 280.4921875 191.2265625 280.4609375 192.168945312 279.385742188 c 0
 193.110351562 278.30859375 196.083984375 247.69921875 198.774414062 211.366210938 c 0
218.774414062 731.365234375 m 0
 221.486328125 694.760742188 223.774414062 661.573242188 223.774414062 656.604492188 c 0
 223.774414062 648.79296875 219.020507812 645.09375 144.301757812 593.4609375 c 0
 100.536132812 563.212890625 63.6572265625 538.43359375 62.35546875 538.390625 c 0
 61.0458984375 538.353515625 59.9873046875 539.412109375 60 540.74609375 c 0
 60.005859375 542.084960938 93.0615234375 600.415039062 133.45703125 670.3671875 c 0
 173.846679688 740.326171875 207.697265625 798.411132812 208.67578125 799.451171875 c 0
 209.654296875 800.491210938 211.2265625 800.459960938 212.168945312 799.384765625 c 0
 213.110351562 798.307617188 216.083984375 767.698242188 218.774414062 731.365234375 c 0
208.774414062 471.364257812 m 0
 211.486328125 434.759765625 213.774414062 401.572265625 213.774414062 396.603515625 c 0
 213.774414062 388.791992188 209.020507812 385.092773438 134.301757812 333.459960938 c 0
 90.5361328125 303.211914062 53.6572265625 278.432617188 52.35546875 278.389648438 c 0
 51.0458984375 278.352539062 49.9873046875 279.411132812 50 280.745117188 c 0
 50.005859375 282.083984375 83.0615234375 340.4140625 123.45703125 410.366210938 c 0
 163.846679688 480.325195312 197.697265625 538.41015625 198.67578125 539.450195312 c 0
 199.654296875 540.490234375 201.2265625 540.458984375 202.168945312 539.383789062 c 0
 203.110351562 538.306640625 206.083984375 507.697265625 208.774414062 471.364257812 c 0
EndSplineSet
EndChar

StartChar: question
Encoding: 63 63 23
Width: 474
GlyphClass: 2
Flags: MW
HStem: 924.786 71.3904
VStem: 194.167 66.0938 194.167 79.0391 310.866 113.974
LayerCount: 2
Fore
SplineSet
201.987304688 1.3330078125 m 0xd0
 201.080078125 2.8271484375 197.56640625 90.5234375 194.16796875 196.216796875 c 2
 187.984375 388.387695312 l 1
 326.213867188 719.348632812 l 1
 315.64453125 857.249023438 311.801757812 898.084960938 310.8671875 899.063476562 c 0
 309.923828125 900.04296875 267.272460938 906.71484375 216.081054688 913.89453125 c 0
 170.556640625 920.279296875 131.603515625 924.786132812 122.678710938 924.786132812 c 0
 121.567382812 924.786132812 120.921875 924.715820312 120.787109375 924.571289062 c 0
 119.568359375 923.262695312 115.564453125 910.3984375 111.890625 895.985351562 c 0
 105.252929688 869.953125 105.06640625 869.686523438 84.74609375 857.729492188 c 0
 73.4912109375 851.1015625 63.6513671875 846.083007812 62.869140625 846.573242188 c 0
 62.0947265625 847.0625 58.4912109375 875.149414062 54.861328125 908.993164062 c 0
 51.6416015625 939.065429688 50.0009765625 954.442382812 50.0009765625 962.483398438 c 0
 50.0009765625 970.83984375 51.7734375 971.2734375 55.38671875 972.043945312 c 0
 59.3017578125 972.889648438 116.151367188 979.268554688 181.721679688 986.225585938 c 0
 240.573242188 992.478515625 284.748046875 996.176757812 299.36328125 996.176757812 c 0
 302.383789062 996.176757812 304.141601562 996.018554688 304.505859375 995.692382812 c 0
 306.462890625 993.939453125 334.48828125 972.026367188 366.783203125 947 c 0
 411.16796875 912.602539062 424.840820312 900.248046875 424.840820312 894.383789062 c 0
 424.840820312 889.895507812 421.529296875 850.08203125 418.27734375 804.7578125 c 2
 412.405273438 722.907226562 l 1
 273.206054688 388.387695312 l 1xb0
 263.241210938 142.924804688 260.314453125 64.455078125 260.260742188 55.6474609375 c 0
 260.163085938 40.078125 259.504882812 39.1435546875 236.364257812 21.83984375 c 0
 223.27734375 12.052734375 210.5546875 2.8271484375 208.099609375 1.3330078125 c 0
 205.634765625 -0.162109375 202.885742188 -0.162109375 201.987304688 1.3330078125 c 0xd0
EndSplineSet
EndChar

StartChar: at
Encoding: 64 64 24
Width: 495
GlyphClass: 2
Flags: MW
VStem: 226.372 72.9507 240.507 55.8652
LayerCount: 2
Fore
SplineSet
266.73046875 975.96484375 m 2x40
 281.154296875 990.772460938 294.493164062 1002.08105469 296.372070312 1001.10253906 c 0x40
 298.229492188 1000.140625 299.323242188 933.92578125 299.323242188 660.869140625 c 0
 299.323242188 611.333984375 299.287109375 554.9921875 299.212890625 490.998046875 c 1
 246.58203125 312.67578125 l 2
 217.630859375 214.598632812 192.61328125 130.420898438 190.970703125 125.61328125 c 0
 189.08203125 120.053710938 189.440429688 114.739257812 191.966796875 110.998046875 c 0
 195.026367188 106.469726562 216.3203125 101.950195312 285.096679688 91.2158203125 c 0
 329.215820312 84.3349609375 366.91796875 79.4208984375 374.903320312 79.4208984375 c 0
 375.793945312 79.4208984375 376.314453125 79.482421875 376.43359375 79.6083984375 c 0
 377.630859375 80.8759765625 381.564453125 93.4990234375 385.174804688 107.659179688 c 0
 391.696289062 133.236328125 391.887695312 133.499023438 411.853515625 145.247070312 c 0
 422.911132812 151.758789062 432.579101562 156.689453125 433.338867188 156.208007812 c 0
 434.090820312 155.727539062 437.630859375 128.131835938 441.206054688 94.888671875 c 0
 444.375 65.3349609375 445.989257812 50.23046875 445.989257812 42.3330078125 c 0
 445.989257812 34.130859375 444.248046875 33.701171875 440.69921875 32.9306640625 c 0
 436.853515625 32.099609375 380.99609375 25.7890625 199.431640625 6.435546875 c 1
 90 116.873046875 l 1
 142.916015625 274.252929688 l 1
 142.680664062 274.330078125 142.444335938 274.407226562 142.20703125 274.485351562 c 2
 135.892578125 369.872070312 l 2
 132.430664062 422.337890625 128.951171875 467.200195312 128.16015625 469.5625 c 0
 127.37890625 471.92578125 124.037109375 473.858398438 120.729492188 473.849609375 c 0
 117.421875 473.849609375 101.571289062 465.962890625 85.505859375 456.333007812 c 0
 69.4404296875 446.702148438 54.75 438.591796875 52.859375 438.299804688 c 0
 50.9697265625 438.016601562 49.70703125 440.095703125 50.05859375 442.930664062 c 0
 50.4111328125 445.765625 70.9013671875 553.240234375 140.471679688 915.439453125 c 1
 159.612304688 954.262695312 l 2
 170.471679688 976.272460938 180.299804688 992.18359375 182.309570312 990.998046875 c 0
 184.501953125 989.71875 185.546875 892.547851562 185.546875 689.653320312 c 0
 185.546875 669.138671875 185.536132812 647.54296875 185.514648438 624.856445312 c 0
 185.418945312 526.732421875 185.245117188 453.328125 184.92578125 399.198242188 c 1
 226.372070312 522.467773438 l 1x80
 240.506835938 949.041015625 l 1
 266.73046875 975.96484375 l 2x40
EndSplineSet
EndChar

StartChar: A
Encoding: 65 65 25
Width: 405
GlyphClass: 2
Flags: MW
VStem: 250.257 105.188<2.11914 59.7705> 255.841 82.3535 262.988 56.2637
LayerCount: 2
Fore
SplineSet
159.612304688 954.263671875 m 2x00
 170.471679688 976.2734375 180.299804688 992.184570312 182.309570312 990.999023438 c 0
 184.501953125 989.719726562 185.546875 892.548828125 185.546875 689.654296875 c 0
 185.546875 669.138671875 185.536132812 647.54296875 185.514648438 624.856445312 c 0
 185.232421875 337.243164062 184.290039062 262.010742188 180.931640625 262.010742188 c 0
 178.697265625 262.010742188 168.59765625 265.845703125 142.20703125 274.486328125 c 1
 135.892578125 369.873046875 l 2
 132.430664062 422.338867188 128.951171875 467.201171875 128.16015625 469.563476562 c 0
 127.37890625 471.926757812 124.037109375 473.859375 120.729492188 473.850585938 c 0
 117.421875 473.850585938 101.571289062 465.963867188 85.505859375 456.333984375 c 0
 69.4404296875 446.703125 54.75 438.592773438 52.859375 438.30078125 c 0
 50.9697265625 438.017578125 49.70703125 440.096679688 50.05859375 442.931640625 c 0
 50.4111328125 445.766601562 70.9013671875 553.241210938 140.471679688 915.440429688 c 1
 159.612304688 954.263671875 l 2x00
262.98828125 968.03515625 m 0x20
 263.924804688 970.741210938 266.287109375 971.419921875 268.951171875 969.752929688 c 0
 271.381835938 968.232421875 283.701171875 959.254882812 296.34765625 949.8046875 c 0
 315.09765625 935.78515625 319.251953125 930.893554688 319.251953125 923.137695312 c 0x20
 319.251953125 917.141601562 327.760742188 714.899414062 338.194335938 473 c 0x40
 347.80859375 250.131835938 355.4453125 57.2138671875 355.4453125 4.431640625 c 0
 355.4453125 -0.193359375 355.38671875 -3.7421875 355.265625 -6.140625 c 1
 250.256835938 59.7705078125 l 1x80
 250.248046875 95.8525390625 l 2
 250.239257812 115.698242188 252.756835938 319.048828125 255.840820312 547.7421875 c 0x40
 258.924804688 776.436523438 262.137695312 965.569335938 262.98828125 968.03515625 c 0x20
EndSplineSet
EndChar

StartChar: B
Encoding: 66 66 26
Width: 416
GlyphClass: 2
Flags: MW
VStem: 148.378 94.7485 150.097 89.377 150.551 74.7829
LayerCount: 2
Fore
SplineSet
198.991210938 965.114257812 m 1x80
 253.595703125 998.782226562 l 1
 305.306640625 979.581054688 l 2
 333.745117188 969.028320312 358.595703125 959.001953125 360.525390625 957.317382812 c 0
 362.75390625 955.37890625 359.306640625 949.440429688 351.095703125 941.098632812 c 0
 338.657226562 928.458007812 336.560546875 927.703125 296.709960938 921.694335938 c 0
 273.911132812 918.247070312 254.47265625 914.563476562 253.5078125 913.493164062 c 0
 252.54296875 912.431640625 249.885742188 869.458007812 247.595703125 818.001953125 c 0
 245.233398438 764.696289062 243.125 720.166992188 243.125 712.151367188 c 0x80
 243.125 703.361328125 246.780273438 701.91796875 301.701171875 681.317382812 c 0
 334.051757812 669.176757812 362.419921875 658.125 364.727539062 656.755859375 c 0
 367.736328125 654.966796875 366.245117188 650.1328125 359.463867188 639.659179688 c 0
 351.955078125 628.072265625 346.376953125 623.905273438 332.455078125 619.528320312 c 0
 321.104492188 615.958007812 301.604492188 613.993164062 239.47265625 613.9140625 c 1x40
 237.61328125 577.94921875 l 2
 236.586914062 558.16796875 231.060546875 431.063476562 225.333007812 295.493164062 c 0x20
 219.604492188 159.922851562 214.911132812 46.6328125 214.911132812 43.73828125 c 0
 214.911132812 40.84375 202.280273438 29.001953125 186.841796875 17.4228515625 c 0
 171.673828125 6.046875 161.834960938 0.0615234375 158.392578125 0.0615234375 c 0
 157.717773438 0.0615234375 157.2890625 0.291015625 157.11328125 0.7548828125 c 0
 156.209960938 3.1669921875 131.736328125 100.272460938 102.727539062 216.544921875 c 0
 73.7275390625 332.81640625 49.9990234375 428.737304688 49.9990234375 429.702148438 c 0
 49.9990234375 430.666992188 51.578125 431.45703125 53.5078125 431.45703125 c 0
 55.4375 431.45703125 77.54296875 414.877929688 102.630859375 394.615234375 c 0
 127.71875 374.3515625 149.078125 358.166992188 150.095703125 358.649414062 c 0x40
 150.404296875 358.793945312 150.55078125 368.619140625 150.55078125 385.853515625 c 0x20
 150.55078125 425.991210938 149.758789062 506.314453125 148.377929688 598.123046875 c 0
 146.412109375 729.350585938 144.7109375 858.03515625 144.38671875 931.456054688 c 1
 198.991210938 965.114257812 l 1x80
EndSplineSet
EndChar

StartChar: C
Encoding: 67 67 27
Width: 412
GlyphClass: 2
Flags: MW
VStem: 57.6133 82.8389 62.9785 63.3475 304.538 53.5537
LayerCount: 2
Fore
SplineSet
104.372070312 963.935546875 m 1xa0
 158.745117188 997.357421875 l 1
 210.086914062 978.298828125 l 2
 238.327148438 967.819335938 262.99609375 957.87109375 264.912109375 956.19921875 c 0
 267.125 954.274414062 263.702148438 948.376953125 255.548828125 940.092773438 c 0
 243.196289062 927.540039062 241.114257812 926.791015625 201.541015625 920.82421875 c 0
 178.90234375 917.401367188 159.598632812 913.734375 158.640625 912.6796875 c 0
 157.682617188 911.6171875 149.502929688 728.612304688 140.452148438 505.999023438 c 0xa0
 132.25 304.033203125 126.326171875 134.58203125 126.326171875 103.99609375 c 0
 126.326171875 94.30078125 159.315429688 92.4921875 205.678710938 85.73828125 c 0
 247.838867188 79.5888671875 285.078125 73.900390625 288.431640625 73.0986328125 c 0
 293.048828125 71.9931640625 295.322265625 74.8154296875 297.778320312 84.7021484375 c 0
 299.572265625 91.888671875 302.604492188 104.040039062 304.538085938 111.705078125 c 0
 307.395507812 123.08984375 311.584960938 128.038085938 327.420898438 138.708984375 c 0
 338.075195312 145.895507812 347.969726562 151.783203125 349.408203125 151.783203125 c 0
 350.846679688 151.783203125 354.756835938 124.740234375 358.091796875 91.6787109375 c 0
 360.596679688 66.92578125 362.10546875 45.009765625 362.10546875 35.08203125 c 0
 362.10546875 31.751953125 361.935546875 29.7705078125 361.576171875 29.484375 c 0
 360.15625 28.3427734375 311.166992188 22.349609375 252.717773438 16.173828125 c 0
 194.267578125 9.9892578125 140.173828125 4.109375 118.571289062 1.2353515625 c 1
 91.541015625 35.564453125 l 2
 67.5517578125 66.025390625 64.337890625 71.853515625 62.978515625 87.3154296875 c 0x60
 62.1337890625 96.896484375 59.720703125 225.46875 57.61328125 373.029296875 c 0
 55.5048828125 520.58984375 52.935546875 706.391601562 50 930.520507812 c 1
 104.372070312 963.935546875 l 1xa0
EndSplineSet
EndChar

StartChar: D
Encoding: 68 68 28
Width: 471
GlyphClass: 2
Flags: MW
VStem: 50 106.64 64.958 80.9746<507 507> 82.9844 54.2158 208.413 105.666 213.045 82.9307 218.967 59.6035 335.062 59.2764
LayerCount: 2
Fore
SplineSet
262.958007812 953.62109375 m 2x12
 314.596679688 986.026367188 l 1
 330.200195312 980.12109375 l 2
 338.786132812 976.87109375 362.096679688 968.310546875 382.018554688 961.0859375 c 0
 401.932617188 953.87109375 419.518554688 947.069335938 421.096679688 945.982421875 c 0
 422.682617188 944.887695312 417.251953125 937.569335938 409.02734375 929.715820312 c 0
 394.415039062 915.75 393.200195312 915.310546875 354.423828125 909.776367188 c 0
 332.61328125 906.6640625 314.458007812 903.776367188 314.079101562 903.37109375 c 0x12
 313.700195312 902.95703125 305.553710938 718.741210938 295.975585938 494 c 0x0a
 286.40625 269.258789062 278.5703125 83.439453125 278.5703125 81.0693359375 c 0
 278.561523438 78.3447265625 287.1484375 75.62890625 301.837890625 73.689453125 c 0
 314.639648438 72 326.079101562 71.6123046875 327.259765625 72.828125 c 0
 328.44140625 74.04296875 331.950195312 85.896484375 335.061523438 99.1728515625 c 0
 340.700195312 123.25 340.768554688 123.344726562 363.087890625 137.965820312 c 0
 375.3984375 146.026367188 387.018554688 152.62109375 388.915039062 152.62109375 c 0
 390.85546875 152.62109375 393.225585938 137.215820312 394.337890625 117.276367188 c 0
 394.899414062 107.321289062 395.274414062 95.037109375 395.274414062 79.677734375 c 0
 395.274414062 65.044921875 394.93359375 47.62109375 394.087890625 26.7587890625 c 1
 125.11328125 -12.2587890625 l 1
 88.90625 20.6982421875 l 2
 66.2421875 41.3232421875 50 51.830078125 50 60.7041015625 c 0x86
 50 93.3447265625 56.294921875 282.274414062 64.9580078125 507.79296875 c 0x42
 74.466796875 755.29296875 82.5791015625 958.25 82.984375 958.801757812 c 0
 83.3984375 959.362304688 95.759765625 950.439453125 110.458007812 938.974609375 c 0
 125.15625 927.517578125 137.19140625 917.75 137.200195312 917.276367188 c 0x22
 137.216796875 916.801757812 141.139648438 732.534179688 145.932617188 507.79296875 c 0x42
 150.716796875 283.051757812 155.536132812 98.396484375 156.639648438 97.4482421875 c 0
 157.743164062 96.5 172.053710938 93.7841796875 188.432617188 91.4228515625 c 0
 204.811523438 89.0517578125 218.553710938 87.5 218.966796875 87.974609375 c 0x86
 219.372070312 88.439453125 216.708007812 275.034179688 213.044921875 502.62109375 c 0x0a
 210.189453125 679.997070312 208.413085938 832.892578125 208.413085938 892.3515625 c 0
 208.413085938 909.182617188 208.555664062 918.526367188 208.85546875 918.819335938 c 0
 210.208007812 920.137695312 234.553710938 935.801757812 262.958007812 953.62109375 c 2x12
EndSplineSet
EndChar

StartChar: E
Encoding: 69 69 29
Width: 440
GlyphClass: 2
Flags: MW
HStem: 913.201 82
VStem: 171.505 108.882 180.563 81.1875 185.897 57.6396
LayerCount: 2
Fore
SplineSet
224.322265625 961.5546875 m 0xc0
 253.349609375 979.876953125 279.5390625 995.201171875 282.51171875 995.201171875 c 0
 285.817382812 995.201171875 310.950195312 986.787109375 338.767578125 976.37890625 c 0
 366.848632812 965.859375 390.24609375 955.920898438 390.756835938 954.30078125 c 0
 391.276367188 952.681640625 385.73046875 945.5859375 378.432617188 938.543945312 c 0
 365.756835938 926.30859375 363.30078125 925.471679688 322.913085938 919.758789062 c 0
 299.673828125 916.466796875 280.537109375 913.517578125 280.38671875 913.201171875 c 0xc0
 280.237304688 912.883789062 271.848632812 716.140625 261.750976562 476 c 0xa0
 251.69921875 237.135742188 243.537109375 40.294921875 243.537109375 36.779296875 c 0
 243.537109375 35.2333984375 231.096679688 24.6552734375 215.518554688 12.9716796875 c 0
 200.568359375 1.7607421875 190.426757812 -4.4033203125 187.060546875 -4.4033203125 c 0
 186.43359375 -4.4033203125 186.041015625 -4.189453125 185.897460938 -3.75390625 c 0x90
 185.10546875 -1.3330078125 182.702148438 136.915039062 180.563476562 303.46484375 c 0xa0
 178.423828125 470.013671875 175.509765625 656.58984375 171.504882812 829.890625 c 1
 139.814453125 829.846679688 l 2
 117.19140625 829.8203125 102.077148438 831.853515625 86.998046875 836.951171875 c 0
 70.6953125 842.4609375 64.0576171875 846.888671875 57.9482421875 856.352539062 c 0
 53.59375 863.08203125 50 869.796875 50 871.247070312 c 0
 50 872.706054688 77.6865234375 884.190429688 111.540039062 896.774414062 c 0
 148.11328125 910.366210938 172.321289062 921.161132812 172.321289062 923.85546875 c 0
 172.321289062 926.465820312 194.911132812 942.981445312 224.322265625 961.5546875 c 0xc0
EndSplineSet
EndChar

StartChar: F
Encoding: 70 70 30
Width: 543
GlyphClass: 2
Flags: MW
HStem: 913.317 88.6611
VStem: 133.009 111.462 161.661 57.4199
LayerCount: 2
Fore
SplineSet
173.318359375 965.631835938 m 2xc0
 195.490234375 985.578125 214.826171875 1001.93457031 216.288085938 1001.97851562 c 0
 217.750976562 1002.01464844 275.99609375 993.247070312 345.73046875 982.493164062 c 0
 415.455078125 971.73046875 477.290039062 961.952148438 493.779296875 958.57421875 c 1
 490.916015625 896.092773438 l 2
 489.337890625 861.73046875 486.944335938 832.404296875 485.596679688 830.923828125 c 0
 485.469726562 830.786132812 485.24609375 830.711914062 484.915039062 830.711914062 c 0
 481.708007812 830.711914062 468.362304688 837.583984375 433.49609375 859.612304688 c 1
 427.290039062 886.508789062 l 2
 422.450195312 907.466796875 419.7109375 913.379882812 414.87890625 913.317382812 c 0
 411.465820312 913.2734375 371.970703125 907.6796875 327.104492188 900.888671875 c 0
 282.24609375 894.09765625 245.065429688 888.149414062 244.470703125 887.669921875 c 0xc0
 243.876953125 887.19140625 237.955078125 703.291015625 231.306640625 479 c 0
 224.657226562 254.708984375 219.161132812 65.21484375 219.081054688 57.900390625 c 0
 218.95703125 45.560546875 216.970703125 43.078125 191.465820312 23.3525390625 c 0
 174.911132812 10.546875 168.26171875 5.5888671875 165.049804688 5.5888671875 c 0
 163.181640625 5.5888671875 162.4765625 7.2666015625 161.661132812 10.0546875 c 0xa0
 160.384765625 14.42578125 157.538085938 92.208984375 151.315429688 347.794921875 c 1
 99.568359375 555.241210938 l 2
 71.8505859375 666.337890625 50 760.413085938 50 768.43359375 c 0
 50 769.627929688 50.861328125 770.358398438 51.93359375 770.358398438 c 0
 56.9619140625 770.358398438 74.333984375 757.255859375 142.11328125 702.404296875 c 1
 139.887695312 720.134765625 l 2
 138.655273438 729.88671875 136.616210938 780.950195312 133.008789062 929.354492188 c 1
 173.318359375 965.631835938 l 2xc0
EndSplineSet
EndChar

StartChar: G
Encoding: 71 71 31
Width: 482
GlyphClass: 2
Flags: MW
HStem: 5.34375 95.7441
VStem: 225.562 70.3506<481.895 524> 225.729 57.6572
LayerCount: 2
Fore
SplineSet
225.728515625 742.543945312 m 2xa0
 225.875976562 971.588867188 226.234375 1000.12597656 230.87890625 1000.12597656 c 0
 231.178710938 1000.12597656 231.49609375 1000.00683594 231.833007812 999.815429688 c 0
 235.10546875 997.956054688 248.03515625 986 283.385742188 950.079101562 c 1xa0
 295.912109375 524 l 1
 432.359375 113.473632812 l 1
 382.623046875 62.5966796875 l 2
 355.272460938 34.6142578125 331.228515625 9.6669921875 329.193359375 7.158203125 c 0
 328.244140625 5.9873046875 325.254882812 5.34375 318.469726562 5.34375 c 0
 303.743164062 5.34375 271.134765625 8.376953125 202.684570312 15.6494140625 c 0
 135.140625 22.82421875 78.8251953125 29.6142578125 77.53515625 30.736328125 c 0
 76.24609375 31.8505859375 78.1669921875 59.6142578125 81.7900390625 92.4208984375 c 0
 85.412109375 125.227539062 89.228515625 152.46484375 90.2724609375 152.947265625 c 0
 91.3076171875 153.4296875 101.149414062 147.903320312 112.131835938 140.666992188 c 0
 131.728515625 127.762695312 132.237304688 127.008789062 138.728515625 101.193359375 c 0
 142.359375 86.71875 145.614257812 74.587890625 145.938476562 74.236328125 c 0
 146.272460938 73.876953125 186.017578125 79.75390625 234.263671875 87.2890625 c 0
 282.508789062 94.82421875 323.17578125 101.03515625 324.623046875 101.087890625 c 0
 325.686523438 101.1328125 331.12109375 105.760742188 331.12109375 110.419921875 c 0
 331.12109375 122.396484375 314.515625 181.84375 225.561523438 481.89453125 c 1xc0
 225.728515625 742.543945312 l 2xa0
51.8076171875 494.17578125 m 0
 52.7724609375 494.17578125 80.5703125 473.25390625 113.587890625 447.684570312 c 0
 164.287109375 408.416015625 172.197265625 401.872070312 172.197265625 393.934570312 c 0
 172.197265625 392.895507812 172.061523438 391.831054688 171.868164062 390.666992188 c 0
 170.903320312 384.876953125 164.81640625 340.262695312 158.333007812 291.517578125 c 0
 151.850585938 242.780273438 145.140625 203.306640625 143.420898438 203.797851562 c 0
 141.702148438 204.297851562 119.973632812 268.649414062 95.123046875 346.806640625 c 0
 70.2978515625 424.9140625 50 490.01171875 50 491.541015625 c 0
 50 492.989257812 50.8603515625 494.17578125 51.8076171875 494.17578125 c 0
EndSplineSet
EndChar

StartChar: H
Encoding: 72 72 32
Width: 458
GlyphClass: 2
Flags: MW
HStem: 913.778 82.0264
VStem: 50 108.803 57.333 82.8604 64.375 57.6842 326.32 69.6836 326.417 82.1396 339.164 43.1338
LayerCount: 2
Fore
SplineSet
102.817382812 962.483398438 m 2xc0
 131.846679688 980.650390625 158.03125 995.805664062 160.995117188 995.805664062 c 0
 164.259765625 995.805664062 189.416015625 987.375976562 217.252929688 976.95703125 c 0
 245.333984375 966.4375 268.740234375 956.499023438 269.250976562 954.87890625 c 0
 269.770507812 953.259765625 264.224609375 946.1640625 256.926757812 939.122070312 c 0
 244.250976562 926.88671875 241.794921875 926.049804688 201.407226562 920.336914062 c 0
 178.16796875 917.044921875 158.995117188 914.095703125 158.801757812 913.779296875 c 0xc0
 158.599609375 913.461914062 150.227539062 719.095703125 140.192382812 481.859375 c 0xa0
 130.186523438 245.513671875 122.05859375 48.4404296875 122.05859375 42.6572265625 c 0
 122.05859375 36.6767578125 114.946289062 29.2470703125 94.013671875 13.5498046875 c 0
 79.0390625 2.318359375 68.9208984375 -3.8310546875 65.5478515625 -3.8310546875 c 0
 64.916015625 -3.8310546875 64.5205078125 -3.615234375 64.375 -3.1767578125 c 0x90
 63.5654296875 -0.755859375 60.396484375 186.612304688 57.3330078125 413.197265625 c 0xa0
 54.26953125 639.78125 51.373046875 848.627929688 50 929.438476562 c 1
 102.817382812 962.483398438 l 2xc0
176.743164062 711.939453125 m 0
 175.607421875 716.12890625 176.619140625 717.994140625 179.59375 717.219726562 c 0
 182.12890625 716.559570312 209.805664062 696.20703125 241.099609375 672 c 0
 280.306640625 641.665039062 298.142578125 625.8125 298.142578125 620.85546875 c 0
 298.142578125 616.44140625 292.662109375 572.34765625 285.879882812 522.352539062 c 0
 279.057617188 472.000976562 272.702148438 430.01171875 271.76953125 429.04296875 c 0
 270.8359375 428.07421875 268.890625 428.6640625 267.438476562 430.354492188 c 0
 265.986328125 432.044921875 245.37890625 494.6328125 221.646484375 569.439453125 c 0
 197.922851562 644.245117188 177.7109375 708.374023438 176.743164062 711.939453125 c 0
339.163085938 703.689453125 m 0x82
 339.366210938 704.359375 339.743164062 704.76171875 340.428710938 704.76171875 c 0
 343.568359375 704.76171875 353.185546875 696.334960938 382.296875 666.717773438 c 1x82
 396.002929688 339.252929688 l 2x88
 403.538085938 159.147460938 409.189453125 10.599609375 408.555664062 9.1474609375 c 0
 407.921875 7.6953125 389.180664062 21.5595703125 326.416015625 73.408203125 c 1x84
 326.319335938 109.5 l 2x88
 326.275390625 129.349609375 328.784179688 269.974609375 331.900390625 422 c 0
 335.016601562 574.024414062 338.291015625 700.78515625 339.163085938 703.689453125 c 0x82
EndSplineSet
EndChar

StartChar: I
Encoding: 73 73 33
Width: 457
GlyphClass: 2
Flags: MW
VStem: 213.763 108.166 216.622 91.8945 220.78 60.7627
LayerCount: 2
Fore
SplineSet
264.6484375 962.684570312 m 2x80
 292.630859375 980.473632812 317.280273438 995.166992188 319.4375 995.325195312 c 0
 322.11328125 995.526367188 322.90234375 987.026367188 321.928710938 968.420898438 c 0x80
 321.1484375 953.46484375 315.11328125 810.17578125 308.516601562 650 c 0x40
 301.928710938 489.825195312 295.6484375 346.140625 292.604492188 302.631835938 c 1
 314.586914062 296.114257812 l 2
 326.68359375 292.526367188 348.815429688 285.81640625 363.771484375 281.202148438 c 0
 387.54296875 273.860351562 392.174804688 271.03515625 400.61328125 258.719726562 c 0
 405.919921875 250.973632812 408.919921875 243.473632812 407.280273438 242.052734375 c 0
 405.639648438 240.631835938 378.797851562 230 290.963867188 197.368164062 c 1
 288.384765625 160.526367188 l 2
 286.963867188 140.263671875 284.849609375 103.947265625 281.54296875 35.96484375 c 1
 255.2890625 16.6669921875 l 2
 240.849609375 6.052734375 227.97265625 -2.6318359375 226.666015625 -2.6318359375 c 0
 225.358398438 -2.6318359375 223.499023438 28.2900390625 220.780273438 134.790039062 c 1x20
 136.569335938 73.74609375 l 2
 91.5859375 41.1318359375 53.6005859375 15.494140625 50.337890625 15.494140625 c 0
 48.4912109375 15.494140625 53.947265625 39.3203125 73.4111328125 106.860351562 c 1
 219.481445312 274.561523438 l 1
 216.622070312 490.3515625 l 2x40
 215.051757812 609.03515625 213.762695312 756.587890625 213.762695312 930.333984375 c 1
 264.6484375 962.684570312 l 2x80
EndSplineSet
EndChar

StartChar: J
Encoding: 74 74 34
Width: 321
GlyphClass: 2
Flags: MW
HStem: 917.912 82.0693
VStem: 50 111.004 59.542 82.8965 64.6484 59.9447
LayerCount: 2
Fore
SplineSet
103.978515625 965.587890625 m 2xc0
 133.661132812 984.393554688 160.354492188 999.981445312 163.303710938 999.981445312 c 0
 166.463867188 999.981445312 191.676757812 991.5 219.5859375 981.0546875 c 0
 247.666992188 970.53515625 271.065429688 960.596679688 271.584960938 958.9765625 c 0
 272.094726562 957.357421875 266.549804688 950.340820312 259.260742188 943.38671875 c 0
 246.672851562 931.388671875 243.8203125 930.4296875 203.741210938 924.627929688 c 0
 180.501953125 921.274414062 161.267578125 918.24609375 161.00390625 917.912109375 c 0xc0
 160.739257812 917.568359375 152.385742188 726.362304688 142.438476562 493 c 0xa0
 132.572265625 261.52734375 124.59375 65.5654296875 124.59375 54.8447265625 c 0
 124.59375 40.9921875 123.958984375 39.873046875 98.265625 20.2880859375 c 0
 83.6533203125 9.1533203125 70.10546875 0.0419921875 68.1689453125 0.0419921875 c 0
 66.0478515625 0.0419921875 64.6484375 15.0068359375 64.6484375 37.89453125 c 0x90
 64.6484375 58.712890625 62.3505859375 231.028320312 59.5419921875 420.81640625 c 0xa0
 56.734375 610.60546875 53.4423828125 803.123046875 50 931.379882812 c 1
 103.978515625 965.587890625 l 2xc0
EndSplineSet
EndChar

StartChar: K
Encoding: 75 75 35
Width: 457
GlyphClass: 2
Flags: MW
HStem: 774.689 20G 920.236 81.9917
VStem: 187.447 110.079 193.935 91.9717
LayerCount: 2
Fore
SplineSet
240.87109375 969.047851562 m 2xe0
 270.225585938 987.116210938 296.686523438 1002.23046875 299.658203125 1002.23046875 c 0
 302.96484375 1002.23046875 328.09765625 993.82421875 355.905273438 983.416015625 c 0
 383.986328125 972.896484375 407.384765625 962.958007812 407.904296875 961.337890625 c 0
 408.422851562 959.71875 402.877929688 952.623046875 395.580078125 945.581054688 c 0
 382.904296875 933.345703125 380.439453125 932.508789062 340.060546875 926.795898438 c 0
 316.821289062 923.50390625 297.674804688 920.5546875 297.525390625 920.23828125 c 0xe0
 297.3671875 919.920898438 292.137695312 796.065429688 285.905273438 645.008789062 c 0
 279.6640625 493.952148438 275.04296875 370.026367188 275.624023438 369.622070312 c 0
 276.205078125 369.216796875 298.86328125 387.006835938 325.9765625 409.155273438 c 0
 353.088867188 431.311523438 376.459960938 449.462890625 377.913085938 449.506835938 c 0
 379.365234375 449.55078125 380.553710938 448.001953125 380.553710938 446.065429688 c 0
 380.553710938 444.12890625 354.330078125 355 322.288085938 248.001953125 c 0
 290.236328125 141.00390625 263.299804688 50.6865234375 262.428710938 47.2978515625 c 0
 261.547851562 43.908203125 248.159179688 31.62890625 232.666015625 20.0087890625 c 0
 217.333007812 8.51171875 207.569335938 2.5673828125 204.080078125 2.5673828125 c 0
 203.3828125 2.5673828125 202.936523438 2.8046875 202.74609375 3.2822265625 c 0
 201.787109375 5.703125 200.598632812 52.0498046875 199.216796875 204.8671875 c 1
 148.151367188 206.944335938 l 2
 118.344726562 208.159179688 91.3994140625 211.090820312 83.3974609375 213.987304688 c 0
 74.638671875 217.165039062 66.14453125 224.03125 50 247.12109375 c 1
 114.040039062 271.196289062 l 2
 149.26953125 284.435546875 182.482421875 296.319335938 197.614257812 299.9375 c 1
 197.456054688 368.599609375 l 1
 156.07421875 368.564453125 l 2
 155.904296875 368.564453125 155.734375 368.564453125 155.564453125 368.564453125 c 0
 124.069335938 368.564453125 109.547851562 370.1953125 92.693359375 375.606445312 c 0
 74.6123046875 381.424804688 68.9609375 385.209960938 61.00390625 396.821289062 c 0
 55.677734375 404.594726562 52.1123046875 411.63671875 53.0810546875 412.47265625 c 0
 54.048828125 413.299804688 79.4013671875 423.397460938 109.418945312 434.911132812 c 0
 139.436523438 446.416015625 170.73046875 457.595703125 193.934570312 463.669921875 c 1xd0
 193.802734375 567.54296875 l 1
 79.4892578125 699.198242188 l 1
 66.2236328125 746.046875 l 2
 59.09765625 771.205078125 53.4619140625 794.690429688 54.7490234375 794.690429688 c 0
 56.9091796875 794.690429688 84.9365234375 775.225585938 118.125 750.641601562 c 0
 152.12109375 725.465820312 182.684570312 702.95703125 186.056640625 700.615234375 c 0
 186.616210938 700.225585938 187.124023438 699.932617188 187.580078125 699.932617188 c 0
 189.66015625 699.932617188 190.666015625 706.032226562 190.666015625 736.909179688 c 0
 190.666015625 769.173828125 189.567382812 828.493164062 187.447265625 936.177734375 c 1
 240.87109375 969.047851562 l 2xe0
EndSplineSet
EndChar

StartChar: L
Encoding: 76 76 36
Width: 510
GlyphClass: 2
Flags: MW
VStem: 178.823 111.023<8.42578 64.8076> 195.76 87.7627<418.693 447.316> 204.398 74.1416<677.372 725.711>
LayerCount: 2
Fore
SplineSet
235.934570312 31.3603515625 m 2x80
 206.286132812 12.96484375 180.85546875 -0.96484375 179.434570312 0.412109375 c 0
 179.05078125 0.78125 178.823242188 4.3837890625 178.823242188 12.4677734375 c 0x80
 178.823242188 34.33203125 180.48828125 88.982421875 185.233398438 201.149414062 c 1
 146.63671875 201.193359375 l 2
 119.750976562 201.228515625 102.259765625 203.087890625 88.9873046875 207.333984375 c 0
 74.20703125 212.061523438 67.6982421875 216.5703125 59.943359375 227.46484375 c 0
 54.443359375 235.184570312 49.978515625 242.290039062 50.0224609375 243.254882812 c 0
 50.06640625 244.219726562 79.7158203125 255.860351562 115.908203125 269.114257812 c 0
 152.110351562 282.377929688 183.698242188 293.825195312 186.110351562 294.552734375 c 0
 189.145507812 295.473632812 190.49609375 304.552734375 190.49609375 352.026367188 c 1
 147.513671875 352.298828125 l 2
 116.127929688 352.5 99.8037109375 354.228515625 86.9873046875 358.728515625 c 0
 74.0927734375 363.24609375 66.654296875 368.737304688 58.9169921875 379.447265625 c 0
 53.1279296875 387.46484375 49.1806640625 394.561523438 50.1455078125 395.228515625 c 0
 51.1103515625 395.88671875 77.9521484375 406.061523438 109.794921875 417.842773438 c 0
 141.63671875 429.614257812 174.004882812 441.061523438 195.759765625 447.31640625 c 1x40
 200.680664062 567.219726562 l 2
 202.922851562 621.959960938 204.3984375 669.530273438 204.3984375 685.213867188 c 0
 204.3984375 688.421875 204.336914062 690.294921875 204.20703125 690.623046875 c 0
 203.443359375 692.552734375 180.180664062 702.81640625 152.522460938 713.4296875 c 0
 104.689453125 731.78125 101.759765625 733.46484375 92.8466796875 747.74609375 c 0
 87.6982421875 756.008789062 84.2685546875 763.46484375 85.2333984375 764.31640625 c 0
 86.1982421875 765.158203125 112.250976562 773.123046875 143.127929688 782.008789062 c 0
 174.004882812 790.89453125 201.864257812 800.026367188 205.03125 802.290039062 c 0
 209.829101562 805.728515625 211.416992188 818.869140625 214.619140625 881.8515625 c 0
 217.952148438 947.491210938 219.250976562 957.81640625 224.645507812 961.369140625 c 0
 228.057617188 963.60546875 240.329101562 972.587890625 272.9609375 997.184570312 c 1
 275.6015625 928.114257812 l 2
 277.057617188 890.123046875 278.63671875 858.623046875 279.110351562 858.114257812 c 0
 279.583984375 857.596679688 318.663085938 881.114257812 365.943359375 910.377929688 c 0
 413.224609375 939.631835938 453.881835938 964.131835938 456.294921875 964.81640625 c 0
 458.70703125 965.5 460.680664062 964.482421875 460.680664062 962.552734375 c 0
 460.680664062 960.623046875 453.627929688 939.702148438 429.337890625 873.079101562 c 1
 278.540039062 725.7109375 l 1x20
 283.522460938 418.693359375 l 2x40
 286.259765625 249.833984375 288.803710938 101.131835938 289.846679688 64.8076171875 c 1
 235.934570312 31.3603515625 l 2x80
EndSplineSet
EndChar

StartChar: M
Encoding: 77 77 37
Width: 479
GlyphClass: 2
Flags: MW
HStem: 0.805664 80.5889<301.711 322.413> 916.745 81.6338
VStem: 213.082 107.517 218.012 84.1748 227.607 56.9307
LayerCount: 2
Fore
SplineSet
268.642578125 967.973632812 m 0xe0
 306.545898438 991.694335938 318.4453125 998.37890625 325.8046875 998.37890625 c 0
 327.353515625 998.37890625 328.700195312 998.083007812 330.046875 997.587890625 c 0
 334.923828125 995.797851562 357.862304688 987.236328125 381.020507812 978.5703125 c 0
 404.177734375 969.903320312 425.107421875 961.75390625 427.529296875 960.46484375 c 0
 430.555664062 958.859375 427.248046875 953.561523438 417.002929688 943.614257812 c 0
 402.388671875 929.412109375 401.212890625 928.973632812 361.721679688 923.2890625 c 0
 339.529296875 920.087890625 321.020507812 917.140625 320.598632812 916.745117188 c 0xe0
 320.168945312 916.341796875 311.888671875 732.859375 302.186523438 509 c 0xd0
 292.485351562 285.140625 284.546875 96.8505859375 284.538085938 90.5791015625 c 0
 284.529296875 79.39453125 284.774414062 79.2109375 297.686523438 81.1318359375 c 0
 298.880859375 81.3095703125 300.618164062 81.39453125 302.8046875 81.39453125 c 0
 313.875976562 81.39453125 336.45703125 79.21875 358.212890625 75.9296875 c 0
 404.51171875 68.9208984375 405.879882812 68.46484375 418.739257812 55.5439453125 c 0
 425.967773438 48.2802734375 430.704101562 41.2197265625 429.265625 39.8505859375 c 0
 427.818359375 38.4912109375 403.344726562 28.623046875 374.879882812 17.9208984375 c 0
 348.635742188 8.0615234375 325.11328125 0.8056640625 319.711914062 0.8056640625 c 0
 319.254882812 0.8056640625 318.927734375 0.8583984375 318.739257812 0.96484375 c 0
 316.327148438 2.341796875 295.40625 16.7890625 272.248046875 33.0791015625 c 0
 249.08984375 49.3681640625 229.002929688 63.640625 227.607421875 64.7978515625 c 0xc8
 226.212890625 65.947265625 221.897460938 261.10546875 218.01171875 498.473632812 c 0xd0
 214.977539062 684.198242188 213.08203125 844.1953125 213.08203125 905.6875 c 0
 213.08203125 922.786132812 213.228515625 932.268554688 213.538085938 932.5703125 c 0
 214.950195312 933.956054688 239.748046875 949.885742188 268.642578125 967.973632812 c 0xe0
55.248046875 719.903320312 m 0
 57.8359375 718.727539062 84.677734375 698.4296875 114.888671875 674.7890625 c 0
 145.08984375 651.149414062 170.318359375 630.227539062 170.932617188 628.297851562 c 0
 170.965820312 628.1953125 170.982421875 627.974609375 170.982421875 627.637695312 c 0
 170.982421875 621.62109375 165.797851562 578.916992188 158.994140625 529.043945312 c 0
 151.809570312 476.376953125 144.353515625 433.271484375 142.423828125 433.245117188 c 0
 140.494140625 433.219726562 118.791992188 496.833007812 94.1953125 574.60546875 c 0
 69.7763671875 651.825195312 50 716.430664062 50 718.98046875 c 0
 50 720.7421875 52.81640625 720.99609375 55.248046875 719.903320312 c 0
EndSplineSet
EndChar

StartChar: N
Encoding: 78 78 38
Width: 483
GlyphClass: 2
Flags: MW
HStem: 917.673 82.0693
VStem: 211.954 110.484 221.021 82.8516 228.02 57.7988
LayerCount: 2
Fore
SplineSet
265.651367188 966.228515625 m 2xc0
 295.17578125 984.55078125 321.737304688 999.7421875 324.686523438 999.7421875 c 0
 327.845703125 999.7421875 353.059570312 991.260742188 380.96875 980.815429688 c 0
 409.049804688 970.295898438 432.447265625 960.357421875 432.966796875 958.737304688 c 0
 433.486328125 957.118164062 427.940429688 950.1015625 420.642578125 943.147460938 c 0
 408.063476562 931.149414062 405.202148438 930.190429688 365.123046875 924.388671875 c 0
 341.883789062 921.03515625 322.67578125 918.006835938 322.438476562 917.672851562 c 0xc0
 322.192382812 917.329101562 313.837890625 725.331054688 303.873046875 491 c 0xa0
 293.926757812 257.299804688 285.818359375 60.06640625 285.818359375 51.8017578125 c 0
 285.818359375 39.2646484375 284.311523438 37.3515625 257.728515625 17.408203125 c 0
 242.6640625 6.1083984375 232.6328125 0.0146484375 229.23046875 0.0146484375 c 0
 228.583007812 0.0146484375 228.17578125 0.2353515625 228.01953125 0.6826171875 c 0x90
 227.174804688 3.103515625 224.0234375 192.056640625 221.021484375 420.577148438 c 0xa0
 218.010742188 649.098632812 214.736328125 857.857421875 211.954101562 932.901367188 c 1
 265.651367188 966.228515625 l 2xc0
50 720.75390625 m 0
 49.9912109375 721.237304688 51.55859375 721.633789062 53.4951171875 721.633789062 c 0
 55.431640625 721.633789062 82.7646484375 701.58984375 114.243164062 677.100585938 c 0
 145.712890625 652.610351562 172.25390625 631.90625 173.221679688 631.096679688 c 0
 174.190429688 630.287109375 169.745117188 590.506835938 163.353515625 542.708007812 c 0
 156.954101562 494.899414062 150.616210938 450.594726562 149.260742188 444.248046875 c 0
 147.9140625 437.901367188 145.475585938 433.147460938 143.85546875 433.684570312 c 0
 142.227539062 434.221679688 120.44921875 498.833984375 95.4580078125 577.267578125 c 0
 70.466796875 655.700195312 50.0087890625 720.26953125 50 720.75390625 c 0
EndSplineSet
EndChar

StartChar: O
Encoding: 79 79 39
Width: 531
GlyphClass: 2
Flags: MW
VStem: 144.674 43.7109<966.671 981.227> 263.731 107.093 269.657 87.7959 284.831 58.4756<908.056 948.875>
LayerCount: 2
Fore
SplineSet
284.831054688 948.875 m 2x90
 287.287109375 996.670898438 l 1
 341.3984375 953.352539062 l 1
 343.306640625 908.055664062 l 2x90
 344.360351562 883.143554688 350.728515625 688.717773438 357.453125 476 c 0xa0
 364.186523438 263.282226562 370.197265625 87.6728515625 370.82421875 85.7568359375 c 0
 371.451171875 83.83984375 390.59765625 79.4326171875 413.3671875 75.95703125 c 0
 452.810546875 69.9462890625 455.40625 69.03125 467.90625 56.79296875 c 0
 475.118164062 49.728515625 481.041992188 43.16015625 481.068359375 42.2021484375 c 0
 481.09375 41.244140625 456.373046875 31.3486328125 371.155273438 -0.044921875 c 1
 320.6328125 32.0107421875 l 2
 292.844726562 49.650390625 268.280273438 65.8173828125 266.05078125 67.951171875 c 0
 264.504882812 69.423828125 263.731445312 78.958984375 263.731445312 101.775390625 c 0xc0
 263.731445312 124.590820312 264.504882812 160.686523438 266.05078125 215.27734375 c 0
 267.478515625 265.799804688 268.259765625 310.811523438 268.259765625 336.9453125 c 0
 268.259765625 351.625976562 268.013671875 360.349609375 267.49609375 360.748046875 c 0
 266.059570312 361.853515625 257.435546875 360.390625 248.333007812 357.490234375 c 0
 239.344726562 354.633789062 222.416992188 352.305664062 189.498046875 352.305664062 c 0
 189.078125 352.305664062 188.654296875 352.305664062 188.228515625 352.306640625 c 1
 188.228515625 296.557617188 l 2
 188.228515625 261.71484375 186.921875 240.80859375 184.744140625 240.80859375 c 0
 182.827148438 240.80859375 172.827148438 257.6640625 143.802734375 315.721679688 c 1
 97.9150390625 552.655273438 l 2
 72.6796875 682.96875 51.3115234375 792.333007812 50.4404296875 795.686523438 c 0
 49.5791015625 799.002929688 50.009765625 801.90625 51.4755859375 801.90625 c 0
 53.009765625 801.90625 69.033203125 793.32421875 87.173828125 782.77734375 c 0
 105.388671875 772.193359375 122.244140625 763.517578125 124.639648438 763.491210938 c 0
 127.03515625 763.474609375 129.700195312 766.984375 130.571289062 771.296875 c 0
 131.43359375 775.608398438 134.961914062 821.331054688 144.673828125 966.670898438 c 1
 155.998046875 971.33984375 l 2
 162.2265625 973.901367188 172.060546875 977.176757812 188.384765625 981.2265625 c 1
 188.02734375 437.672851562 l 1
 228.219726562 421.993164062 l 2
 250.327148438 413.370117188 268.96875 407.09765625 269.657226562 408.055664062 c 0xa0
 270.3359375 409.014648438 273.48046875 520.337890625 276.633789062 655.442382812 c 0
 279.787109375 790.547851562 283.48046875 922.594726562 284.831054688 948.875 c 2x90
EndSplineSet
EndChar

StartChar: P
Encoding: 80 80 40
Width: 508
GlyphClass: 2
Flags: MW
HStem: 1.41113 72.8623
VStem: 50 134.305<384.276 388.458> 141.771 41.4111 249.706 83.5625 258.513 57.1865<931.669 984.091>
LayerCount: 2
Fore
SplineSet
258.512695312 984.090820312 m 2x88
 258.84375 995.571289062 l 1
 314.017578125 953.446289062 l 1
 315.69921875 931.668945312 l 2x88
 316.622070312 919.69140625 324.532226562 724.090820312 333.268554688 497 c 0
 342.014648438 269.909179688 350.272460938 83.158203125 351.622070312 82.0087890625 c 0
 352.981445312 80.8505859375 372.119140625 77.3662109375 394.157226562 74.2734375 c 0
 432.841796875 68.8291015625 434.6796875 68.1845703125 447.29296875 55.466796875 c 0
 454.479492188 48.2197265625 459.18359375 41.189453125 457.74609375 39.8310546875 c 0
 456.30859375 38.48046875 432.005859375 28.681640625 403.739257812 18.0537109375 c 0
 371.086914062 5.78125 357.948242188 1.4111328125 350.603515625 1.4111328125 c 0
 348.068359375 1.4111328125 346.224609375 1.931640625 344.505859375 2.8271484375 c 0
 340.194335938 5.0751953125 315.499023438 20.2314453125 289.627929688 36.5205078125 c 0
 263.756835938 52.810546875 242.284179688 66.259765625 241.91015625 66.4072265625 c 0
 241.53515625 66.564453125 245.045898438 270.51953125 249.706054688 519.6484375 c 0x90
 254.357421875 768.77734375 258.321289062 977.775390625 258.512695312 984.090820312 c 2x88
161.770507812 908.149414062 m 1
 183.35546875 951.704101562 l 1
 184.139648438 578.881835938 l 2
 184.251953125 524.939453125 184.3046875 473.5234375 184.3046875 427.01953125 c 0xc0
 184.3046875 296.74609375 183.887695312 205.0234375 183.181640625 204.317382812 c 0
 182.223632812 203.359375 172.868164062 205.7109375 162.397460938 209.543945312 c 0
 147.372070312 215.040039062 143.016601562 218.350585938 141.770507812 225.22265625 c 0xa0
 140.908203125 230.013671875 137.36328125 275.884765625 133.896484375 327.157226562 c 0
 128.651367188 404.8515625 126.740234375 420.327148438 122.3984375 420.327148438 c 0
 119.51171875 420.327148438 102.645507812 411.657226562 84.923828125 401.146484375 c 0
 69.76171875 392.146484375 53.962890625 384.014648438 50.63671875 384.014648438 c 0
 50.220703125 384.014648438 50 384.141601562 50 384.41015625 c 0xc0
 50 392.506835938 70.7080078125 505.908203125 140.185546875 864.595703125 c 1
 161.770507812 908.149414062 l 1
EndSplineSet
EndChar

StartChar: Q
Encoding: 81 81 41
Width: 453
GlyphClass: 2
Flags: MW
HStem: 913.947 82.1133
VStem: 184.148 108.769 185.029 96.0566
LayerCount: 2
Fore
SplineSet
236.965820312 962.65234375 m 2xc0
 266.004882812 980.921875 292.169921875 996.060546875 295.120117188 996.060546875 c 0
 298.279296875 996.060546875 323.493164062 987.5703125 351.40234375 977.125 c 0
 379.483398438 966.60546875 402.889648438 956.666992188 403.400390625 955.046875 c 0
 403.919921875 953.427734375 398.374023438 946.33203125 391.077148438 939.290039062 c 0
 378.400390625 927.0546875 375.944335938 926.217773438 335.557617188 920.504882812 c 0
 312.318359375 917.212890625 293.127929688 914.263671875 292.916992188 913.947265625 c 0xc0
 292.705078125 913.629882812 287.379882812 792.151367188 281.0859375 644 c 0xa0
 275.219726562 505.939453125 270.836914062 388.922851562 270.836914062 370.952148438 c 0
 270.836914062 368.692382812 270.655273438 367.462890625 272.3984375 367.462890625 c 0
 276.650390625 367.462890625 290.306640625 377.459960938 321.47265625 402.952148438 c 0
 348.5859375 425.134765625 371.95703125 443.286132812 373.409179688 443.286132812 c 0
 374.842773438 443.294921875 376.094726562 442.107421875 376.094726562 440.653320312 c 0
 376.094726562 439.142578125 348.749023438 346.935546875 254.571289062 33.6650390625 c 1
 227.282226562 13.1279296875 l 2
 212.801757812 2.228515625 203.05859375 -3.685546875 199.716796875 -3.685546875 c 0
 199.06640625 -3.685546875 198.659179688 -3.4619140625 198.505859375 -3.0078125 c 0
 197.678710938 -0.5869140625 196.0859375 75.8662109375 194.958984375 166.88671875 c 0
 193.823242188 257.908203125 191.930664062 383.875976562 188.603515625 561.252929688 c 1
 73.470703125 695.055664062 l 1
 60.8212890625 740.831054688 l 2
 53.9521484375 765.697265625 48.9453125 787.493164062 50.1904296875 787.493164062 c 0
 51.90234375 787.493164062 81.8251953125 766.678710938 117.247070312 740.831054688 c 0
 153.075195312 714.686523438 183.180664062 693.294921875 184.1484375 693.294921875 c 0xc0
 184.672851562 693.294921875 185.029296875 708.876953125 185.029296875 752.234375 c 0xa0
 185.029296875 788.93359375 184.7734375 845.53125 184.1484375 929.421875 c 1
 236.965820312 962.65234375 l 2xc0
EndSplineSet
EndChar

StartChar: R
Encoding: 82 82 42
Width: 423
GlyphClass: 2
Flags: MW
HStem: 368.294 90.9092<237.996 245.951>
VStem: 157.795 96.6953 160.703 82.4854
LayerCount: 2
Fore
SplineSet
212.2265625 968.119140625 m 2xc0
 262.891601562 999.762695312 l 1
 317.750976562 979.439453125 l 2
 347.92578125 968.258789062 372.978515625 958.740234375 373.416015625 958.28515625 c 0
 373.861328125 957.831054688 367.567382812 950.951171875 359.4296875 942.997070312 c 0
 344.9453125 928.827148438 343.817382812 928.416015625 304.4296875 922.743164062 c 0
 282.314453125 919.552734375 263.826171875 916.615234375 263.336914062 916.22265625 c 0
 262.856445312 915.8203125 260.268554688 868.293945312 257.59375 810.6015625 c 0
 255.641601562 768.48828125 254.490234375 731.466796875 254.490234375 714.09765625 c 0xc0
 254.490234375 707.671875 254.647460938 703.935546875 254.98046875 703.625976562 c 0
 256.221679688 702.481445312 281.615234375 692.506835938 311.422851562 681.466796875 c 0
 341.23046875 670.426757812 367.515625 660.348632812 369.83203125 659.072265625 c 0
 372.830078125 657.419921875 371.326171875 652.5859375 364.586914062 642.201171875 c 0
 357.095703125 630.663085938 351.500976562 626.493164062 337.646484375 622.140625 c 0
 326.5625 618.65234375 307.060546875 616.624023438 248.485351562 616.545898438 c 1
 246.684570312 557.979492188 l 2
 245.688476562 525.767578125 244.115234375 490.365234375 243.188476562 479.307617188 c 0
 242.157226562 467.10546875 242.865234375 459.203125 244.989257812 459.203125 c 0
 246.912109375 459.203125 276.4140625 448.862304688 310.548828125 436.22265625 c 0
 344.68359375 423.590820312 373.013671875 412.577148438 373.494140625 411.747070312 c 0
 373.974609375 410.924804688 370.504882812 404.3515625 365.79296875 397.140625 c 0
 358.712890625 386.318359375 353.075195312 382.665039062 333.450195312 376.196289062 c 0
 315.120117188 370.165039062 301.466796875 368.364257812 237.99609375 368.293945312 c 1
 237.9609375 346.440429688 l 2
 237.934570312 334.421875 236.754882812 318.783203125 235.338867188 311.685546875 c 0
 232.8828125 299.421875 233.266601562 298.661132812 243.241210938 296.3359375 c 0
 249.009765625 294.990234375 278.905273438 284.53515625 309.674804688 273.1015625 c 0
 340.443359375 261.66796875 367.515625 251.265625 369.83203125 249.990234375 c 0
 372.838867188 248.329101562 371.334960938 243.495117188 364.586914062 233.110351562 c 0
 357.095703125 221.572265625 351.500976562 217.40234375 337.646484375 213.048828125 c 0
 325.609375 209.264648438 306.283203125 207.533203125 231.002929688 207.455078125 c 1
 229.166992188 152.384765625 l 2
 228.162109375 122.096679688 226.422851562 84.7275390625 223.258789062 41.37109375 c 1
 169.814453125 1.650390625 l 1
 167.62890625 26.755859375 l 2
 166.090820312 44.4736328125 148.100585938 109.75390625 106.440429688 248.713867188 c 0
 73.9833984375 356.982421875 48.6171875 446.274414062 50.05859375 447.140625 c 0
 51.5009765625 448.005859375 76.67578125 429.010742188 159.325195312 361.134765625 c 1
 160.522460938 377.831054688 l 2
 160.64453125 379.5234375 160.703125 385.250976562 160.703125 394.391601562 c 0xa0
 160.703125 434.8203125 159.563476562 542.010742188 157.794921875 662 c 0
 156.349609375 760.204101562 155.627929688 827.62109375 155.627929688 870.657226562 c 0
 155.627929688 912.973632812 156.325195312 931.717773438 157.716796875 932.979492188 c 0
 159.83203125 934.90234375 184.368164062 950.71484375 212.2265625 968.119140625 c 2xc0
EndSplineSet
EndChar

StartChar: S
Encoding: 83 83 43
Width: 461
GlyphClass: 2
Flags: MW
VStem: 159.463 108.895 168.592 78.7324 172.993 60.4316
LayerCount: 2
Fore
SplineSet
213.010742188 960.25390625 m 2x80
 242.456054688 979.00390625 267.842773438 994.452148438 269.426757812 994.584960938 c 0
 270.272460938 994.66015625 270.702148438 986.265625 270.702148438 972.901367188 c 0
 270.702148438 961.220703125 270.374023438 945.744140625 269.708984375 928.809570312 c 0
 268.8359375 906.58984375 268.357421875 891.71875 268.357421875 882.025390625 c 0x80
 268.357421875 869.62109375 269.140625 865.693359375 270.879882812 865.693359375 c 0
 271.248046875 865.693359375 271.658203125 865.869140625 272.11328125 866.177734375 c 0
 274.868164062 868.043945312 307.21875 891.486328125 344.014648438 918.263671875 c 0
 380.819335938 945.041992188 411.3828125 965.702148438 411.954101562 964.170898438 c 0
 412.517578125 962.638671875 407.139648438 940.782226562 386.998046875 869.831054688 c 1
 328.829101562 802.9296875 l 2
 296.83984375 766.133789062 268.609375 733.651367188 266.091796875 730.74609375 c 0
 262.650390625 726.767578125 258.01953125 644.576171875 247.32421875 398 c 0x40
 239.5078125 217.89453125 233.186523438 62.6123046875 233.424804688 35.32421875 c 1
 206.848632812 15.0771484375 l 2
 192.236328125 3.9423828125 178.697265625 -5.1689453125 176.760742188 -5.1689453125 c 0
 174.560546875 -5.1689453125 173.151367188 17.5859375 172.993164062 55.5703125 c 0x20
 172.861328125 88.9775390625 170.880859375 241.75 168.591796875 395.059570312 c 0x40
 166.311523438 548.37890625 163.64453125 674.504882812 162.676757812 675.350585938 c 0
 161.708007812 676.186523438 140.317382812 683.326171875 115.141601562 691.204101562 c 0
 71.5234375 704.848632812 68.9091796875 706.204101562 50 734.267578125 c 1
 61.4443359375 739.091796875 l 2
 67.73828125 741.75 93.345703125 751.653320312 163.837890625 778.282226562 c 1
 159.462890625 926.168945312 l 1
 213.010742188 960.25390625 l 2x80
EndSplineSet
EndChar

StartChar: T
Encoding: 84 84 44
Width: 455
GlyphClass: 2
Flags: MW
VStem: 186.372 72.9507 200.507 55.8652
LayerCount: 2
Fore
SplineSet
226.73046875 975.96484375 m 2x40
 241.154296875 990.772460938 254.493164062 1002.08203125 256.372070312 1001.10351562 c 0x40
 258.229492188 1000.14160156 259.323242188 933.926757812 259.323242188 660.870117188 c 0
 259.323242188 611.334960938 259.287109375 554.993164062 259.212890625 490.999023438 c 1
 206.58203125 312.676757812 l 2
 177.630859375 214.599609375 152.61328125 130.421875 150.970703125 125.614257812 c 0
 149.08203125 120.0546875 149.440429688 114.740234375 151.966796875 110.999023438 c 0
 155.026367188 106.470703125 176.3203125 101.951171875 245.096679688 91.216796875 c 0
 289.215820312 84.3359375 326.91796875 79.421875 334.903320312 79.421875 c 0
 335.793945312 79.421875 336.314453125 79.4833984375 336.43359375 79.609375 c 0
 337.630859375 80.876953125 341.564453125 93.5 345.174804688 107.66015625 c 0
 351.696289062 133.237304688 351.887695312 133.5 371.853515625 145.248046875 c 0
 382.911132812 151.759765625 392.579101562 156.690429688 393.338867188 156.208984375 c 0
 394.090820312 155.728515625 397.630859375 128.1328125 401.206054688 94.8896484375 c 0
 404.375 65.3359375 405.989257812 50.2314453125 405.989257812 42.333984375 c 0
 405.989257812 34.1318359375 404.248046875 33.7021484375 400.69921875 32.931640625 c 0
 396.853515625 32.1005859375 340.99609375 25.7900390625 159.431640625 6.4365234375 c 1
 50 116.874023438 l 1
 186.372070312 522.467773438 l 1x80
 200.506835938 949.041015625 l 1
 226.73046875 975.96484375 l 2x40
EndSplineSet
EndChar

StartChar: U
Encoding: 85 85 45
Width: 540
GlyphClass: 2
Flags: MW
VStem: 179.415 96.46 184.939 83.0977<397.916 474.498> 190.49 62.3252<65.748 93.7207>
LayerCount: 2
Fore
SplineSet
235.166992188 964.620117188 m 2x80
 285.673828125 996.369140625 l 1
 308.592773438 987.836914062 l 2
 321.20703125 983.15234375 345.682617188 974.139648438 362.990234375 967.811523438 c 0
 380.297851562 961.482421875 394.877929688 954.970703125 395.384765625 953.3359375 c 0
 395.901367188 951.701171875 390.393554688 944.690429688 383.147460938 937.758789062 c 0
 370.594726562 925.739257812 368.025390625 924.874023438 328.016601562 919.279296875 c 0
 304.939453125 916.053710938 285.8046875 913.073242188 285.490234375 912.662109375 c 0
 285.17578125 912.243164062 280.848632812 811.595703125 275.875 689 c 0x80
 271.337890625 577.158203125 268.037109375 482.884765625 268.037109375 466.111328125 c 0x40
 268.037109375 460.83203125 274.548828125 459.450195312 284.73828125 456.657226562 c 0
 293.15625 454.349609375 325.21875 442.907226562 355.997070312 431.228515625 c 0
 386.766601562 419.55078125 412.727539062 409.262695312 413.689453125 408.37890625 c 0
 414.651367188 407.487304688 411.110351562 400.442382812 405.822265625 392.723632812 c 0
 397.919921875 381.194335938 392.299804688 377.435546875 374.353515625 371.657226562 c 0
 357.426757812 366.217773438 343.5234375 364.698242188 267.337890625 364.698242188 c 0
 266.021484375 364.698242188 264.685546875 364.698242188 263.331054688 364.69921875 c 2
 261.696289062 346.342773438 l 2
 260.795898438 336.24609375 258.41796875 284.716796875 256.42578125 231.83203125 c 0
 254.423828125 178.947265625 252.797851562 126.237304688 252.815429688 93.720703125 c 1
 330.629882812 82.0947265625 l 2
 373.426757812 75.7041015625 411.591796875 69.7080078125 415.4375 68.7724609375 c 0
 416.266601562 68.5693359375 417.013671875 68.447265625 417.697265625 68.447265625 c 0
 422.106445312 68.447265625 423.946289062 73.4990234375 428.864257812 94.3759765625 c 0
 435.2890625 121.657226562 435.32421875 121.709960938 456.05859375 135.678710938 c 0
 467.474609375 143.370117188 477.508789062 148.877929688 478.357421875 147.916015625 c 0
 479.196289062 146.954101562 482.692382812 118.96484375 486.127929688 85.712890625 c 0
 489.137695312 56.5087890625 490.685546875 41.41015625 490.685546875 33.43359375 c 0
 490.685546875 24.98046875 488.947265625 24.5244140625 485.3671875 23.7548828125 c 0
 481.521484375 22.9248046875 425.665039062 16.666015625 361.2421875 9.8388671875 c 0
 296.809570312 3.0205078125 243.96875 -2.1455078125 243.802734375 -1.6298828125 c 0
 243.645507812 -1.1044921875 231.583007812 14.2626953125 190.490234375 65.748046875 c 1x20
 184.939453125 397.916015625 l 2x40
 181.888671875 580.608398438 179.397460938 752.504882812 179.415039062 829.734375 c 1
 146.198242188 829.734375 l 2
 125.140625 829.734375 105.061523438 831.971679688 91.3466796875 835.853515625 c 0
 73.26953125 840.966796875 68.068359375 844.279296875 59.7734375 855.958007812 c 0
 54.3095703125 863.650390625 49.9130859375 870.73046875 50.0009765625 871.692382812 c 0
 50.087890625 872.654296875 74.9130859375 882.6796875 105.17578125 893.982421875 c 0
 135.428710938 905.276367188 165.69140625 918.650390625 172.421875 923.694335938 c 0
 179.15234375 928.74609375 207.38671875 947.155273438 235.166992188 964.620117188 c 2x80
EndSplineSet
EndChar

StartChar: V
Encoding: 86 86 46
Width: 510
GlyphClass: 2
Flags: MW
VStem: 220.834 111.023 227.158 82.8418 232.141 74.1418
LayerCount: 2
Fore
SplineSet
274.74609375 966.236328125 m 2x80
 304.39453125 984.631835938 329.825195312 998.560546875 331.24609375 997.18359375 c 0
 331.629882812 996.814453125 331.857421875 993.212890625 331.857421875 985.12890625 c 0x80
 331.857421875 963.264648438 330.192382812 908.614257812 325.447265625 796.447265625 c 1
 364.043945312 796.403320312 l 2
 390.9296875 796.368164062 408.420898438 794.508789062 421.693359375 790.262695312 c 0
 436.473632812 785.53515625 442.982421875 781.026367188 450.737304688 770.131835938 c 0
 456.237304688 762.412109375 460.702148438 755.306640625 460.658203125 754.341796875 c 0
 460.614257812 753.376953125 430.96484375 741.736328125 394.772460938 728.482421875 c 0
 358.5703125 715.21875 326.982421875 703.771484375 324.5703125 703.043945312 c 0
 321.53515625 702.123046875 320.184570312 693.043945312 320.184570312 645.5703125 c 1
 363.166992188 645.297851562 l 2
 394.552734375 645.096679688 410.876953125 643.368164062 423.693359375 638.868164062 c 0
 436.587890625 634.350585938 444.026367188 628.859375 451.763671875 618.149414062 c 0
 457.552734375 610.131835938 461.5 603.03515625 460.53515625 602.368164062 c 0
 459.5703125 601.709960938 432.728515625 591.53515625 400.885742188 579.75390625 c 0
 369.043945312 567.982421875 336.67578125 556.53515625 314.920898438 550.280273438 c 1
 310 430.376953125 l 2x40
 307.7578125 375.63671875 306.282226562 328.06640625 306.282226562 312.383789062 c 0
 306.282226562 309.17578125 306.34375 307.301757812 306.473632812 306.973632812 c 0
 307.237304688 305.043945312 330.5 294.780273438 358.158203125 284.166992188 c 0
 405.991210938 265.815429688 408.920898438 264.131835938 417.833984375 249.850585938 c 0
 422.982421875 241.587890625 426.412109375 234.131835938 425.447265625 233.280273438 c 0
 424.482421875 232.438476562 398.4296875 224.473632812 367.552734375 215.587890625 c 0
 336.67578125 206.702148438 308.81640625 197.5703125 305.649414062 195.306640625 c 0
 300.8515625 191.868164062 299.263671875 178.727539062 296.061523438 115.745117188 c 0
 292.728515625 50.10546875 291.4296875 39.7802734375 286.03515625 36.2275390625 c 0
 282.623046875 33.9912109375 270.3515625 25.0087890625 237.719726562 0.412109375 c 1
 235.079101562 69.482421875 l 2
 233.623046875 107.473632812 232.043945312 138.973632812 231.5703125 139.482421875 c 0
 231.096679688 140 192.017578125 116.482421875 144.737304688 87.21875 c 0
 97.4560546875 57.96484375 56.798828125 33.46484375 54.3857421875 32.7802734375 c 0
 51.9736328125 32.0966796875 50 33.1142578125 50 35.0439453125 c 0
 50 36.9736328125 57.052734375 57.89453125 81.3427734375 124.517578125 c 1
 232.140625 271.885742188 l 1x20
 227.158203125 578.903320312 l 2x40
 224.420898438 747.762695312 221.876953125 896.46484375 220.833984375 932.7890625 c 1
 274.74609375 966.236328125 l 2x80
EndSplineSet
EndChar

StartChar: W
Encoding: 87 87 47
Width: 474
GlyphClass: 2
Flags: MW
HStem: 0.210938 71.3906
VStem: 187.983 85.2227<608 608> 194.167 66.0938 310.866 113.974
LayerCount: 2
Fore
SplineSet
201.987304688 995.0546875 m 0xb0
 202.885742188 996.549804688 205.634765625 996.549804688 208.099609375 995.0546875 c 0
 210.5546875 993.560546875 223.27734375 984.334960938 236.364257812 974.547851562 c 0
 259.504882812 957.244140625 260.163085938 956.309570312 260.260742188 940.740234375 c 0xb0
 260.314453125 931.932617188 263.241210938 853.462890625 273.206054688 608 c 1
 412.405273438 273.48046875 l 1
 418.27734375 191.629882812 l 2
 421.528320312 146.309570312 424.83984375 106.490234375 424.83984375 102.00390625 c 0
 424.83984375 96.1396484375 411.166992188 83.78515625 366.782226562 49.3876953125 c 0
 334.487304688 24.361328125 306.461914062 2.4482421875 304.504882812 0.6953125 c 0
 304.140625 0.369140625 302.3828125 0.2109375 299.362304688 0.2109375 c 0
 284.747070312 0.2109375 240.572265625 3.9091796875 181.720703125 10.162109375 c 0
 116.150390625 17.119140625 59.30078125 23.498046875 55.3857421875 24.34375 c 0
 51.7724609375 25.1142578125 50 25.5478515625 50 33.904296875 c 0
 50 41.9453125 51.640625 57.322265625 54.8603515625 87.39453125 c 0
 58.490234375 121.23828125 62.09375 149.325195312 62.8681640625 149.814453125 c 0
 63.650390625 150.3046875 73.490234375 145.286132812 84.7451171875 138.658203125 c 0
 105.065429688 126.701171875 105.251953125 126.434570312 111.889648438 100.40234375 c 0
 115.563476562 85.9892578125 119.567382812 73.125 120.786132812 71.81640625 c 0
 120.920898438 71.671875 121.56640625 71.6015625 122.677734375 71.6015625 c 0
 131.602539062 71.6015625 170.555664062 76.1083984375 216.080078125 82.4931640625 c 0
 267.271484375 89.6728515625 309.922851562 96.3447265625 310.866210938 97.32421875 c 0
 311.80078125 98.302734375 315.643554688 139.138671875 326.212890625 277.0390625 c 1
 187.983398438 608 l 1xd0
 194.166992188 800.170898438 l 2
 197.565429688 905.864257812 201.080078125 993.560546875 201.987304688 995.0546875 c 0xb0
EndSplineSet
EndChar

StartChar: X
Encoding: 88 88 48
Width: 515
GlyphClass: 2
Flags: MW
VStem: 54.0127 53.5537 271.652 82.8389 285.778 63.3477
LayerCount: 2
Fore
SplineSet
304.372070312 963.935546875 m 1xc0
 358.745117188 997.358398438 l 1
 410.086914062 978.299804688 l 2
 438.327148438 967.8203125 462.99609375 957.872070312 464.912109375 956.200195312 c 0
 467.125 954.275390625 463.702148438 948.377929688 455.548828125 940.09375 c 0
 443.196289062 927.541015625 441.114257812 926.791992188 401.541015625 920.825195312 c 0
 383.98046875 918.169921875 368.42578125 915.368164062 361.884765625 913.751953125 c 1
 359.041015625 697.108398438 356.546875 516.89453125 354.491210938 373.029296875 c 0xc0
 352.383789062 225.46875 349.970703125 96.896484375 349.125976562 87.3154296875 c 0
 347.766601562 71.853515625 344.552734375 66.025390625 320.563476562 35.564453125 c 2
 293.533203125 1.2353515625 l 1
 271.930664062 4.109375 217.836914062 9.9892578125 159.38671875 16.173828125 c 0
 100.9375 22.349609375 51.9482421875 28.3427734375 50.5283203125 29.484375 c 0
 50.1689453125 29.7705078125 50 31.751953125 50 35.0830078125 c 0
 50 45.009765625 51.5078125 66.92578125 54.0126953125 91.6787109375 c 0
 57.34765625 124.739257812 61.2587890625 151.783203125 62.6962890625 151.783203125 c 0
 64.134765625 151.783203125 74.029296875 145.895507812 84.68359375 138.708984375 c 0
 100.51953125 128.038085938 104.708984375 123.08984375 107.56640625 111.705078125 c 0
 109.5 104.040039062 112.532226562 91.888671875 114.326171875 84.7021484375 c 0
 116.782226562 74.8154296875 119.055664062 71.9931640625 123.672851562 73.0986328125 c 0
 127.026367188 73.900390625 164.265625 79.5888671875 206.42578125 85.73828125 c 0
 252.7890625 92.4921875 285.778320312 94.30078125 285.778320312 103.99609375 c 0xa0
 285.778320312 134.58203125 279.854492188 304.034179688 271.65234375 506 c 0
 262.6015625 728.61328125 251.421875 929.618164062 250.463867188 930.680664062 c 1
 304.372070312 963.935546875 l 1xc0
EndSplineSet
EndChar

StartChar: Y
Encoding: 89 89 49
Width: 314
GlyphClass: 2
Flags: MW
HStem: 372.381 89.7655
VStem: 57.0254 72.5517 61.8096 50.8623 61.8965 58.7578
LayerCount: 2
Fore
SplineSet
104.111328125 961.810546875 m 1xc0
 158.223632812 995.740234375 l 1
 209.29296875 976.740234375 l 2
 237.370117188 966.291992188 261.904296875 956.377929688 263.801757812 954.723632812 c 0
 265.991210938 952.818359375 262.602539062 946.981445312 254.54296875 938.783203125 c 0
 242.154296875 926.188476562 240.689453125 925.688476562 196.37890625 918.96484375 c 0
 171.37890625 915.171875 149.698242188 911.291992188 148.198242188 910.34375 c 0
 146.698242188 909.395507812 141.448242188 814.740234375 136.516601562 699.999023438 c 0
 131.596679688 585.506835938 129.577148438 485.21875 129.577148438 476.77734375 c 0xc0
 129.577148438 467.265625 131.107421875 462.146484375 133.918945312 462.146484375 c 0
 136.388671875 462.146484375 163.439453125 451.982421875 196.559570312 439.526367188 c 0
 229.75 427.034179688 257.29296875 416.137695312 257.766601562 415.301757812 c 0
 258.241210938 414.474609375 254.361328125 407.526367188 249.146484375 399.862304688 c 0
 241.456054688 388.577148438 235.741210938 384.646484375 218.973632812 379.146484375 c 0
 203.6171875 374.1015625 188.993164062 372.37890625 161.610351562 372.37890625 c 0
 160.118164062 372.37890625 158.618164062 372.380859375 157.235351562 372.380859375 c 0
 125.76953125 372.380859375 129.029296875 371.838867188 127.645507812 364.655273438 c 0
 126.817382812 360.387695312 123.6796875 291.724609375 120.653320312 212.069335938 c 0x90
 117.63671875 132.4140625 114.041992188 52.103515625 112.670898438 33.5947265625 c 0
 111.301757812 15.0966796875 109.018554688 -0.025390625 107.587890625 -0.025390625 c 0
 106.16796875 -0.025390625 91.4052734375 5.82421875 61.8095703125 25.8623046875 c 1xa0
 61.896484375 81.0341796875 l 2x90
 61.939453125 111.37890625 59.75 278.965820312 57.025390625 453.448242188 c 0
 54.29296875 627.930664062 51.6025390625 806.060546875 50 927.87890625 c 1
 104.111328125 961.810546875 l 1xc0
EndSplineSet
EndChar

StartChar: Z
Encoding: 90 90 50
Width: 463
GlyphClass: 2
Flags: MW
VStem: 173.148 93.6504 192.796 66.5382 205.787 44.7061
LayerCount: 2
Fore
SplineSet
105.36328125 980.46875 m 0x80
 131.3046875 989.999023438 154.875976562 997.182617188 159.986328125 997.182617188 c 0
 160.3125 997.182617188 160.563476562 997.153320312 160.735351562 997.09375 c 0
 163.58984375 996.098632812 189.108398438 981.021484375 268.987304688 931.877929688 c 1
 266.798828125 838.452148438 l 2x80
 265.596679688 787.067382812 262.231445312 603.331054688 259.333984375 430.147460938 c 0x40
 256.426757812 256.963867188 253.251953125 95.0263671875 250.493164062 25.302734375 c 1
 226.565429688 12.3271484375 l 2
 216.150390625 5.1904296875 206.798828125 -0.2587890625 205.787109375 0.216796875 c 0x20
 204.766601562 0.6923828125 201.798828125 50.1298828125 199.186523438 110.078125 c 0
 196.583007812 170.026367188 194.298828125 219.463867188 194.1171875 219.939453125 c 0
 193.94140625 220.400390625 178.443359375 220.762695312 153.725585938 220.762695312 c 0
 152.897460938 220.762695312 152.059570312 220.762695312 151.2109375 220.76171875 c 0
 150.897460938 220.76171875 150.5859375 220.76171875 150.275390625 220.76171875 c 0
 115.41015625 220.76171875 99.1328125 222.236328125 86.33203125 226.549804688 c 0
 76.81640625 229.75 67.2060546875 234.828125 64.96484375 237.830078125 c 0
 62.724609375 240.840820312 58.4423828125 247.579101562 50 262.328125 c 1
 111.41796875 284.724609375 l 2
 145.198242188 297.04296875 177.327148438 308.33203125 182.811523438 309.810546875 c 0
 188.295898438 311.290039062 191.58984375 314.05859375 192.576171875 315.961914062 c 0
 192.721679688 316.241210938 192.795898438 319.392578125 192.795898438 325.083984375 c 0x40
 192.795898438 358.203125 190.294921875 477.333984375 184.913085938 617 c 0
 178.615234375 780.666992188 173.321289062 914.975585938 173.1484375 915.459960938 c 0
 172.984375 915.944335938 151.038085938 919.568359375 124.39453125 923.513671875 c 0
 79.15234375 930.208984375 75.20703125 931.411132812 64.583984375 941.662109375 c 0
 58.330078125 947.700195312 53.6591796875 954.75 54.2041015625 957.336914062 c 0
 54.7490234375 959.923828125 77.767578125 970.330078125 105.36328125 980.46875 c 0x80
357.965820312 267.171875 m 0
 385.560546875 290.9609375 409.306640625 310.501953125 410.734375 310.59765625 c 0
 412.161132812 310.692382812 413.294921875 309.602539062 413.250976562 308.174804688 c 0
 413.208007812 306.748046875 396.071289062 241.739257812 375.163085938 163.7109375 c 0
 354.263671875 85.68359375 336.391601562 21.064453125 335.448242188 20.11328125 c 0
 334.514648438 19.1611328125 333.017578125 19.1611328125 332.118164062 20.11328125 c 0
 331.227539062 21.064453125 322.671875 64.6630859375 313.11328125 116.999023438 c 0
 302.498046875 175.09765625 298.470703125 197.943359375 298.470703125 208.3359375 c 0
 298.470703125 214.112304688 299.71484375 216.041015625 301.763671875 218.037109375 c 0
 305.076171875 221.272460938 330.37109375 243.3828125 357.965820312 267.171875 c 0
EndSplineSet
EndChar

StartChar: underscore
Encoding: 95 95 51
Width: 474
GlyphClass: 2
Flags: MW
HStem: 6 86<50 117>
LayerCount: 2
Fore
SplineSet
356 104 m 2
 357.294921875 104.044921875 360.565429688 103.500976562 364.17578125 117.661132812 c 0
 370.697265625 143.23828125 370.888671875 143.500976562 390.854492188 155.249023438 c 0
 401.912109375 161.760742188 411.580078125 166.69140625 412.33984375 166.209960938 c 0
 413.091796875 165.729492188 416.631835938 138.133789062 420.20703125 104.890625 c 0
 423.375976562 75.3359375 424.990234375 57.8232421875 424.990234375 47.47265625 c 0
 424.990234375 36.724609375 423.249023438 33.69921875 419.69921875 32.931640625 c 0
 415.853515625 32.1005859375 231.564453125 25.353515625 50 6 c 1
 117 92 l 1
 171 101 356 104 356 104 c 2
EndSplineSet
EndChar

StartChar: a
Encoding: 97 97 52
Width: 404
GlyphClass: 2
Flags: MW
VStem: 249.812 105.188 255.396 82.3535 262.543 56.2637
LayerCount: 2
Fore
SplineSet
159.166992188 954.263671875 m 2x00
 170.026367188 976.2734375 179.854492188 992.184570312 181.864257812 990.999023438 c 0
 184.056640625 989.719726562 185.1015625 892.548828125 185.1015625 689.654296875 c 0
 185.1015625 669.138671875 185.090820312 647.54296875 185.069335938 624.856445312 c 0
 184.787109375 337.243164062 183.844726562 262.010742188 180.486328125 262.010742188 c 0
 178.251953125 262.010742188 168.15234375 265.845703125 141.76171875 274.486328125 c 1
 135.447265625 369.873046875 l 2
 131.985351562 422.338867188 128.505859375 467.201171875 127.71484375 469.563476562 c 0
 126.93359375 471.926757812 123.591796875 473.859375 120.284179688 473.850585938 c 0
 116.9765625 473.850585938 101.125976562 465.963867188 85.060546875 456.333984375 c 0
 68.9951171875 446.703125 54.3046875 438.592773438 52.4140625 438.30078125 c 0
 50.5244140625 438.017578125 49.26171875 440.096679688 49.61328125 442.931640625 c 0
 49.9658203125 445.766601562 70.4560546875 553.241210938 140.026367188 915.440429688 c 1
 159.166992188 954.263671875 l 2x00
262.54296875 968.03515625 m 0
 263.479492188 970.741210938 265.841796875 971.419921875 268.505859375 969.752929688 c 0
 270.936523438 968.232421875 283.255859375 959.254882812 295.90234375 949.8046875 c 0
 314.65234375 935.78515625 318.806640625 930.893554688 318.806640625 923.137695312 c 0
 318.806640625 917.141601562 327.315429688 714.899414062 337.749023438 473 c 0
 347.36328125 250.131835938 355 57.2138671875 355 4.431640625 c 0
 355 -0.193359375 354.94140625 -3.7421875 354.8203125 -6.140625 c 1
 249.811523438 59.7705078125 l 1
 249.802734375 95.8525390625 l 2
 249.793945312 115.698242188 252.311523438 319.048828125 255.395507812 547.7421875 c 0
 258.479492188 776.436523438 261.692382812 965.569335938 262.54296875 968.03515625 c 0
EndSplineSet
EndChar

StartChar: b
Encoding: 98 98 53
Width: 415
GlyphClass: 2
Flags: MW
VStem: 148.169 94.7485 149.888 89.377 150.342 74.7829
LayerCount: 2
Fore
SplineSet
198.782226562 965.114257812 m 1x00
 253.387695312 998.780273438 l 1
 305.098632812 979.579101562 l 2
 333.537109375 969.026367188 358.387695312 959 360.317382812 957.315429688 c 0
 362.545898438 955.376953125 359.098632812 949.438476562 350.887695312 941.096679688 c 0
 338.44921875 928.456054688 336.352539062 927.701171875 296.501953125 921.692382812 c 0
 273.703125 918.245117188 254.264648438 914.561523438 253.299804688 913.491210938 c 0
 252.334960938 912.4296875 249.677734375 869.456054688 247.387695312 818 c 0
 245.025390625 764.694335938 242.916992188 720.1640625 242.916992188 712.149414062 c 0
 242.916992188 703.359375 246.572265625 701.916015625 301.493164062 681.315429688 c 0
 333.84375 669.174804688 362.211914062 658.123046875 364.51953125 656.75390625 c 0
 367.528320312 654.96484375 366.037109375 650.130859375 359.255859375 639.657226562 c 0
 351.747070312 628.0703125 346.168945312 623.903320312 332.247070312 619.526367188 c 0
 320.896484375 615.956054688 301.396484375 613.991210938 239.264648438 613.912109375 c 1
 237.405273438 577.947265625 l 2
 236.37890625 558.166015625 230.852539062 431.061523438 225.125 295.491210938 c 0
 219.396484375 159.920898438 214.703125 46.630859375 214.703125 43.736328125 c 0
 214.703125 40.841796875 202.072265625 29 186.633789062 17.4208984375 c 0
 171.465820312 6.044921875 161.626953125 0.0595703125 158.184570312 0.0595703125 c 0
 157.509765625 0.0595703125 157.081054688 0.2900390625 156.905273438 0.75390625 c 0
 156.001953125 3.166015625 131.528320312 100.271484375 102.51953125 216.543945312 c 0
 73.51953125 332.815429688 49.791015625 428.736328125 49.791015625 429.701171875 c 0
 49.791015625 430.666015625 51.3701171875 431.456054688 53.2998046875 431.456054688 c 0
 55.2294921875 431.456054688 77.3349609375 414.876953125 102.422851562 394.614257812 c 0
 127.510742188 374.350585938 148.870117188 358.166015625 149.887695312 358.6484375 c 0
 150.196289062 358.79296875 150.341796875 368.619140625 150.341796875 385.852539062 c 0
 150.341796875 425.991210938 149.549804688 506.314453125 148.168945312 598.123046875 c 0
 146.203125 729.350585938 144.501953125 858.03515625 144.177734375 931.456054688 c 1
 198.782226562 965.114257812 l 1x00
EndSplineSet
EndChar

StartChar: c
Encoding: 99 99 54
Width: 411
GlyphClass: 2
Flags: MW
VStem: 57.5088 82.8389 62.874 63.3475 304.434 53.5537
LayerCount: 2
Fore
SplineSet
104.267578125 963.935546875 m 1x00
 158.640625 997.358398438 l 1
 209.982421875 978.299804688 l 2
 238.22265625 967.8203125 262.891601562 957.872070312 264.807617188 956.200195312 c 0
 267.020507812 954.275390625 263.59765625 948.377929688 255.444335938 940.09375 c 0
 243.091796875 927.541015625 241.009765625 926.791992188 201.436523438 920.825195312 c 0
 178.797851562 917.40234375 159.494140625 913.735351562 158.536132812 912.680664062 c 0
 157.578125 911.618164062 149.3984375 728.61328125 140.34765625 506 c 0
 132.145507812 304.034179688 126.221679688 134.58203125 126.221679688 103.99609375 c 0
 126.221679688 94.30078125 159.2109375 92.4921875 205.57421875 85.73828125 c 0
 247.734375 79.5888671875 284.973632812 73.900390625 288.327148438 73.0986328125 c 0
 292.944335938 71.9931640625 295.217773438 74.8154296875 297.673828125 84.7021484375 c 0
 299.467773438 91.888671875 302.5 104.040039062 304.43359375 111.705078125 c 0
 307.291015625 123.08984375 311.48046875 128.038085938 327.31640625 138.708984375 c 0
 337.970703125 145.895507812 347.865234375 151.783203125 349.303710938 151.783203125 c 0
 350.741210938 151.783203125 354.65234375 124.739257812 357.987304688 91.6787109375 c 0
 360.4921875 66.92578125 362 45.009765625 362 35.0830078125 c 0
 362 31.751953125 361.831054688 29.7705078125 361.471679688 29.484375 c 0
 360.051757812 28.3427734375 311.0625 22.349609375 252.61328125 16.173828125 c 0
 194.163085938 9.9892578125 140.069335938 4.109375 118.466796875 1.2353515625 c 1
 91.4365234375 35.564453125 l 2
 67.447265625 66.025390625 64.2333984375 71.853515625 62.8740234375 87.3154296875 c 0
 62.029296875 96.896484375 59.6162109375 225.46875 57.5087890625 373.029296875 c 0
 55.400390625 520.58984375 52.8310546875 706.391601562 49.8955078125 930.520507812 c 1
 104.267578125 963.935546875 l 1x00
EndSplineSet
EndChar

StartChar: d
Encoding: 100 100 55
Width: 470
GlyphClass: 2
Flags: MW
VStem: 49.628 106.64 64.586 80.9746 82.6124 54.2158 208.041 105.666 212.673 82.9307 218.595 59.6035 334.69 59.2764
LayerCount: 2
Fore
SplineSet
262.5859375 953.62109375 m 2x00
 314.224609375 986.026367188 l 1
 329.828125 980.12109375 l 2
 338.4140625 976.87109375 361.724609375 968.310546875 381.646484375 961.0859375 c 0
 401.560546875 953.87109375 419.146484375 947.069335938 420.724609375 945.982421875 c 0
 422.310546875 944.887695312 416.879882812 937.569335938 408.655273438 929.715820312 c 0
 394.04296875 915.75 392.828125 915.310546875 354.051757812 909.776367188 c 0
 332.241210938 906.6640625 314.0859375 903.776367188 313.70703125 903.37109375 c 0
 313.328125 902.95703125 305.181640625 718.741210938 295.603515625 494 c 0
 286.034179688 269.258789062 278.198242188 83.439453125 278.198242188 81.0693359375 c 0
 278.189453125 78.3447265625 286.776367188 75.62890625 301.465820312 73.689453125 c 0
 314.267578125 72 325.70703125 71.6123046875 326.887695312 72.828125 c 0
 328.069335938 74.04296875 331.578125 85.896484375 334.689453125 99.1728515625 c 0
 340.328125 123.25 340.396484375 123.344726562 362.715820312 137.965820312 c 0
 375.026367188 146.026367188 386.646484375 152.62109375 388.54296875 152.62109375 c 0
 390.483398438 152.62109375 392.853515625 137.215820312 393.965820312 117.276367188 c 0
 394.52734375 107.321289062 394.90234375 95.037109375 394.90234375 79.677734375 c 0
 394.90234375 65.044921875 394.561523438 47.62109375 393.715820312 26.7587890625 c 1
 124.741210938 -12.2587890625 l 1
 88.5341796875 20.6982421875 l 2
 65.8701171875 41.3232421875 49.6279296875 51.830078125 49.6279296875 60.7041015625 c 0
 49.6279296875 93.3447265625 55.9228515625 282.274414062 64.5859375 507.79296875 c 0
 74.0947265625 755.29296875 82.20703125 958.25 82.6123046875 958.801757812 c 0
 83.0263671875 959.362304688 95.3876953125 950.439453125 110.0859375 938.974609375 c 0
 124.784179688 927.517578125 136.819335938 917.75 136.828125 917.276367188 c 0
 136.844726562 916.801757812 140.767578125 732.534179688 145.560546875 507.79296875 c 0
 150.344726562 283.051757812 155.1640625 98.396484375 156.267578125 97.4482421875 c 0
 157.37109375 96.5 171.681640625 93.7841796875 188.060546875 91.4228515625 c 0
 204.439453125 89.0517578125 218.181640625 87.5 218.594726562 87.974609375 c 0
 219 88.439453125 216.3359375 275.034179688 212.672851562 502.62109375 c 0
 209.817382812 679.997070312 208.041015625 832.892578125 208.041015625 892.3515625 c 0
 208.041015625 909.182617188 208.18359375 918.526367188 208.483398438 918.819335938 c 0
 209.8359375 920.137695312 234.181640625 935.801757812 262.5859375 953.62109375 c 2x00
EndSplineSet
EndChar

StartChar: e
Encoding: 101 101 56
Width: 440
GlyphClass: 2
Flags: MW
HStem: 913.201 82
VStem: 171.505 108.882 180.563 81.1875 185.897 57.6396
LayerCount: 2
Fore
SplineSet
224.322265625 961.5546875 m 0xc0
 253.349609375 979.876953125 279.5390625 995.201171875 282.51171875 995.201171875 c 0
 285.817382812 995.201171875 310.950195312 986.787109375 338.767578125 976.37890625 c 0
 366.848632812 965.859375 390.24609375 955.920898438 390.756835938 954.30078125 c 0
 391.276367188 952.681640625 385.73046875 945.5859375 378.432617188 938.543945312 c 0
 365.756835938 926.30859375 363.30078125 925.471679688 322.913085938 919.758789062 c 0
 299.673828125 916.466796875 280.537109375 913.517578125 280.38671875 913.201171875 c 0xc0
 280.237304688 912.883789062 271.848632812 716.140625 261.750976562 476 c 0xa0
 251.69921875 237.135742188 243.537109375 40.294921875 243.537109375 36.779296875 c 0
 243.537109375 35.2333984375 231.096679688 24.6552734375 215.518554688 12.9716796875 c 0
 200.568359375 1.7607421875 190.426757812 -4.4033203125 187.060546875 -4.4033203125 c 0
 186.43359375 -4.4033203125 186.041015625 -4.189453125 185.897460938 -3.75390625 c 0x90
 185.10546875 -1.3330078125 182.702148438 136.915039062 180.563476562 303.46484375 c 0xa0
 178.423828125 470.013671875 175.509765625 656.58984375 171.504882812 829.890625 c 1
 139.814453125 829.846679688 l 2
 117.19140625 829.8203125 102.077148438 831.853515625 86.998046875 836.951171875 c 0
 70.6953125 842.4609375 64.0576171875 846.888671875 57.9482421875 856.352539062 c 0
 53.59375 863.08203125 50 869.796875 50 871.247070312 c 0
 50 872.706054688 77.6865234375 884.190429688 111.540039062 896.774414062 c 0
 148.11328125 910.366210938 172.321289062 921.161132812 172.321289062 923.85546875 c 0
 172.321289062 926.465820312 194.911132812 942.981445312 224.322265625 961.5546875 c 0xc0
EndSplineSet
EndChar

StartChar: f
Encoding: 102 102 57
Width: 543
GlyphClass: 2
Flags: MW
HStem: 913.317 88.6611
VStem: 133.009 111.462 161.661 57.4199
LayerCount: 2
Fore
SplineSet
173.318359375 965.631835938 m 2xc0
 195.490234375 985.578125 214.826171875 1001.93457031 216.288085938 1001.97851562 c 0
 217.750976562 1002.01464844 275.99609375 993.247070312 345.73046875 982.493164062 c 0
 415.455078125 971.73046875 477.290039062 961.952148438 493.779296875 958.57421875 c 1
 490.916015625 896.092773438 l 2
 489.337890625 861.73046875 486.944335938 832.404296875 485.596679688 830.923828125 c 0
 485.469726562 830.786132812 485.24609375 830.711914062 484.915039062 830.711914062 c 0
 481.708007812 830.711914062 468.362304688 837.583984375 433.49609375 859.612304688 c 1
 427.290039062 886.508789062 l 2
 422.450195312 907.466796875 419.7109375 913.379882812 414.87890625 913.317382812 c 0
 411.465820312 913.2734375 371.970703125 907.6796875 327.104492188 900.888671875 c 0
 282.24609375 894.09765625 245.065429688 888.149414062 244.470703125 887.669921875 c 0xc0
 243.876953125 887.19140625 237.955078125 703.291015625 231.306640625 479 c 0
 224.657226562 254.708984375 219.161132812 65.21484375 219.081054688 57.900390625 c 0
 218.95703125 45.560546875 216.970703125 43.078125 191.465820312 23.3525390625 c 0
 174.911132812 10.546875 168.26171875 5.5888671875 165.049804688 5.5888671875 c 0
 163.181640625 5.5888671875 162.4765625 7.2666015625 161.661132812 10.0546875 c 0xa0
 160.384765625 14.42578125 157.538085938 92.208984375 151.315429688 347.794921875 c 1
 99.568359375 555.241210938 l 2
 71.8505859375 666.337890625 50 760.413085938 50 768.43359375 c 0
 50 769.627929688 50.861328125 770.358398438 51.93359375 770.358398438 c 0
 56.9619140625 770.358398438 74.333984375 757.255859375 142.11328125 702.404296875 c 1
 139.887695312 720.134765625 l 2
 138.655273438 729.88671875 136.616210938 780.950195312 133.008789062 929.354492188 c 1
 173.318359375 965.631835938 l 2xc0
EndSplineSet
EndChar

StartChar: g
Encoding: 103 103 58
Width: 482
GlyphClass: 2
Flags: MW
HStem: 5.34375 95.7441
VStem: 225.562 70.3506<481.895 524> 225.729 57.6572
LayerCount: 2
Fore
SplineSet
225.728515625 742.543945312 m 2xa0
 225.875976562 971.588867188 226.234375 1000.12597656 230.87890625 1000.12597656 c 0
 231.178710938 1000.12597656 231.49609375 1000.00683594 231.833007812 999.815429688 c 0
 235.10546875 997.956054688 248.03515625 986 283.385742188 950.079101562 c 1xa0
 295.912109375 524 l 1
 432.359375 113.473632812 l 1
 382.623046875 62.5966796875 l 2
 355.272460938 34.6142578125 331.228515625 9.6669921875 329.193359375 7.158203125 c 0
 328.244140625 5.9873046875 325.254882812 5.34375 318.469726562 5.34375 c 0
 303.743164062 5.34375 271.134765625 8.376953125 202.684570312 15.6494140625 c 0
 135.140625 22.82421875 78.8251953125 29.6142578125 77.53515625 30.736328125 c 0
 76.24609375 31.8505859375 78.1669921875 59.6142578125 81.7900390625 92.4208984375 c 0
 85.412109375 125.227539062 89.228515625 152.46484375 90.2724609375 152.947265625 c 0
 91.3076171875 153.4296875 101.149414062 147.903320312 112.131835938 140.666992188 c 0
 131.728515625 127.762695312 132.237304688 127.008789062 138.728515625 101.193359375 c 0
 142.359375 86.71875 145.614257812 74.587890625 145.938476562 74.236328125 c 0
 146.272460938 73.876953125 186.017578125 79.75390625 234.263671875 87.2890625 c 0
 282.508789062 94.82421875 323.17578125 101.03515625 324.623046875 101.087890625 c 0
 325.686523438 101.1328125 331.12109375 105.760742188 331.12109375 110.419921875 c 0
 331.12109375 122.396484375 314.515625 181.84375 225.561523438 481.89453125 c 1xc0
 225.728515625 742.543945312 l 2xa0
51.8076171875 494.17578125 m 0
 52.7724609375 494.17578125 80.5703125 473.25390625 113.587890625 447.684570312 c 0
 164.287109375 408.416015625 172.197265625 401.872070312 172.197265625 393.934570312 c 0
 172.197265625 392.895507812 172.061523438 391.831054688 171.868164062 390.666992188 c 0
 170.903320312 384.876953125 164.81640625 340.262695312 158.333007812 291.517578125 c 0
 151.850585938 242.780273438 145.140625 203.306640625 143.420898438 203.797851562 c 0
 141.702148438 204.297851562 119.973632812 268.649414062 95.123046875 346.806640625 c 0
 70.2978515625 424.9140625 50 490.01171875 50 491.541015625 c 0
 50 492.989257812 50.8603515625 494.17578125 51.8076171875 494.17578125 c 0
EndSplineSet
EndChar

StartChar: h
Encoding: 104 104 59
Width: 458
GlyphClass: 2
Flags: MW
HStem: 913.778 82.0264
VStem: 50 108.803 57.333 82.8604 64.375 57.6842 326.32 69.6836 326.417 82.1396 339.164 43.1338
LayerCount: 2
Fore
SplineSet
102.817382812 962.483398438 m 2xc0
 131.846679688 980.650390625 158.032226562 995.8046875 160.99609375 995.8046875 c 0
 164.260742188 995.8046875 189.416992188 987.375 217.25390625 976.956054688 c 0
 245.334960938 966.436523438 268.741210938 956.498046875 269.251953125 954.877929688 c 0
 269.771484375 953.258789062 264.225585938 946.163085938 256.927734375 939.12109375 c 0
 244.251953125 926.885742188 241.795898438 926.048828125 201.408203125 920.3359375 c 0
 178.168945312 917.043945312 158.99609375 914.094726562 158.802734375 913.778320312 c 0xc0
 158.600585938 913.4609375 150.228515625 719.094726562 140.193359375 481.858398438 c 0xa0
 130.1875 245.512695312 122.059570312 48.439453125 122.059570312 42.65625 c 0
 122.059570312 36.67578125 114.946289062 29.24609375 94.013671875 13.548828125 c 0
 79.0390625 2.3173828125 68.9208984375 -3.83203125 65.5478515625 -3.83203125 c 0
 64.916015625 -3.83203125 64.5205078125 -3.615234375 64.375 -3.1767578125 c 0x90
 63.5654296875 -0.755859375 60.396484375 186.612304688 57.3330078125 413.197265625 c 0xa0
 54.26953125 639.78125 51.373046875 848.627929688 50 929.438476562 c 1
 102.817382812 962.483398438 l 2xc0
176.743164062 711.938476562 m 0
 175.607421875 716.127929688 176.620117188 717.994140625 179.594726562 717.219726562 c 0
 182.129882812 716.559570312 209.806640625 696.20703125 241.100585938 672 c 0
 280.307617188 641.665039062 298.143554688 625.8125 298.143554688 620.854492188 c 0
 298.143554688 616.440429688 292.662109375 572.346679688 285.879882812 522.3515625 c 0
 279.057617188 472 272.702148438 430.010742188 271.76953125 429.041992188 c 0
 270.8359375 428.073242188 268.890625 428.663085938 267.438476562 430.353515625 c 0
 265.986328125 432.043945312 245.37890625 494.631835938 221.646484375 569.438476562 c 0
 197.922851562 644.244140625 177.7109375 708.373046875 176.743164062 711.938476562 c 0
339.1640625 703.689453125 m 0x82
 339.3671875 704.359375 339.744140625 704.76171875 340.4296875 704.76171875 c 0
 343.569335938 704.76171875 353.186523438 696.334960938 382.297851562 666.717773438 c 1x82
 396.00390625 339.252929688 l 2x88
 403.5390625 159.147460938 409.190429688 10.599609375 408.556640625 9.1474609375 c 0
 407.922851562 7.6953125 389.181640625 21.5595703125 326.416992188 73.408203125 c 1x84
 326.3203125 109.5 l 2x88
 326.276367188 129.349609375 328.78515625 269.974609375 331.901367188 422 c 0
 335.017578125 574.024414062 338.291992188 700.78515625 339.1640625 703.689453125 c 0x82
EndSplineSet
EndChar

StartChar: i
Encoding: 105 105 60
Width: 457
GlyphClass: 2
Flags: MW
VStem: 213.762 108.166 216.622 91.8945 220.78 60.7627
LayerCount: 2
Fore
SplineSet
264.6484375 962.684570312 m 2x00
 292.630859375 980.473632812 317.280273438 995.166992188 319.4375 995.325195312 c 0
 322.11328125 995.526367188 322.90234375 987.026367188 321.928710938 968.420898438 c 0
 321.1484375 953.46484375 315.11328125 810.17578125 308.516601562 650 c 0
 301.928710938 489.825195312 295.6484375 346.140625 292.604492188 302.631835938 c 1
 314.586914062 296.114257812 l 2
 326.68359375 292.526367188 348.815429688 285.81640625 363.771484375 281.202148438 c 0
 387.54296875 273.860351562 392.174804688 271.03515625 400.61328125 258.719726562 c 0
 405.919921875 250.973632812 408.919921875 243.473632812 407.280273438 242.052734375 c 0
 405.639648438 240.631835938 378.797851562 230 290.963867188 197.368164062 c 1
 288.384765625 160.526367188 l 2
 286.963867188 140.263671875 284.849609375 103.947265625 281.54296875 35.96484375 c 1
 255.2890625 16.6669921875 l 2
 240.849609375 6.052734375 227.97265625 -2.6318359375 226.666015625 -2.6318359375 c 0
 225.358398438 -2.6318359375 223.499023438 28.2900390625 220.780273438 134.790039062 c 1
 136.569335938 73.74609375 l 2
 91.5859375 41.1318359375 53.6005859375 15.494140625 50.337890625 15.494140625 c 0
 48.4912109375 15.494140625 53.947265625 39.3203125 73.4111328125 106.860351562 c 1
 219.481445312 274.561523438 l 1
 216.622070312 490.3515625 l 2
 215.051757812 609.03515625 213.762695312 756.587890625 213.762695312 930.333984375 c 1
 264.6484375 962.684570312 l 2x00
EndSplineSet
EndChar

StartChar: j
Encoding: 106 106 61
Width: 321
GlyphClass: 2
Flags: MW
HStem: 917.912 82.0693
VStem: 50 111.004 59.542 82.8965 64.6484 59.9447
LayerCount: 2
Fore
SplineSet
103.978515625 965.587890625 m 2xc0
 133.661132812 984.393554688 160.354492188 999.981445312 163.303710938 999.981445312 c 0
 166.463867188 999.981445312 191.676757812 991.5 219.5859375 981.0546875 c 0
 247.666992188 970.53515625 271.065429688 960.596679688 271.584960938 958.9765625 c 0
 272.094726562 957.357421875 266.549804688 950.340820312 259.260742188 943.38671875 c 0
 246.672851562 931.388671875 243.8203125 930.4296875 203.741210938 924.627929688 c 0
 180.501953125 921.274414062 161.267578125 918.24609375 161.00390625 917.912109375 c 0xc0
 160.739257812 917.568359375 152.385742188 726.362304688 142.438476562 493 c 0xa0
 132.572265625 261.52734375 124.592773438 65.5654296875 124.592773438 54.8447265625 c 0
 124.592773438 40.9921875 123.958984375 39.873046875 98.265625 20.2880859375 c 0
 83.6533203125 9.1533203125 70.10546875 0.0419921875 68.1689453125 0.0419921875 c 0
 66.0478515625 0.0419921875 64.6484375 15.0068359375 64.6484375 37.89453125 c 0x90
 64.6484375 58.712890625 62.3505859375 231.028320312 59.5419921875 420.81640625 c 0xa0
 56.734375 610.60546875 53.4423828125 803.123046875 50 931.379882812 c 1
 103.978515625 965.587890625 l 2xc0
EndSplineSet
EndChar

StartChar: k
Encoding: 107 107 62
Width: 457
GlyphClass: 2
Flags: MW
HStem: 774.689 20G 920.236 81.9917
VStem: 187.447 110.079 193.935 91.9717
LayerCount: 2
Fore
SplineSet
240.87109375 969.047851562 m 2xe0
 270.225585938 987.116210938 296.6875 1002.22753906 299.659179688 1002.22753906 c 0
 302.965820312 1002.22753906 328.098632812 993.822265625 355.90625 983.4140625 c 0
 383.987304688 972.89453125 407.385742188 962.956054688 407.905273438 961.3359375 c 0
 408.423828125 959.716796875 402.87890625 952.62109375 395.581054688 945.579101562 c 0
 382.905273438 933.34375 380.440429688 932.506835938 340.061523438 926.793945312 c 0
 316.822265625 923.501953125 297.67578125 920.552734375 297.526367188 920.236328125 c 0xe0
 297.368164062 919.918945312 292.138671875 796.063476562 285.90625 645.006835938 c 0
 279.665039062 493.950195312 275.043945312 370.024414062 275.625 369.620117188 c 0
 276.206054688 369.21484375 298.864257812 387.004882812 325.977539062 409.153320312 c 0
 353.08984375 431.309570312 376.4609375 449.4609375 377.9140625 449.504882812 c 0
 379.366210938 449.548828125 380.5546875 448 380.5546875 446.063476562 c 0
 380.5546875 444.126953125 354.331054688 354.998046875 322.2890625 248 c 0
 290.237304688 141.001953125 263.30078125 50.6845703125 262.4296875 47.2958984375 c 0
 261.548828125 43.90625 248.16015625 31.626953125 232.666992188 20.0068359375 c 0
 217.333984375 8.509765625 207.5703125 2.56640625 204.081054688 2.56640625 c 0
 203.383789062 2.56640625 202.936523438 2.8037109375 202.74609375 3.28125 c 0
 201.787109375 5.7021484375 200.598632812 52.048828125 199.216796875 204.866210938 c 1
 148.151367188 206.943359375 l 2
 118.344726562 208.158203125 91.3994140625 211.08984375 83.3974609375 213.986328125 c 0
 74.638671875 217.1640625 66.14453125 224.030273438 50 247.120117188 c 1
 114.040039062 271.1953125 l 2
 149.26953125 284.434570312 182.482421875 296.318359375 197.614257812 299.936523438 c 1
 197.456054688 368.598632812 l 1
 156.07421875 368.563476562 l 1
 155.564453125 368.563476562 l 2
 124.069335938 368.563476562 109.547851562 370.194335938 92.693359375 375.60546875 c 0
 74.6123046875 381.423828125 68.9609375 385.208984375 61.00390625 396.8203125 c 0
 55.677734375 404.59375 52.1123046875 411.635742188 53.0810546875 412.471679688 c 0
 54.048828125 413.298828125 79.4013671875 423.396484375 109.418945312 434.91015625 c 0
 139.436523438 446.415039062 170.73046875 457.594726562 193.934570312 463.668945312 c 1xd0
 193.802734375 567.541992188 l 1
 79.4892578125 699.197265625 l 1
 66.2236328125 746.045898438 l 2
 59.09765625 771.204101562 53.4619140625 794.689453125 54.7490234375 794.689453125 c 0
 56.9091796875 794.689453125 84.9365234375 775.224609375 118.125 750.640625 c 0
 152.12109375 725.46484375 182.684570312 702.956054688 186.056640625 700.614257812 c 0
 186.616210938 700.224609375 187.124023438 699.931640625 187.580078125 699.931640625 c 0
 189.66015625 699.931640625 190.666992188 706.03125 190.666992188 736.908203125 c 0
 190.666992188 769.173828125 189.567382812 828.493164062 187.447265625 936.177734375 c 1
 240.87109375 969.047851562 l 2xe0
EndSplineSet
EndChar

StartChar: l
Encoding: 108 108 63
Width: 510
GlyphClass: 2
Flags: MW
VStem: 178.823 111.023 195.759 87.7627 204.398 74.1416
LayerCount: 2
Fore
SplineSet
235.93359375 31.3603515625 m 2x00
 206.28515625 12.96484375 180.854492188 -0.96484375 179.43359375 0.412109375 c 0
 179.049804688 0.78125 178.822265625 4.3837890625 178.822265625 12.4677734375 c 0
 178.822265625 34.33203125 180.487304688 88.982421875 185.232421875 201.149414062 c 1
 146.635742188 201.193359375 l 2
 119.75 201.228515625 102.258789062 203.087890625 88.986328125 207.333984375 c 0
 74.2060546875 212.061523438 67.697265625 216.5703125 59.9423828125 227.46484375 c 0
 54.4423828125 235.184570312 49.9775390625 242.290039062 50.021484375 243.254882812 c 0
 50.0654296875 244.219726562 79.71484375 255.860351562 115.907226562 269.114257812 c 0
 152.109375 282.377929688 183.697265625 293.825195312 186.109375 294.552734375 c 0
 189.14453125 295.473632812 190.495117188 304.552734375 190.495117188 352.026367188 c 1
 147.512695312 352.298828125 l 2
 116.126953125 352.5 99.802734375 354.228515625 86.986328125 358.728515625 c 0
 74.091796875 363.24609375 66.6533203125 368.737304688 58.916015625 379.447265625 c 0
 53.126953125 387.46484375 49.1796875 394.561523438 50.14453125 395.228515625 c 0
 51.109375 395.88671875 77.951171875 406.061523438 109.793945312 417.842773438 c 0
 141.635742188 429.614257812 174.00390625 441.061523438 195.758789062 447.31640625 c 1
 200.6796875 567.219726562 l 2
 202.921875 621.959960938 204.397460938 669.530273438 204.397460938 685.213867188 c 0
 204.397460938 688.421875 204.3359375 690.294921875 204.206054688 690.623046875 c 0
 203.442382812 692.552734375 180.1796875 702.81640625 152.521484375 713.4296875 c 0
 104.688476562 731.78125 101.758789062 733.46484375 92.845703125 747.74609375 c 0
 87.697265625 756.008789062 84.267578125 763.46484375 85.232421875 764.31640625 c 0
 86.197265625 765.158203125 112.25 773.123046875 143.126953125 782.008789062 c 0
 174.00390625 790.89453125 201.86328125 800.026367188 205.030273438 802.290039062 c 0
 209.828125 805.728515625 211.416015625 818.869140625 214.618164062 881.8515625 c 0
 217.951171875 947.491210938 219.25 957.81640625 224.64453125 961.369140625 c 0
 228.056640625 963.60546875 240.328125 972.587890625 272.959960938 997.184570312 c 1
 275.600585938 928.114257812 l 2
 277.056640625 890.123046875 278.635742188 858.623046875 279.109375 858.114257812 c 0
 279.583007812 857.596679688 318.662109375 881.114257812 365.942382812 910.377929688 c 0
 413.223632812 939.631835938 453.880859375 964.131835938 456.293945312 964.81640625 c 0
 458.706054688 965.5 460.6796875 964.482421875 460.6796875 962.552734375 c 0
 460.6796875 960.623046875 453.626953125 939.702148438 429.336914062 873.079101562 c 1
 278.5390625 725.7109375 l 1
 283.521484375 418.693359375 l 2
 286.258789062 249.833984375 288.802734375 101.131835938 289.845703125 64.8076171875 c 1
 235.93359375 31.3603515625 l 2x00
EndSplineSet
EndChar

StartChar: m
Encoding: 109 109 64
Width: 479
GlyphClass: 2
Flags: MW
HStem: 0.805664 80.5889<301.711 322.413> 916.745 81.6338
VStem: 213.082 107.517 218.012 84.1748 227.607 56.9307
LayerCount: 2
Fore
SplineSet
268.642578125 967.973632812 m 0xe0
 306.545898438 991.694335938 318.4453125 998.37890625 325.8046875 998.37890625 c 0
 327.353515625 998.37890625 328.700195312 998.083007812 330.046875 997.587890625 c 0
 334.923828125 995.797851562 357.862304688 987.236328125 381.020507812 978.5703125 c 0
 404.177734375 969.903320312 425.107421875 961.75390625 427.529296875 960.46484375 c 0
 430.555664062 958.859375 427.248046875 953.561523438 417.002929688 943.614257812 c 0
 402.388671875 929.412109375 401.212890625 928.973632812 361.721679688 923.2890625 c 0
 339.529296875 920.087890625 321.020507812 917.140625 320.598632812 916.745117188 c 0xe0
 320.168945312 916.341796875 311.888671875 732.859375 302.186523438 509 c 0xd0
 292.485351562 285.140625 284.546875 96.8505859375 284.538085938 90.5791015625 c 0
 284.529296875 79.39453125 284.774414062 79.2109375 297.686523438 81.1318359375 c 0
 298.880859375 81.3095703125 300.618164062 81.39453125 302.8046875 81.39453125 c 0
 313.875976562 81.39453125 336.45703125 79.21875 358.212890625 75.9296875 c 0
 404.51171875 68.9208984375 405.879882812 68.46484375 418.739257812 55.5439453125 c 0
 425.967773438 48.2802734375 430.704101562 41.2197265625 429.265625 39.8505859375 c 0
 427.818359375 38.4912109375 403.344726562 28.623046875 374.879882812 17.9208984375 c 0
 348.635742188 8.0615234375 325.11328125 0.8056640625 319.711914062 0.8056640625 c 0
 319.254882812 0.8056640625 318.927734375 0.8583984375 318.739257812 0.96484375 c 0
 316.327148438 2.341796875 295.40625 16.7890625 272.248046875 33.0791015625 c 0
 249.08984375 49.3681640625 229.002929688 63.640625 227.607421875 64.7978515625 c 0xc8
 226.212890625 65.947265625 221.897460938 261.10546875 218.01171875 498.473632812 c 0xd0
 214.977539062 684.198242188 213.08203125 844.1953125 213.08203125 905.6875 c 0
 213.08203125 922.786132812 213.228515625 932.268554688 213.538085938 932.5703125 c 0
 214.950195312 933.956054688 239.748046875 949.885742188 268.642578125 967.973632812 c 0xe0
55.248046875 719.903320312 m 0
 57.8359375 718.727539062 84.677734375 698.4296875 114.888671875 674.7890625 c 0
 145.08984375 651.149414062 170.318359375 630.227539062 170.932617188 628.297851562 c 0
 170.965820312 628.1953125 170.982421875 627.974609375 170.982421875 627.637695312 c 0
 170.982421875 621.62109375 165.797851562 578.916992188 158.994140625 529.043945312 c 0
 151.809570312 476.376953125 144.353515625 433.271484375 142.423828125 433.245117188 c 0
 140.494140625 433.219726562 118.791992188 496.833007812 94.1953125 574.60546875 c 0
 69.7763671875 651.825195312 50 716.430664062 50 718.98046875 c 0
 50 720.7421875 52.81640625 720.99609375 55.248046875 719.903320312 c 0
EndSplineSet
EndChar

StartChar: n
Encoding: 110 110 65
Width: 483
GlyphClass: 2
Flags: MW
HStem: 917.673 82.0693
VStem: 211.954 110.484 221.022 82.8516 228.02 57.7988
LayerCount: 2
Fore
SplineSet
265.651367188 966.228515625 m 2x80
 295.17578125 984.55078125 321.737304688 999.7421875 324.686523438 999.7421875 c 0
 327.845703125 999.7421875 353.059570312 991.260742188 380.96875 980.815429688 c 0
 409.049804688 970.295898438 432.447265625 960.357421875 432.966796875 958.737304688 c 0
 433.486328125 957.118164062 427.940429688 950.1015625 420.642578125 943.147460938 c 0
 408.063476562 931.149414062 405.202148438 930.190429688 365.123046875 924.388671875 c 0
 341.883789062 921.03515625 322.67578125 918.006835938 322.438476562 917.672851562 c 0
 322.192382812 917.329101562 313.837890625 725.331054688 303.873046875 491 c 0
 293.926757812 257.299804688 285.818359375 60.06640625 285.818359375 51.8017578125 c 0
 285.818359375 39.2646484375 284.311523438 37.3515625 257.728515625 17.408203125 c 0
 242.6640625 6.1083984375 232.6328125 0.0146484375 229.23046875 0.0146484375 c 0
 228.583007812 0.0146484375 228.17578125 0.2353515625 228.01953125 0.6826171875 c 0
 227.174804688 3.103515625 224.0234375 192.056640625 221.021484375 420.577148438 c 0
 218.010742188 649.098632812 214.736328125 857.857421875 211.954101562 932.901367188 c 1
 265.651367188 966.228515625 l 2x80
50 720.75390625 m 0
 49.9912109375 721.237304688 51.55859375 721.633789062 53.4951171875 721.633789062 c 0
 55.431640625 721.633789062 82.7646484375 701.58984375 114.243164062 677.100585938 c 0
 145.712890625 652.610351562 172.25390625 631.90625 173.221679688 631.096679688 c 0
 174.190429688 630.287109375 169.745117188 590.506835938 163.353515625 542.708007812 c 0
 156.954101562 494.899414062 150.616210938 450.594726562 149.260742188 444.248046875 c 0
 147.9140625 437.901367188 145.475585938 433.147460938 143.85546875 433.684570312 c 0
 142.227539062 434.221679688 120.44921875 498.833984375 95.4580078125 577.267578125 c 0
 70.466796875 655.700195312 50.0087890625 720.26953125 50 720.75390625 c 0
EndSplineSet
EndChar

StartChar: o
Encoding: 111 111 66
Width: 531
GlyphClass: 2
Flags: MW
VStem: 144.674 43.7109 263.732 107.093 269.658 87.7959 284.832 58.4756
LayerCount: 2
Fore
SplineSet
284.83203125 948.875 m 2x00
 287.288085938 996.670898438 l 1
 341.399414062 953.352539062 l 1
 343.307617188 908.055664062 l 2
 344.361328125 883.143554688 350.729492188 688.717773438 357.454101562 476 c 0
 364.1875 263.282226562 370.198242188 87.6728515625 370.825195312 85.7568359375 c 0
 371.452148438 83.83984375 390.598632812 79.4326171875 413.368164062 75.95703125 c 0
 452.811523438 69.9462890625 455.407226562 69.03125 467.907226562 56.79296875 c 0
 475.119140625 49.728515625 481.04296875 43.16015625 481.069335938 42.2021484375 c 0
 481.094726562 41.244140625 456.374023438 31.3486328125 371.15625 -0.044921875 c 1
 320.633789062 32.0107421875 l 2
 292.845703125 49.650390625 268.28125 65.8173828125 266.051757812 67.951171875 c 0
 264.505859375 69.423828125 263.732421875 78.958984375 263.732421875 101.775390625 c 0
 263.732421875 124.590820312 264.505859375 160.686523438 266.051757812 215.27734375 c 0
 267.479492188 265.799804688 268.260742188 310.811523438 268.260742188 336.9453125 c 0
 268.260742188 351.625976562 268.014648438 360.349609375 267.497070312 360.748046875 c 0
 266.060546875 361.853515625 257.436523438 360.390625 248.333984375 357.490234375 c 0
 239.345703125 354.633789062 222.41796875 352.305664062 189.499023438 352.305664062 c 0
 189.079101562 352.305664062 188.655273438 352.305664062 188.229492188 352.306640625 c 1
 188.229492188 296.557617188 l 2
 188.229492188 261.71484375 186.922851562 240.80859375 184.745117188 240.80859375 c 0
 182.828125 240.80859375 172.828125 257.6640625 143.803710938 315.721679688 c 1
 97.916015625 552.655273438 l 2
 72.6806640625 682.96875 51.3125 792.333007812 50.44140625 795.686523438 c 0
 49.580078125 799.002929688 50.0107421875 801.90625 51.4765625 801.90625 c 0
 53.0107421875 801.90625 69.0341796875 793.32421875 87.1748046875 782.77734375 c 0
 105.389648438 772.193359375 122.245117188 763.517578125 124.640625 763.491210938 c 0
 127.036132812 763.474609375 129.701171875 766.984375 130.572265625 771.296875 c 0
 131.434570312 775.608398438 134.962890625 821.331054688 144.674804688 966.670898438 c 1
 155.999023438 971.33984375 l 2
 162.227539062 973.901367188 172.061523438 977.176757812 188.385742188 981.2265625 c 1
 188.028320312 437.672851562 l 1
 228.220703125 421.993164062 l 2
 250.328125 413.370117188 268.969726562 407.09765625 269.658203125 408.055664062 c 0
 270.336914062 409.014648438 273.481445312 520.337890625 276.634765625 655.442382812 c 0
 279.788085938 790.547851562 283.481445312 922.594726562 284.83203125 948.875 c 2x00
EndSplineSet
EndChar

StartChar: p
Encoding: 112 112 67
Width: 508
GlyphClass: 2
Flags: MW
HStem: 1.41113 72.8623
VStem: 50 134.305<384.276 388.458> 141.771 41.4111 249.706 83.5625 258.513 57.1865<931.669 984.091>
LayerCount: 2
Fore
SplineSet
258.512695312 984.090820312 m 2x88
 258.84375 995.571289062 l 1
 314.017578125 953.446289062 l 1
 315.69921875 931.668945312 l 2x88
 316.622070312 919.69140625 324.532226562 724.090820312 333.268554688 497 c 0
 342.014648438 269.909179688 350.272460938 83.158203125 351.622070312 82.0087890625 c 0
 352.981445312 80.8505859375 372.119140625 77.3662109375 394.157226562 74.2734375 c 0
 432.841796875 68.8291015625 434.6796875 68.1845703125 447.29296875 55.466796875 c 0
 454.479492188 48.2197265625 459.18359375 41.189453125 457.74609375 39.8310546875 c 0
 456.30859375 38.48046875 432.005859375 28.681640625 403.739257812 18.0537109375 c 0
 371.086914062 5.78125 357.948242188 1.4111328125 350.603515625 1.4111328125 c 0
 348.068359375 1.4111328125 346.224609375 1.931640625 344.505859375 2.8271484375 c 0
 340.194335938 5.0751953125 315.499023438 20.2314453125 289.627929688 36.5205078125 c 0
 263.756835938 52.810546875 242.284179688 66.259765625 241.91015625 66.4072265625 c 0
 241.53515625 66.564453125 245.045898438 270.51953125 249.706054688 519.6484375 c 0x90
 254.357421875 768.77734375 258.321289062 977.775390625 258.512695312 984.090820312 c 2x88
161.770507812 908.149414062 m 1
 183.35546875 951.704101562 l 1
 184.139648438 578.881835938 l 2
 184.251953125 524.939453125 184.3046875 473.5234375 184.3046875 427.01953125 c 0xc0
 184.3046875 296.74609375 183.887695312 205.0234375 183.181640625 204.317382812 c 0
 182.223632812 203.359375 172.868164062 205.7109375 162.397460938 209.543945312 c 0
 147.372070312 215.040039062 143.016601562 218.350585938 141.770507812 225.22265625 c 0xa0
 140.908203125 230.013671875 137.36328125 275.884765625 133.896484375 327.157226562 c 0
 128.651367188 404.8515625 126.740234375 420.327148438 122.3984375 420.327148438 c 0
 119.51171875 420.327148438 102.645507812 411.657226562 84.923828125 401.146484375 c 0
 69.76171875 392.146484375 53.962890625 384.014648438 50.63671875 384.014648438 c 0
 50.220703125 384.014648438 50 384.141601562 50 384.41015625 c 0xc0
 50 392.506835938 70.7080078125 505.908203125 140.185546875 864.595703125 c 1
 161.770507812 908.149414062 l 1
EndSplineSet
EndChar

StartChar: q
Encoding: 113 113 68
Width: 453
GlyphClass: 2
Flags: MW
HStem: 913.947 82.1133
VStem: 184.149 108.769 185.03 96.0566
LayerCount: 2
Fore
SplineSet
236.965820312 962.65234375 m 2x80
 266.004882812 980.921875 292.169921875 996.060546875 295.120117188 996.060546875 c 0
 298.279296875 996.060546875 323.493164062 987.5703125 351.40234375 977.125 c 0
 379.483398438 966.60546875 402.889648438 956.666992188 403.400390625 955.046875 c 0
 403.919921875 953.427734375 398.374023438 946.33203125 391.077148438 939.290039062 c 0
 378.400390625 927.0546875 375.944335938 926.217773438 335.557617188 920.504882812 c 0
 312.318359375 917.212890625 293.127929688 914.263671875 292.916992188 913.947265625 c 0
 292.705078125 913.629882812 287.379882812 792.151367188 281.0859375 644 c 0
 275.219726562 505.939453125 270.836914062 388.922851562 270.836914062 370.952148438 c 0
 270.836914062 368.692382812 270.655273438 367.462890625 272.3984375 367.462890625 c 0
 276.650390625 367.462890625 290.306640625 377.459960938 321.47265625 402.952148438 c 0
 348.5859375 425.134765625 371.95703125 443.286132812 373.409179688 443.286132812 c 0
 374.842773438 443.294921875 376.094726562 442.107421875 376.094726562 440.653320312 c 0
 376.094726562 439.142578125 348.749023438 346.935546875 254.571289062 33.6650390625 c 1
 227.282226562 13.1279296875 l 2
 212.801757812 2.228515625 203.05859375 -3.685546875 199.716796875 -3.685546875 c 0
 199.06640625 -3.685546875 198.659179688 -3.4619140625 198.505859375 -3.0078125 c 0
 197.678710938 -0.5869140625 196.0859375 75.8662109375 194.958984375 166.88671875 c 0
 193.823242188 257.908203125 191.930664062 383.875976562 188.603515625 561.252929688 c 1
 73.470703125 695.055664062 l 1
 60.8212890625 740.831054688 l 2
 53.9521484375 765.697265625 48.9453125 787.493164062 50.1904296875 787.493164062 c 0
 51.90234375 787.493164062 81.8251953125 766.678710938 117.247070312 740.831054688 c 0
 153.075195312 714.686523438 183.180664062 693.294921875 184.1484375 693.294921875 c 0
 184.672851562 693.294921875 185.029296875 708.876953125 185.029296875 752.234375 c 0
 185.029296875 788.93359375 184.7734375 845.53125 184.1484375 929.421875 c 1
 236.965820312 962.65234375 l 2x80
EndSplineSet
EndChar

StartChar: r
Encoding: 114 114 69
Width: 423
GlyphClass: 2
Flags: MW
HStem: 368.294 90.9092<237.996 245.951>
VStem: 157.795 96.6953 160.703 82.4854
LayerCount: 2
Fore
SplineSet
212.2265625 968.119140625 m 2x80
 262.891601562 999.762695312 l 1
 317.750976562 979.439453125 l 2
 347.92578125 968.258789062 372.978515625 958.740234375 373.416015625 958.28515625 c 0
 373.861328125 957.831054688 367.567382812 950.951171875 359.4296875 942.997070312 c 0
 344.9453125 928.827148438 343.817382812 928.416015625 304.4296875 922.743164062 c 0
 282.314453125 919.552734375 263.826171875 916.615234375 263.336914062 916.22265625 c 0
 262.856445312 915.8203125 260.268554688 868.293945312 257.59375 810.6015625 c 0
 255.641601562 768.48828125 254.490234375 731.466796875 254.490234375 714.09765625 c 0
 254.490234375 707.671875 254.647460938 703.935546875 254.98046875 703.625976562 c 0
 256.221679688 702.481445312 281.615234375 692.506835938 311.422851562 681.466796875 c 0
 341.23046875 670.426757812 367.515625 660.348632812 369.83203125 659.072265625 c 0
 372.830078125 657.419921875 371.326171875 652.5859375 364.586914062 642.201171875 c 0
 357.095703125 630.663085938 351.500976562 626.493164062 337.646484375 622.140625 c 0
 326.5625 618.65234375 307.060546875 616.624023438 248.485351562 616.545898438 c 1
 246.684570312 557.979492188 l 2
 245.688476562 525.767578125 244.115234375 490.365234375 243.188476562 479.307617188 c 0
 242.157226562 467.10546875 242.865234375 459.203125 244.989257812 459.203125 c 0
 246.912109375 459.203125 276.4140625 448.862304688 310.548828125 436.22265625 c 0
 344.68359375 423.590820312 373.013671875 412.577148438 373.494140625 411.747070312 c 0
 373.974609375 410.924804688 370.504882812 404.3515625 365.79296875 397.140625 c 0
 358.712890625 386.318359375 353.075195312 382.665039062 333.450195312 376.196289062 c 0
 315.120117188 370.165039062 301.466796875 368.364257812 237.99609375 368.293945312 c 1
 237.9609375 346.440429688 l 2
 237.934570312 334.421875 236.754882812 318.783203125 235.338867188 311.685546875 c 0
 232.8828125 299.421875 233.266601562 298.661132812 243.241210938 296.3359375 c 0
 249.009765625 294.990234375 278.905273438 284.53515625 309.674804688 273.1015625 c 0
 340.443359375 261.66796875 367.515625 251.265625 369.83203125 249.990234375 c 0
 372.838867188 248.329101562 371.334960938 243.495117188 364.586914062 233.110351562 c 0
 357.095703125 221.572265625 351.500976562 217.40234375 337.646484375 213.048828125 c 0
 325.609375 209.264648438 306.283203125 207.533203125 231.002929688 207.455078125 c 1
 229.166992188 152.384765625 l 2
 228.162109375 122.096679688 226.422851562 84.7275390625 223.258789062 41.37109375 c 1
 169.814453125 1.650390625 l 1
 167.62890625 26.755859375 l 2
 166.090820312 44.4736328125 148.100585938 109.75390625 106.440429688 248.713867188 c 0
 73.9833984375 356.982421875 48.6171875 446.274414062 50.05859375 447.140625 c 0
 51.5009765625 448.005859375 76.67578125 429.010742188 159.325195312 361.134765625 c 1
 160.522460938 377.831054688 l 2
 160.64453125 379.5234375 160.703125 385.250976562 160.703125 394.391601562 c 0
 160.703125 434.8203125 159.563476562 542.010742188 157.794921875 662 c 0
 156.349609375 760.204101562 155.627929688 827.62109375 155.627929688 870.657226562 c 0
 155.627929688 912.973632812 156.325195312 931.717773438 157.716796875 932.979492188 c 0
 159.83203125 934.90234375 184.368164062 950.71484375 212.2265625 968.119140625 c 2x80
EndSplineSet
EndChar

StartChar: s
Encoding: 115 115 70
Width: 461
GlyphClass: 2
Flags: MW
VStem: 159.463 108.895 168.592 78.7324 172.993 60.4316
LayerCount: 2
Fore
SplineSet
213.010742188 960.25390625 m 2x80
 242.456054688 979.00390625 267.84375 994.452148438 269.427734375 994.584960938 c 0
 270.2734375 994.66015625 270.703125 986.264648438 270.703125 972.901367188 c 0
 270.703125 961.220703125 270.375 945.744140625 269.709960938 928.809570312 c 0
 268.836914062 906.58984375 268.358398438 891.719726562 268.358398438 882.025390625 c 0x80
 268.358398438 869.62109375 269.141601562 865.694335938 270.879882812 865.694335938 c 0
 271.248046875 865.694335938 271.658203125 865.869140625 272.11328125 866.177734375 c 0
 274.868164062 868.043945312 307.21875 891.486328125 344.014648438 918.263671875 c 0
 380.819335938 945.041992188 411.3828125 965.702148438 411.954101562 964.170898438 c 0
 412.517578125 962.638671875 407.139648438 940.782226562 386.998046875 869.831054688 c 1
 328.829101562 802.9296875 l 2
 296.83984375 766.133789062 268.609375 733.651367188 266.091796875 730.74609375 c 0
 262.650390625 726.767578125 258.01953125 644.576171875 247.32421875 398 c 0x40
 239.5078125 217.89453125 233.186523438 62.6123046875 233.424804688 35.32421875 c 1
 206.848632812 15.0771484375 l 2
 192.236328125 3.9423828125 178.697265625 -5.1689453125 176.760742188 -5.1689453125 c 0
 174.560546875 -5.1689453125 173.151367188 17.5859375 172.993164062 55.5703125 c 0x20
 172.861328125 88.9775390625 170.880859375 241.75 168.591796875 395.059570312 c 0x40
 166.311523438 548.37890625 163.64453125 674.504882812 162.676757812 675.350585938 c 0
 161.708007812 676.186523438 140.317382812 683.326171875 115.141601562 691.204101562 c 0
 71.5234375 704.848632812 68.9091796875 706.204101562 50 734.267578125 c 1
 61.4443359375 739.091796875 l 2
 67.73828125 741.75 93.345703125 751.653320312 163.837890625 778.282226562 c 1
 159.462890625 926.168945312 l 1
 213.010742188 960.25390625 l 2x80
EndSplineSet
EndChar

StartChar: t
Encoding: 116 116 71
Width: 455
GlyphClass: 2
Flags: MW
VStem: 186.372 72.9507 200.507 55.8652
LayerCount: 2
Fore
SplineSet
226.73046875 975.96484375 m 2x40
 241.154296875 990.772460938 254.493164062 1002.08300781 256.372070312 1001.10449219 c 0x40
 258.229492188 1000.14257812 259.323242188 933.927734375 259.323242188 660.87109375 c 0
 259.323242188 611.3359375 259.287109375 554.994140625 259.212890625 491 c 1
 206.58203125 312.677734375 l 2
 177.630859375 214.600585938 152.61328125 130.422851562 150.970703125 125.615234375 c 0
 149.08203125 120.055664062 149.440429688 114.741210938 151.966796875 111 c 0
 155.026367188 106.471679688 176.3203125 101.952148438 245.096679688 91.2177734375 c 0
 289.215820312 84.3369140625 326.91796875 79.421875 334.903320312 79.421875 c 0
 335.793945312 79.421875 336.314453125 79.4833984375 336.43359375 79.609375 c 0
 337.630859375 80.876953125 341.564453125 93.5 345.174804688 107.66015625 c 0
 351.696289062 133.237304688 351.887695312 133.5 371.853515625 145.248046875 c 0
 382.911132812 151.759765625 392.579101562 156.690429688 393.338867188 156.208984375 c 0
 394.090820312 155.728515625 397.630859375 128.1328125 401.206054688 94.8896484375 c 0
 404.375 65.3359375 405.989257812 50.2314453125 405.989257812 42.333984375 c 0
 405.989257812 34.1318359375 404.248046875 33.7021484375 400.69921875 32.931640625 c 0
 396.853515625 32.1005859375 340.99609375 25.7900390625 159.431640625 6.4365234375 c 1
 50 116.874023438 l 1
 186.372070312 522.467773438 l 1x80
 200.506835938 949.041015625 l 1
 226.73046875 975.96484375 l 2x40
EndSplineSet
EndChar

StartChar: u
Encoding: 117 117 72
Width: 540
GlyphClass: 2
Flags: MW
VStem: 179.416 96.46 184.94 83.0977 190.491 62.3252
LayerCount: 2
Fore
SplineSet
235.16796875 964.620117188 m 2x00
 285.674804688 996.369140625 l 1
 308.59375 987.836914062 l 2
 321.208007812 983.15234375 345.68359375 974.139648438 362.991210938 967.811523438 c 0
 380.298828125 961.482421875 394.87890625 954.970703125 395.385742188 953.3359375 c 0
 395.90234375 951.701171875 390.39453125 944.690429688 383.1484375 937.758789062 c 0
 370.595703125 925.739257812 368.026367188 924.874023438 328.017578125 919.279296875 c 0
 304.940429688 916.053710938 285.805664062 913.073242188 285.491210938 912.662109375 c 0
 285.176757812 912.243164062 280.849609375 811.595703125 275.875976562 689 c 0
 271.338867188 577.158203125 268.038085938 482.884765625 268.038085938 466.111328125 c 0
 268.038085938 460.83203125 274.549804688 459.450195312 284.739257812 456.657226562 c 0
 293.157226562 454.349609375 325.219726562 442.907226562 355.998046875 431.228515625 c 0
 386.767578125 419.55078125 412.728515625 409.262695312 413.690429688 408.37890625 c 0
 414.65234375 407.487304688 411.111328125 400.442382812 405.823242188 392.723632812 c 0
 397.920898438 381.194335938 392.30078125 377.435546875 374.354492188 371.657226562 c 0
 357.427734375 366.217773438 343.524414062 364.698242188 267.338867188 364.698242188 c 0
 266.022460938 364.698242188 264.686523438 364.698242188 263.33203125 364.69921875 c 2
 261.697265625 346.342773438 l 2
 260.796875 336.24609375 258.418945312 284.716796875 256.426757812 231.83203125 c 0
 254.424804688 178.947265625 252.798828125 126.237304688 252.81640625 93.720703125 c 1
 330.630859375 82.0947265625 l 2
 373.427734375 75.7041015625 411.592773438 69.7080078125 415.438476562 68.7724609375 c 0
 416.267578125 68.5693359375 417.014648438 68.447265625 417.698242188 68.447265625 c 0
 422.107421875 68.447265625 423.947265625 73.4990234375 428.865234375 94.3759765625 c 0
 435.290039062 121.657226562 435.325195312 121.709960938 456.059570312 135.678710938 c 0
 467.475585938 143.370117188 477.509765625 148.877929688 478.358398438 147.916015625 c 0
 479.197265625 146.954101562 482.693359375 118.96484375 486.12890625 85.712890625 c 0
 489.138671875 56.5087890625 490.686523438 41.41015625 490.686523438 33.43359375 c 0
 490.686523438 24.98046875 488.948242188 24.5244140625 485.368164062 23.7548828125 c 0
 481.522460938 22.9248046875 425.666015625 16.666015625 361.243164062 9.8388671875 c 0
 296.810546875 3.0205078125 243.969726562 -2.1455078125 243.803710938 -1.6298828125 c 0
 243.646484375 -1.1044921875 231.583984375 14.2626953125 190.491210938 65.748046875 c 1
 184.940429688 397.916015625 l 2
 181.889648438 580.608398438 179.3984375 752.504882812 179.416015625 829.734375 c 1
 146.19921875 829.734375 l 2
 125.141601562 829.734375 105.0625 831.971679688 91.34765625 835.853515625 c 0
 73.2705078125 840.966796875 68.0693359375 844.279296875 59.7744140625 855.958007812 c 0
 54.310546875 863.650390625 49.9140625 870.73046875 50.001953125 871.692382812 c 0
 50.0888671875 872.654296875 74.9140625 882.6796875 105.176757812 893.982421875 c 0
 135.4296875 905.276367188 165.692382812 918.650390625 172.422851562 923.694335938 c 0
 179.153320312 928.74609375 207.387695312 947.155273438 235.16796875 964.620117188 c 2x00
EndSplineSet
EndChar

StartChar: v
Encoding: 118 118 73
Width: 510
GlyphClass: 2
Flags: MW
VStem: 220.834 111.023 227.158 82.8418 232.141 74.1418
LayerCount: 2
Fore
SplineSet
274.74609375 966.236328125 m 2x80
 304.39453125 984.631835938 329.825195312 998.561523438 331.24609375 997.184570312 c 0
 331.629882812 996.815429688 331.857421875 993.212890625 331.857421875 985.12890625 c 0x80
 331.857421875 963.264648438 330.192382812 908.614257812 325.447265625 796.447265625 c 1
 364.043945312 796.403320312 l 2
 390.9296875 796.368164062 408.420898438 794.508789062 421.693359375 790.262695312 c 0
 436.473632812 785.53515625 442.982421875 781.026367188 450.737304688 770.131835938 c 0
 456.237304688 762.412109375 460.702148438 755.306640625 460.658203125 754.341796875 c 0
 460.614257812 753.376953125 430.96484375 741.736328125 394.772460938 728.482421875 c 0
 358.5703125 715.21875 326.982421875 703.771484375 324.5703125 703.043945312 c 0
 321.53515625 702.123046875 320.184570312 693.043945312 320.184570312 645.5703125 c 1
 363.166992188 645.297851562 l 2
 394.552734375 645.096679688 410.876953125 643.368164062 423.693359375 638.868164062 c 0
 436.587890625 634.350585938 444.026367188 628.859375 451.763671875 618.149414062 c 0
 457.552734375 610.131835938 461.5 603.03515625 460.53515625 602.368164062 c 0
 459.5703125 601.709960938 432.728515625 591.53515625 400.885742188 579.75390625 c 0
 369.043945312 567.982421875 336.67578125 556.53515625 314.920898438 550.280273438 c 1
 310 430.376953125 l 2x40
 307.7578125 375.63671875 306.282226562 328.06640625 306.282226562 312.3828125 c 0
 306.282226562 309.174804688 306.34375 307.301757812 306.473632812 306.973632812 c 0
 307.237304688 305.043945312 330.5 294.780273438 358.158203125 284.166992188 c 0
 405.991210938 265.815429688 408.920898438 264.131835938 417.833984375 249.850585938 c 0
 422.982421875 241.587890625 426.412109375 234.131835938 425.447265625 233.280273438 c 0
 424.482421875 232.438476562 398.4296875 224.473632812 367.552734375 215.587890625 c 0
 336.67578125 206.702148438 308.81640625 197.5703125 305.649414062 195.306640625 c 0
 300.8515625 191.868164062 299.263671875 178.727539062 296.061523438 115.745117188 c 0
 292.728515625 50.10546875 291.4296875 39.7802734375 286.03515625 36.2275390625 c 0
 282.623046875 33.9912109375 270.3515625 25.0087890625 237.719726562 0.412109375 c 1
 235.079101562 69.482421875 l 2
 233.623046875 107.473632812 232.043945312 138.973632812 231.5703125 139.482421875 c 0
 231.096679688 140 192.017578125 116.482421875 144.737304688 87.21875 c 0
 97.4560546875 57.96484375 56.798828125 33.46484375 54.3857421875 32.7802734375 c 0
 51.9736328125 32.0966796875 50 33.1142578125 50 35.0439453125 c 0
 50 36.9736328125 57.052734375 57.89453125 81.3427734375 124.517578125 c 1
 232.140625 271.885742188 l 1x20
 227.158203125 578.903320312 l 2x40
 224.420898438 747.762695312 221.876953125 896.46484375 220.833984375 932.7890625 c 1
 274.74609375 966.236328125 l 2x80
EndSplineSet
EndChar

StartChar: w
Encoding: 119 119 74
Width: 474
GlyphClass: 2
Flags: MW
HStem: 0.210938 71.3906
VStem: 187.983 85.2227<608 608> 194.167 66.0938 310.866 113.974
LayerCount: 2
Fore
SplineSet
201.987304688 995.0546875 m 0xb0
 202.885742188 996.549804688 205.634765625 996.549804688 208.099609375 995.0546875 c 0
 210.5546875 993.560546875 223.27734375 984.334960938 236.364257812 974.547851562 c 0
 259.504882812 957.244140625 260.163085938 956.309570312 260.260742188 940.740234375 c 0xb0
 260.314453125 931.932617188 263.241210938 853.462890625 273.206054688 608 c 1
 412.405273438 273.48046875 l 1
 418.27734375 191.629882812 l 2
 421.528320312 146.309570312 424.83984375 106.490234375 424.83984375 102.00390625 c 0
 424.83984375 96.1396484375 411.166992188 83.78515625 366.782226562 49.3876953125 c 0
 334.487304688 24.361328125 306.461914062 2.4482421875 304.504882812 0.6953125 c 0
 304.140625 0.369140625 302.3828125 0.2109375 299.362304688 0.2109375 c 0
 284.747070312 0.2109375 240.572265625 3.9091796875 181.720703125 10.162109375 c 0
 116.150390625 17.119140625 59.30078125 23.498046875 55.3857421875 24.34375 c 0
 51.7724609375 25.1142578125 50 25.5478515625 50 33.904296875 c 0
 50 41.9453125 51.640625 57.322265625 54.8603515625 87.39453125 c 0
 58.490234375 121.23828125 62.09375 149.325195312 62.8681640625 149.814453125 c 0
 63.650390625 150.3046875 73.490234375 145.286132812 84.7451171875 138.658203125 c 0
 105.065429688 126.701171875 105.251953125 126.434570312 111.889648438 100.40234375 c 0
 115.563476562 85.9892578125 119.567382812 73.125 120.786132812 71.81640625 c 0
 120.920898438 71.671875 121.56640625 71.6015625 122.677734375 71.6015625 c 0
 131.602539062 71.6015625 170.555664062 76.1083984375 216.080078125 82.4931640625 c 0
 267.271484375 89.6728515625 309.922851562 96.3447265625 310.866210938 97.32421875 c 0
 311.80078125 98.302734375 315.643554688 139.138671875 326.212890625 277.0390625 c 1
 187.983398438 608 l 1xd0
 194.166992188 800.170898438 l 2
 197.565429688 905.864257812 201.080078125 993.560546875 201.987304688 995.0546875 c 0xb0
EndSplineSet
EndChar

StartChar: x
Encoding: 120 120 75
Width: 515
GlyphClass: 2
Flags: MW
VStem: 54.0127 53.5537 271.652 82.8389 285.778 63.3477
LayerCount: 2
Fore
SplineSet
304.372070312 963.935546875 m 1xc0
 358.745117188 997.358398438 l 1
 410.086914062 978.299804688 l 2
 438.327148438 967.8203125 462.99609375 957.872070312 464.912109375 956.200195312 c 0
 467.125 954.275390625 463.702148438 948.377929688 455.548828125 940.09375 c 0
 443.196289062 927.541015625 441.114257812 926.791992188 401.541015625 920.825195312 c 0
 383.98046875 918.169921875 368.42578125 915.368164062 361.884765625 913.751953125 c 1
 359.041015625 697.108398438 356.546875 516.89453125 354.491210938 373.029296875 c 0xc0
 352.383789062 225.46875 349.970703125 96.896484375 349.125976562 87.3154296875 c 0
 347.766601562 71.853515625 344.552734375 66.025390625 320.563476562 35.564453125 c 2
 293.533203125 1.2353515625 l 1
 271.930664062 4.109375 217.836914062 9.9892578125 159.38671875 16.173828125 c 0
 100.9375 22.349609375 51.9482421875 28.3427734375 50.5283203125 29.484375 c 0
 50.1689453125 29.7705078125 50 31.751953125 50 35.0830078125 c 0
 50 45.009765625 51.5078125 66.92578125 54.0126953125 91.6787109375 c 0
 57.34765625 124.739257812 61.2587890625 151.783203125 62.6962890625 151.783203125 c 0
 64.134765625 151.783203125 74.029296875 145.895507812 84.68359375 138.708984375 c 0
 100.51953125 128.038085938 104.708984375 123.08984375 107.56640625 111.705078125 c 0
 109.5 104.040039062 112.532226562 91.888671875 114.326171875 84.7021484375 c 0
 116.782226562 74.8154296875 119.055664062 71.9931640625 123.672851562 73.0986328125 c 0
 127.026367188 73.900390625 164.265625 79.5888671875 206.42578125 85.73828125 c 0
 252.7890625 92.4921875 285.778320312 94.30078125 285.778320312 103.99609375 c 0xa0
 285.778320312 134.58203125 279.854492188 304.034179688 271.65234375 506 c 0
 262.6015625 728.61328125 251.421875 929.618164062 250.463867188 930.680664062 c 1
 304.372070312 963.935546875 l 1xc0
EndSplineSet
EndChar

StartChar: y
Encoding: 121 121 76
Width: 314
GlyphClass: 2
Flags: MW
HStem: 372.381 89.7655
VStem: 57.0254 72.5517 61.8096 50.8623 61.8965 58.7578
LayerCount: 2
Fore
SplineSet
104.111328125 961.810546875 m 1xc0
 158.223632812 995.741210938 l 1
 209.29296875 976.741210938 l 2
 237.370117188 966.29296875 261.904296875 956.37890625 263.801757812 954.724609375 c 0
 265.991210938 952.819335938 262.602539062 946.982421875 254.54296875 938.784179688 c 0
 242.154296875 926.189453125 240.689453125 925.689453125 196.37890625 918.965820312 c 0
 171.37890625 915.172851562 149.698242188 911.29296875 148.198242188 910.344726562 c 0
 146.698242188 909.396484375 141.448242188 814.741210938 136.516601562 700 c 0
 131.596679688 585.5078125 129.577148438 485.219726562 129.577148438 476.778320312 c 0xc0
 129.577148438 467.266601562 131.107421875 462.146484375 133.919921875 462.146484375 c 0
 136.389648438 462.146484375 163.439453125 451.982421875 196.559570312 439.526367188 c 0
 229.75 427.034179688 257.29296875 416.137695312 257.766601562 415.301757812 c 0
 258.241210938 414.474609375 254.361328125 407.526367188 249.146484375 399.862304688 c 0
 241.456054688 388.577148438 235.741210938 384.646484375 218.973632812 379.146484375 c 0
 203.6171875 374.1015625 188.993164062 372.37890625 161.610351562 372.37890625 c 0
 160.119140625 372.37890625 158.619140625 372.380859375 157.236328125 372.380859375 c 0
 125.770507812 372.380859375 129.030273438 371.838867188 127.646484375 364.655273438 c 0
 126.818359375 360.387695312 123.680664062 291.724609375 120.654296875 212.069335938 c 0x90
 117.637695312 132.4140625 114.04296875 52.103515625 112.671875 33.5947265625 c 0
 111.302734375 15.0966796875 109.01953125 -0.025390625 107.588867188 -0.025390625 c 0
 106.168945312 -0.025390625 91.4052734375 5.82421875 61.8095703125 25.8623046875 c 1xa0
 61.896484375 81.0341796875 l 2x90
 61.939453125 111.37890625 59.75 278.965820312 57.025390625 453.448242188 c 0
 54.29296875 627.930664062 51.6025390625 806.060546875 50 927.87890625 c 1
 104.111328125 961.810546875 l 1xc0
EndSplineSet
EndChar

StartChar: z
Encoding: 122 122 77
Width: 463
GlyphClass: 2
Flags: MW
VStem: 173.148 93.6504 192.796 66.5382 205.787 44.7061
LayerCount: 2
Fore
SplineSet
105.36328125 980.46875 m 0x80
 131.3046875 989.999023438 154.876953125 997.18359375 159.987304688 997.18359375 c 0
 160.313476562 997.18359375 160.563476562 997.154296875 160.735351562 997.094726562 c 0
 163.58984375 996.099609375 189.108398438 981.022460938 268.987304688 931.87890625 c 1
 266.798828125 838.453125 l 2x80
 265.596679688 787.068359375 262.231445312 603.33203125 259.333984375 430.1484375 c 0x40
 256.426757812 256.96484375 253.251953125 95.02734375 250.493164062 25.3037109375 c 1
 226.565429688 12.328125 l 2
 216.150390625 5.19140625 206.798828125 -0.2578125 205.787109375 0.2177734375 c 0x20
 204.766601562 0.693359375 201.798828125 50.130859375 199.186523438 110.079101562 c 0
 196.583007812 170.02734375 194.298828125 219.46484375 194.1171875 219.940429688 c 0
 193.94140625 220.401367188 178.443359375 220.763671875 153.725585938 220.763671875 c 0
 152.897460938 220.763671875 152.059570312 220.763671875 151.2109375 220.762695312 c 2
 150.275390625 220.762695312 l 2
 115.41015625 220.762695312 99.1328125 222.236328125 86.33203125 226.549804688 c 0
 76.81640625 229.75 67.2060546875 234.828125 64.96484375 237.830078125 c 0
 62.724609375 240.840820312 58.4423828125 247.579101562 50 262.328125 c 1
 111.41796875 284.724609375 l 2
 145.198242188 297.04296875 177.327148438 308.33203125 182.811523438 309.810546875 c 0
 188.295898438 311.290039062 191.58984375 314.05859375 192.576171875 315.961914062 c 0
 192.721679688 316.241210938 192.795898438 319.392578125 192.795898438 325.083984375 c 0x40
 192.795898438 358.203125 190.294921875 477.333984375 184.913085938 617 c 0
 178.615234375 780.666992188 173.321289062 914.975585938 173.1484375 915.459960938 c 0
 172.984375 915.944335938 151.038085938 919.568359375 124.39453125 923.513671875 c 0
 79.15234375 930.208984375 75.20703125 931.411132812 64.583984375 941.662109375 c 0
 58.330078125 947.700195312 53.6591796875 954.75 54.2041015625 957.336914062 c 0
 54.7490234375 959.923828125 77.767578125 970.330078125 105.36328125 980.46875 c 0x80
357.966796875 267.172851562 m 0
 385.561523438 290.961914062 409.307617188 310.502929688 410.735351562 310.598632812 c 0
 412.162109375 310.693359375 413.295898438 309.603515625 413.251953125 308.17578125 c 0
 413.208984375 306.749023438 396.072265625 241.740234375 375.1640625 163.711914062 c 0
 354.264648438 85.6845703125 336.392578125 21.0654296875 335.44921875 20.1142578125 c 0
 334.515625 19.162109375 333.018554688 19.162109375 332.119140625 20.1142578125 c 0
 331.228515625 21.0654296875 322.672851562 64.6640625 313.114257812 117 c 0
 302.499023438 175.098632812 298.471679688 197.944335938 298.471679688 208.3359375 c 0
 298.471679688 214.112304688 299.715820312 216.041992188 301.764648438 218.038085938 c 0
 305.077148438 221.2734375 330.372070312 243.383789062 357.966796875 267.172851562 c 0
EndSplineSet
EndChar
